%TF.GenerationSoftware,KiCad,Pcbnew,7.99.0-unknown-c06cea2fe9~166~ubuntu22.04.1*%
%TF.CreationDate,2023-02-26T22:53:06+01:00*%
%TF.ProjectId,FT245 relay,46543234-3520-4726-956c-61792e6b6963,rev?*%
%TF.SameCoordinates,Original*%
%TF.FileFunction,Profile,NP*%
%FSLAX46Y46*%
G04 Gerber Fmt 4.6, Leading zero omitted, Abs format (unit mm)*
G04 Created by KiCad (PCBNEW 7.99.0-unknown-c06cea2fe9~166~ubuntu22.04.1) date 2023-02-26 22:53:06*
%MOMM*%
%LPD*%
G01*
G04 APERTURE LIST*
%TA.AperFunction,Profile*%
%ADD10C,0.100000*%
%TD*%
G04 APERTURE END LIST*
D10*
X40100000Y21800000D02*
X36500000Y21800000D01*
X36500000Y28000000D02*
X36500000Y21800000D01*
X40100000Y-21800000D02*
X40100000Y21800000D01*
X36500000Y-21800000D02*
X40100000Y-21800000D01*
X36500000Y-30000000D02*
X36500000Y-21800000D01*
X-34500000Y-21800000D02*
X-40100000Y-21800000D01*
X-34500000Y-30000000D02*
X-34500000Y-21800000D01*
X-40100000Y21550000D02*
X-40100000Y-21800000D01*
X-40100000Y21800000D02*
X-40100000Y21550000D01*
X-34500000Y21800000D02*
X-40100000Y21800000D01*
X-34500000Y28000000D02*
X-34500000Y21800000D01*
X-6150000Y34500000D02*
X-28000000Y34500000D01*
X-6150000Y40000000D02*
X-6150000Y34500000D01*
X6150000Y40000000D02*
X-6150000Y40000000D01*
X6150000Y34500000D02*
X6150000Y40000000D01*
X30000000Y34500000D02*
X6150000Y34500000D01*
%TO.C,REF\u002A\u002A*%
X-34500000Y28000000D02*
X-31000000Y28000000D01*
X-28000000Y31000000D02*
X-28000000Y34500000D01*
X30000000Y31000000D02*
X30000000Y34500000D01*
X33000000Y28000000D02*
X36500000Y28000000D01*
X36500000Y-30000000D02*
X-34500000Y-30000000D01*
X-31000000Y28000001D02*
G75*
G03*
X-28000001Y31000000I48394J2951605D01*
G01*
X30000001Y31000000D02*
G75*
G03*
X33000000Y28000001I2951599J-48400D01*
G01*
%TD*%
M02*
