%TF.GenerationSoftware,KiCad,Pcbnew,7.99.0-unknown-c06cea2fe9~166~ubuntu22.04.1*%
%TF.CreationDate,2023-02-26T22:53:06+01:00*%
%TF.ProjectId,FT245 relay,46543234-3520-4726-956c-61792e6b6963,rev?*%
%TF.SameCoordinates,Original*%
%TF.FileFunction,Legend,Top*%
%TF.FilePolarity,Positive*%
%FSLAX46Y46*%
G04 Gerber Fmt 4.6, Leading zero omitted, Abs format (unit mm)*
G04 Created by KiCad (PCBNEW 7.99.0-unknown-c06cea2fe9~166~ubuntu22.04.1) date 2023-02-26 22:53:06*
%MOMM*%
%LPD*%
G01*
G04 APERTURE LIST*
%ADD10C,0.300000*%
%ADD11C,0.150000*%
%ADD12C,0.254000*%
%ADD13C,0.120000*%
%ADD14C,0.200000*%
G04 APERTURE END LIST*
D10*
X-16748809Y-25740238D02*
X-16748809Y-23740238D01*
X-16748809Y-23740238D02*
X-16082142Y-25168809D01*
X-16082142Y-25168809D02*
X-15415476Y-23740238D01*
X-15415476Y-23740238D02*
X-15415476Y-25740238D01*
X-14463095Y-25549761D02*
X-14367857Y-25645000D01*
X-14367857Y-25645000D02*
X-14463095Y-25740238D01*
X-14463095Y-25740238D02*
X-14558333Y-25645000D01*
X-14558333Y-25645000D02*
X-14463095Y-25549761D01*
X-14463095Y-25549761D02*
X-14463095Y-25740238D01*
X-13510714Y-25740238D02*
X-13510714Y-23740238D01*
X-13510714Y-23740238D02*
X-12844047Y-25168809D01*
X-12844047Y-25168809D02*
X-12177381Y-23740238D01*
X-12177381Y-23740238D02*
X-12177381Y-25740238D01*
X-11225000Y-25549761D02*
X-11129762Y-25645000D01*
X-11129762Y-25645000D02*
X-11225000Y-25740238D01*
X-11225000Y-25740238D02*
X-11320238Y-25645000D01*
X-11320238Y-25645000D02*
X-11225000Y-25549761D01*
X-11225000Y-25549761D02*
X-11225000Y-25740238D01*
X-8844047Y-23930714D02*
X-8748809Y-23835476D01*
X-8748809Y-23835476D02*
X-8558333Y-23740238D01*
X-8558333Y-23740238D02*
X-8082142Y-23740238D01*
X-8082142Y-23740238D02*
X-7891666Y-23835476D01*
X-7891666Y-23835476D02*
X-7796428Y-23930714D01*
X-7796428Y-23930714D02*
X-7701190Y-24121190D01*
X-7701190Y-24121190D02*
X-7701190Y-24311666D01*
X-7701190Y-24311666D02*
X-7796428Y-24597380D01*
X-7796428Y-24597380D02*
X-8939285Y-25740238D01*
X-8939285Y-25740238D02*
X-7701190Y-25740238D01*
X-6463095Y-23740238D02*
X-6272618Y-23740238D01*
X-6272618Y-23740238D02*
X-6082142Y-23835476D01*
X-6082142Y-23835476D02*
X-5986904Y-23930714D01*
X-5986904Y-23930714D02*
X-5891666Y-24121190D01*
X-5891666Y-24121190D02*
X-5796428Y-24502142D01*
X-5796428Y-24502142D02*
X-5796428Y-24978333D01*
X-5796428Y-24978333D02*
X-5891666Y-25359285D01*
X-5891666Y-25359285D02*
X-5986904Y-25549761D01*
X-5986904Y-25549761D02*
X-6082142Y-25645000D01*
X-6082142Y-25645000D02*
X-6272618Y-25740238D01*
X-6272618Y-25740238D02*
X-6463095Y-25740238D01*
X-6463095Y-25740238D02*
X-6653571Y-25645000D01*
X-6653571Y-25645000D02*
X-6748809Y-25549761D01*
X-6748809Y-25549761D02*
X-6844047Y-25359285D01*
X-6844047Y-25359285D02*
X-6939285Y-24978333D01*
X-6939285Y-24978333D02*
X-6939285Y-24502142D01*
X-6939285Y-24502142D02*
X-6844047Y-24121190D01*
X-6844047Y-24121190D02*
X-6748809Y-23930714D01*
X-6748809Y-23930714D02*
X-6653571Y-23835476D01*
X-6653571Y-23835476D02*
X-6463095Y-23740238D01*
X-5034523Y-23930714D02*
X-4939285Y-23835476D01*
X-4939285Y-23835476D02*
X-4748809Y-23740238D01*
X-4748809Y-23740238D02*
X-4272618Y-23740238D01*
X-4272618Y-23740238D02*
X-4082142Y-23835476D01*
X-4082142Y-23835476D02*
X-3986904Y-23930714D01*
X-3986904Y-23930714D02*
X-3891666Y-24121190D01*
X-3891666Y-24121190D02*
X-3891666Y-24311666D01*
X-3891666Y-24311666D02*
X-3986904Y-24597380D01*
X-3986904Y-24597380D02*
X-5129761Y-25740238D01*
X-5129761Y-25740238D02*
X-3891666Y-25740238D01*
X-3224999Y-23740238D02*
X-1986904Y-23740238D01*
X-1986904Y-23740238D02*
X-2653571Y-24502142D01*
X-2653571Y-24502142D02*
X-2367856Y-24502142D01*
X-2367856Y-24502142D02*
X-2177380Y-24597380D01*
X-2177380Y-24597380D02*
X-2082142Y-24692619D01*
X-2082142Y-24692619D02*
X-1986904Y-24883095D01*
X-1986904Y-24883095D02*
X-1986904Y-25359285D01*
X-1986904Y-25359285D02*
X-2082142Y-25549761D01*
X-2082142Y-25549761D02*
X-2177380Y-25645000D01*
X-2177380Y-25645000D02*
X-2367856Y-25740238D01*
X-2367856Y-25740238D02*
X-2939285Y-25740238D01*
X-2939285Y-25740238D02*
X-3129761Y-25645000D01*
X-3129761Y-25645000D02*
X-3224999Y-25549761D01*
X-16082142Y-27932619D02*
X-16748809Y-27932619D01*
X-16748809Y-28980238D02*
X-16748809Y-26980238D01*
X-16748809Y-26980238D02*
X-15796428Y-26980238D01*
X-15320237Y-26980238D02*
X-14177380Y-26980238D01*
X-14748809Y-28980238D02*
X-14748809Y-26980238D01*
X-13605951Y-27170714D02*
X-13510713Y-27075476D01*
X-13510713Y-27075476D02*
X-13320237Y-26980238D01*
X-13320237Y-26980238D02*
X-12844046Y-26980238D01*
X-12844046Y-26980238D02*
X-12653570Y-27075476D01*
X-12653570Y-27075476D02*
X-12558332Y-27170714D01*
X-12558332Y-27170714D02*
X-12463094Y-27361190D01*
X-12463094Y-27361190D02*
X-12463094Y-27551666D01*
X-12463094Y-27551666D02*
X-12558332Y-27837380D01*
X-12558332Y-27837380D02*
X-13701189Y-28980238D01*
X-13701189Y-28980238D02*
X-12463094Y-28980238D01*
X-10748808Y-27646904D02*
X-10748808Y-28980238D01*
X-11224999Y-26885000D02*
X-11701189Y-28313571D01*
X-11701189Y-28313571D02*
X-10463094Y-28313571D01*
X-8748808Y-26980238D02*
X-9701189Y-26980238D01*
X-9701189Y-26980238D02*
X-9796427Y-27932619D01*
X-9796427Y-27932619D02*
X-9701189Y-27837380D01*
X-9701189Y-27837380D02*
X-9510713Y-27742142D01*
X-9510713Y-27742142D02*
X-9034522Y-27742142D01*
X-9034522Y-27742142D02*
X-8844046Y-27837380D01*
X-8844046Y-27837380D02*
X-8748808Y-27932619D01*
X-8748808Y-27932619D02*
X-8653570Y-28123095D01*
X-8653570Y-28123095D02*
X-8653570Y-28599285D01*
X-8653570Y-28599285D02*
X-8748808Y-28789761D01*
X-8748808Y-28789761D02*
X-8844046Y-28885000D01*
X-8844046Y-28885000D02*
X-9034522Y-28980238D01*
X-9034522Y-28980238D02*
X-9510713Y-28980238D01*
X-9510713Y-28980238D02*
X-9701189Y-28885000D01*
X-9701189Y-28885000D02*
X-9796427Y-28789761D01*
X-6272617Y-28980238D02*
X-6272617Y-27646904D01*
X-6272617Y-28027857D02*
X-6177379Y-27837380D01*
X-6177379Y-27837380D02*
X-6082141Y-27742142D01*
X-6082141Y-27742142D02*
X-5891665Y-27646904D01*
X-5891665Y-27646904D02*
X-5701188Y-27646904D01*
X-4272617Y-28885000D02*
X-4463093Y-28980238D01*
X-4463093Y-28980238D02*
X-4844046Y-28980238D01*
X-4844046Y-28980238D02*
X-5034522Y-28885000D01*
X-5034522Y-28885000D02*
X-5129760Y-28694523D01*
X-5129760Y-28694523D02*
X-5129760Y-27932619D01*
X-5129760Y-27932619D02*
X-5034522Y-27742142D01*
X-5034522Y-27742142D02*
X-4844046Y-27646904D01*
X-4844046Y-27646904D02*
X-4463093Y-27646904D01*
X-4463093Y-27646904D02*
X-4272617Y-27742142D01*
X-4272617Y-27742142D02*
X-4177379Y-27932619D01*
X-4177379Y-27932619D02*
X-4177379Y-28123095D01*
X-4177379Y-28123095D02*
X-5129760Y-28313571D01*
X-3034522Y-28980238D02*
X-3224998Y-28885000D01*
X-3224998Y-28885000D02*
X-3320236Y-28694523D01*
X-3320236Y-28694523D02*
X-3320236Y-26980238D01*
X-1415474Y-28980238D02*
X-1415474Y-27932619D01*
X-1415474Y-27932619D02*
X-1510712Y-27742142D01*
X-1510712Y-27742142D02*
X-1701188Y-27646904D01*
X-1701188Y-27646904D02*
X-2082141Y-27646904D01*
X-2082141Y-27646904D02*
X-2272617Y-27742142D01*
X-1415474Y-28885000D02*
X-1605950Y-28980238D01*
X-1605950Y-28980238D02*
X-2082141Y-28980238D01*
X-2082141Y-28980238D02*
X-2272617Y-28885000D01*
X-2272617Y-28885000D02*
X-2367855Y-28694523D01*
X-2367855Y-28694523D02*
X-2367855Y-28504047D01*
X-2367855Y-28504047D02*
X-2272617Y-28313571D01*
X-2272617Y-28313571D02*
X-2082141Y-28218333D01*
X-2082141Y-28218333D02*
X-1605950Y-28218333D01*
X-1605950Y-28218333D02*
X-1415474Y-28123095D01*
X-653569Y-27646904D02*
X-177379Y-28980238D01*
X298811Y-27646904D02*
X-177379Y-28980238D01*
X-177379Y-28980238D02*
X-367855Y-29456428D01*
X-367855Y-29456428D02*
X-463093Y-29551666D01*
X-463093Y-29551666D02*
X-653569Y-29646904D01*
X2584526Y-28980238D02*
X2584526Y-26980238D01*
X2584526Y-27742142D02*
X2775002Y-27646904D01*
X2775002Y-27646904D02*
X3155955Y-27646904D01*
X3155955Y-27646904D02*
X3346431Y-27742142D01*
X3346431Y-27742142D02*
X3441669Y-27837380D01*
X3441669Y-27837380D02*
X3536907Y-28027857D01*
X3536907Y-28027857D02*
X3536907Y-28599285D01*
X3536907Y-28599285D02*
X3441669Y-28789761D01*
X3441669Y-28789761D02*
X3346431Y-28885000D01*
X3346431Y-28885000D02*
X3155955Y-28980238D01*
X3155955Y-28980238D02*
X2775002Y-28980238D01*
X2775002Y-28980238D02*
X2584526Y-28885000D01*
X4679764Y-28980238D02*
X4489288Y-28885000D01*
X4489288Y-28885000D02*
X4394050Y-28789761D01*
X4394050Y-28789761D02*
X4298812Y-28599285D01*
X4298812Y-28599285D02*
X4298812Y-28027857D01*
X4298812Y-28027857D02*
X4394050Y-27837380D01*
X4394050Y-27837380D02*
X4489288Y-27742142D01*
X4489288Y-27742142D02*
X4679764Y-27646904D01*
X4679764Y-27646904D02*
X4965479Y-27646904D01*
X4965479Y-27646904D02*
X5155955Y-27742142D01*
X5155955Y-27742142D02*
X5251193Y-27837380D01*
X5251193Y-27837380D02*
X5346431Y-28027857D01*
X5346431Y-28027857D02*
X5346431Y-28599285D01*
X5346431Y-28599285D02*
X5251193Y-28789761D01*
X5251193Y-28789761D02*
X5155955Y-28885000D01*
X5155955Y-28885000D02*
X4965479Y-28980238D01*
X4965479Y-28980238D02*
X4679764Y-28980238D01*
X6013098Y-28980238D02*
X7060717Y-27646904D01*
X6013098Y-27646904D02*
X7060717Y-28980238D01*
D11*
%TO.C,REF\u002A\u002A*%
X-1333333Y537380D02*
X-1666666Y1013571D01*
X-1904761Y537380D02*
X-1904761Y1537380D01*
X-1904761Y1537380D02*
X-1523809Y1537380D01*
X-1523809Y1537380D02*
X-1428571Y1489761D01*
X-1428571Y1489761D02*
X-1380952Y1442142D01*
X-1380952Y1442142D02*
X-1333333Y1346904D01*
X-1333333Y1346904D02*
X-1333333Y1204047D01*
X-1333333Y1204047D02*
X-1380952Y1108809D01*
X-1380952Y1108809D02*
X-1428571Y1061190D01*
X-1428571Y1061190D02*
X-1523809Y1013571D01*
X-1523809Y1013571D02*
X-1904761Y1013571D01*
X-904761Y1061190D02*
X-571428Y1061190D01*
X-428571Y537380D02*
X-904761Y537380D01*
X-904761Y537380D02*
X-904761Y1537380D01*
X-904761Y1537380D02*
X-428571Y1537380D01*
X333333Y1061190D02*
X0Y1061190D01*
X0Y537380D02*
X0Y1537380D01*
X0Y1537380D02*
X476190Y1537380D01*
X1000000Y1537380D02*
X1000000Y1299285D01*
X761905Y1394523D02*
X1000000Y1299285D01*
X1000000Y1299285D02*
X1238095Y1394523D01*
X857143Y1108809D02*
X1000000Y1299285D01*
X1000000Y1299285D02*
X1142857Y1108809D01*
X1761905Y1537380D02*
X1761905Y1299285D01*
X1523810Y1394523D02*
X1761905Y1299285D01*
X1761905Y1299285D02*
X2000000Y1394523D01*
X1619048Y1108809D02*
X1761905Y1299285D01*
X1761905Y1299285D02*
X1904762Y1108809D01*
%TO.C,U1*%
X4562619Y8638095D02*
X5372142Y8638095D01*
X5372142Y8638095D02*
X5467380Y8685714D01*
X5467380Y8685714D02*
X5515000Y8733333D01*
X5515000Y8733333D02*
X5562619Y8828571D01*
X5562619Y8828571D02*
X5562619Y9019047D01*
X5562619Y9019047D02*
X5515000Y9114285D01*
X5515000Y9114285D02*
X5467380Y9161904D01*
X5467380Y9161904D02*
X5372142Y9209523D01*
X5372142Y9209523D02*
X4562619Y9209523D01*
X5562619Y10209523D02*
X5562619Y9638095D01*
X5562619Y9923809D02*
X4562619Y9923809D01*
X4562619Y9923809D02*
X4705476Y9828571D01*
X4705476Y9828571D02*
X4800714Y9733333D01*
X4800714Y9733333D02*
X4848333Y9638095D01*
%TO.C,L1*%
X1133333Y11237380D02*
X657143Y11237380D01*
X657143Y11237380D02*
X657143Y12237380D01*
X1990476Y11237380D02*
X1419048Y11237380D01*
X1704762Y11237380D02*
X1704762Y12237380D01*
X1704762Y12237380D02*
X1609524Y12094523D01*
X1609524Y12094523D02*
X1514286Y11999285D01*
X1514286Y11999285D02*
X1419048Y11951666D01*
%TO.C,C6*%
X933333Y12932619D02*
X885714Y12885000D01*
X885714Y12885000D02*
X742857Y12837380D01*
X742857Y12837380D02*
X647619Y12837380D01*
X647619Y12837380D02*
X504762Y12885000D01*
X504762Y12885000D02*
X409524Y12980238D01*
X409524Y12980238D02*
X361905Y13075476D01*
X361905Y13075476D02*
X314286Y13265952D01*
X314286Y13265952D02*
X314286Y13408809D01*
X314286Y13408809D02*
X361905Y13599285D01*
X361905Y13599285D02*
X409524Y13694523D01*
X409524Y13694523D02*
X504762Y13789761D01*
X504762Y13789761D02*
X647619Y13837380D01*
X647619Y13837380D02*
X742857Y13837380D01*
X742857Y13837380D02*
X885714Y13789761D01*
X885714Y13789761D02*
X933333Y13742142D01*
X1790476Y13837380D02*
X1600000Y13837380D01*
X1600000Y13837380D02*
X1504762Y13789761D01*
X1504762Y13789761D02*
X1457143Y13742142D01*
X1457143Y13742142D02*
X1361905Y13599285D01*
X1361905Y13599285D02*
X1314286Y13408809D01*
X1314286Y13408809D02*
X1314286Y13027857D01*
X1314286Y13027857D02*
X1361905Y12932619D01*
X1361905Y12932619D02*
X1409524Y12885000D01*
X1409524Y12885000D02*
X1504762Y12837380D01*
X1504762Y12837380D02*
X1695238Y12837380D01*
X1695238Y12837380D02*
X1790476Y12885000D01*
X1790476Y12885000D02*
X1838095Y12932619D01*
X1838095Y12932619D02*
X1885714Y13027857D01*
X1885714Y13027857D02*
X1885714Y13265952D01*
X1885714Y13265952D02*
X1838095Y13361190D01*
X1838095Y13361190D02*
X1790476Y13408809D01*
X1790476Y13408809D02*
X1695238Y13456428D01*
X1695238Y13456428D02*
X1504762Y13456428D01*
X1504762Y13456428D02*
X1409524Y13408809D01*
X1409524Y13408809D02*
X1361905Y13361190D01*
X1361905Y13361190D02*
X1314286Y13265952D01*
D12*
%TO.C,K8*%
X18972618Y-16337526D02*
X18972618Y-15067526D01*
X19698333Y-16337526D02*
X19154047Y-15611811D01*
X19698333Y-15067526D02*
X18972618Y-15793240D01*
X20424047Y-15611811D02*
X20303095Y-15551335D01*
X20303095Y-15551335D02*
X20242618Y-15490859D01*
X20242618Y-15490859D02*
X20182142Y-15369907D01*
X20182142Y-15369907D02*
X20182142Y-15309430D01*
X20182142Y-15309430D02*
X20242618Y-15188478D01*
X20242618Y-15188478D02*
X20303095Y-15128002D01*
X20303095Y-15128002D02*
X20424047Y-15067526D01*
X20424047Y-15067526D02*
X20665952Y-15067526D01*
X20665952Y-15067526D02*
X20786904Y-15128002D01*
X20786904Y-15128002D02*
X20847380Y-15188478D01*
X20847380Y-15188478D02*
X20907857Y-15309430D01*
X20907857Y-15309430D02*
X20907857Y-15369907D01*
X20907857Y-15369907D02*
X20847380Y-15490859D01*
X20847380Y-15490859D02*
X20786904Y-15551335D01*
X20786904Y-15551335D02*
X20665952Y-15611811D01*
X20665952Y-15611811D02*
X20424047Y-15611811D01*
X20424047Y-15611811D02*
X20303095Y-15672288D01*
X20303095Y-15672288D02*
X20242618Y-15732764D01*
X20242618Y-15732764D02*
X20182142Y-15853716D01*
X20182142Y-15853716D02*
X20182142Y-16095621D01*
X20182142Y-16095621D02*
X20242618Y-16216573D01*
X20242618Y-16216573D02*
X20303095Y-16277050D01*
X20303095Y-16277050D02*
X20424047Y-16337526D01*
X20424047Y-16337526D02*
X20665952Y-16337526D01*
X20665952Y-16337526D02*
X20786904Y-16277050D01*
X20786904Y-16277050D02*
X20847380Y-16216573D01*
X20847380Y-16216573D02*
X20907857Y-16095621D01*
X20907857Y-16095621D02*
X20907857Y-15853716D01*
X20907857Y-15853716D02*
X20847380Y-15732764D01*
X20847380Y-15732764D02*
X20786904Y-15672288D01*
X20786904Y-15672288D02*
X20665952Y-15611811D01*
%TO.C,K7*%
X18972618Y-5837526D02*
X18972618Y-4567526D01*
X19698333Y-5837526D02*
X19154047Y-5111811D01*
X19698333Y-4567526D02*
X18972618Y-5293240D01*
X20121666Y-4567526D02*
X20968333Y-4567526D01*
X20968333Y-4567526D02*
X20424047Y-5837526D01*
%TO.C,K6*%
X18972618Y4662473D02*
X18972618Y5932473D01*
X19698333Y4662473D02*
X19154047Y5388188D01*
X19698333Y5932473D02*
X18972618Y5206759D01*
X20786904Y5932473D02*
X20544999Y5932473D01*
X20544999Y5932473D02*
X20424047Y5871997D01*
X20424047Y5871997D02*
X20363571Y5811521D01*
X20363571Y5811521D02*
X20242618Y5630092D01*
X20242618Y5630092D02*
X20182142Y5388188D01*
X20182142Y5388188D02*
X20182142Y4904378D01*
X20182142Y4904378D02*
X20242618Y4783426D01*
X20242618Y4783426D02*
X20303095Y4722950D01*
X20303095Y4722950D02*
X20424047Y4662473D01*
X20424047Y4662473D02*
X20665952Y4662473D01*
X20665952Y4662473D02*
X20786904Y4722950D01*
X20786904Y4722950D02*
X20847380Y4783426D01*
X20847380Y4783426D02*
X20907857Y4904378D01*
X20907857Y4904378D02*
X20907857Y5206759D01*
X20907857Y5206759D02*
X20847380Y5327711D01*
X20847380Y5327711D02*
X20786904Y5388188D01*
X20786904Y5388188D02*
X20665952Y5448664D01*
X20665952Y5448664D02*
X20424047Y5448664D01*
X20424047Y5448664D02*
X20303095Y5388188D01*
X20303095Y5388188D02*
X20242618Y5327711D01*
X20242618Y5327711D02*
X20182142Y5206759D01*
%TO.C,K5*%
X18972618Y15162473D02*
X18972618Y16432473D01*
X19698333Y15162473D02*
X19154047Y15888188D01*
X19698333Y16432473D02*
X18972618Y15706759D01*
X20847380Y16432473D02*
X20242618Y16432473D01*
X20242618Y16432473D02*
X20182142Y15827711D01*
X20182142Y15827711D02*
X20242618Y15888188D01*
X20242618Y15888188D02*
X20363571Y15948664D01*
X20363571Y15948664D02*
X20665952Y15948664D01*
X20665952Y15948664D02*
X20786904Y15888188D01*
X20786904Y15888188D02*
X20847380Y15827711D01*
X20847380Y15827711D02*
X20907857Y15706759D01*
X20907857Y15706759D02*
X20907857Y15404378D01*
X20907857Y15404378D02*
X20847380Y15283426D01*
X20847380Y15283426D02*
X20786904Y15222950D01*
X20786904Y15222950D02*
X20665952Y15162473D01*
X20665952Y15162473D02*
X20363571Y15162473D01*
X20363571Y15162473D02*
X20242618Y15222950D01*
X20242618Y15222950D02*
X20182142Y15283426D01*
%TO.C,K4*%
X-20847381Y15162473D02*
X-20847381Y16432473D01*
X-20121666Y15162473D02*
X-20665952Y15888188D01*
X-20121666Y16432473D02*
X-20847381Y15706759D01*
X-19033095Y16009140D02*
X-19033095Y15162473D01*
X-19335476Y16492950D02*
X-19637857Y15585807D01*
X-19637857Y15585807D02*
X-18851666Y15585807D01*
%TO.C,K3*%
X-20847381Y4662473D02*
X-20847381Y5932473D01*
X-20121666Y4662473D02*
X-20665952Y5388188D01*
X-20121666Y5932473D02*
X-20847381Y5206759D01*
X-19698333Y5932473D02*
X-18912142Y5932473D01*
X-18912142Y5932473D02*
X-19335476Y5448664D01*
X-19335476Y5448664D02*
X-19154047Y5448664D01*
X-19154047Y5448664D02*
X-19033095Y5388188D01*
X-19033095Y5388188D02*
X-18972619Y5327711D01*
X-18972619Y5327711D02*
X-18912142Y5206759D01*
X-18912142Y5206759D02*
X-18912142Y4904378D01*
X-18912142Y4904378D02*
X-18972619Y4783426D01*
X-18972619Y4783426D02*
X-19033095Y4722950D01*
X-19033095Y4722950D02*
X-19154047Y4662473D01*
X-19154047Y4662473D02*
X-19516904Y4662473D01*
X-19516904Y4662473D02*
X-19637857Y4722950D01*
X-19637857Y4722950D02*
X-19698333Y4783426D01*
%TO.C,K2*%
X-20847381Y-5837526D02*
X-20847381Y-4567526D01*
X-20121666Y-5837526D02*
X-20665952Y-5111811D01*
X-20121666Y-4567526D02*
X-20847381Y-5293240D01*
X-19637857Y-4688478D02*
X-19577381Y-4628002D01*
X-19577381Y-4628002D02*
X-19456428Y-4567526D01*
X-19456428Y-4567526D02*
X-19154047Y-4567526D01*
X-19154047Y-4567526D02*
X-19033095Y-4628002D01*
X-19033095Y-4628002D02*
X-18972619Y-4688478D01*
X-18972619Y-4688478D02*
X-18912142Y-4809430D01*
X-18912142Y-4809430D02*
X-18912142Y-4930383D01*
X-18912142Y-4930383D02*
X-18972619Y-5111811D01*
X-18972619Y-5111811D02*
X-19698333Y-5837526D01*
X-19698333Y-5837526D02*
X-18912142Y-5837526D01*
%TO.C,K1*%
X-20847381Y-16337526D02*
X-20847381Y-15067526D01*
X-20121666Y-16337526D02*
X-20665952Y-15611811D01*
X-20121666Y-15067526D02*
X-20847381Y-15793240D01*
X-18912142Y-16337526D02*
X-19637857Y-16337526D01*
X-19275000Y-16337526D02*
X-19275000Y-15067526D01*
X-19275000Y-15067526D02*
X-19395952Y-15248954D01*
X-19395952Y-15248954D02*
X-19516904Y-15369907D01*
X-19516904Y-15369907D02*
X-19637857Y-15430383D01*
D11*
%TO.C,J1*%
X-9557380Y31269166D02*
X-8843095Y31269166D01*
X-8843095Y31269166D02*
X-8700238Y31221547D01*
X-8700238Y31221547D02*
X-8605000Y31126309D01*
X-8605000Y31126309D02*
X-8557380Y30983452D01*
X-8557380Y30983452D02*
X-8557380Y30888214D01*
X-8557380Y32269166D02*
X-8557380Y31697738D01*
X-8557380Y31983452D02*
X-9557380Y31983452D01*
X-9557380Y31983452D02*
X-9414523Y31888214D01*
X-9414523Y31888214D02*
X-9319285Y31792976D01*
X-9319285Y31792976D02*
X-9271666Y31697738D01*
%TO.C,Y1*%
X12421428Y3313809D02*
X12897619Y3313809D01*
X11897619Y2980476D02*
X12421428Y3313809D01*
X12421428Y3313809D02*
X11897619Y3647142D01*
X12897619Y4504285D02*
X12897619Y3932857D01*
X12897619Y4218571D02*
X11897619Y4218571D01*
X11897619Y4218571D02*
X12040476Y4123333D01*
X12040476Y4123333D02*
X12135714Y4028095D01*
X12135714Y4028095D02*
X12183333Y3932857D01*
%TO.C,C3*%
X1133333Y14632619D02*
X1085714Y14585000D01*
X1085714Y14585000D02*
X942857Y14537380D01*
X942857Y14537380D02*
X847619Y14537380D01*
X847619Y14537380D02*
X704762Y14585000D01*
X704762Y14585000D02*
X609524Y14680238D01*
X609524Y14680238D02*
X561905Y14775476D01*
X561905Y14775476D02*
X514286Y14965952D01*
X514286Y14965952D02*
X514286Y15108809D01*
X514286Y15108809D02*
X561905Y15299285D01*
X561905Y15299285D02*
X609524Y15394523D01*
X609524Y15394523D02*
X704762Y15489761D01*
X704762Y15489761D02*
X847619Y15537380D01*
X847619Y15537380D02*
X942857Y15537380D01*
X942857Y15537380D02*
X1085714Y15489761D01*
X1085714Y15489761D02*
X1133333Y15442142D01*
X1466667Y15537380D02*
X2085714Y15537380D01*
X2085714Y15537380D02*
X1752381Y15156428D01*
X1752381Y15156428D02*
X1895238Y15156428D01*
X1895238Y15156428D02*
X1990476Y15108809D01*
X1990476Y15108809D02*
X2038095Y15061190D01*
X2038095Y15061190D02*
X2085714Y14965952D01*
X2085714Y14965952D02*
X2085714Y14727857D01*
X2085714Y14727857D02*
X2038095Y14632619D01*
X2038095Y14632619D02*
X1990476Y14585000D01*
X1990476Y14585000D02*
X1895238Y14537380D01*
X1895238Y14537380D02*
X1609524Y14537380D01*
X1609524Y14537380D02*
X1514286Y14585000D01*
X1514286Y14585000D02*
X1466667Y14632619D01*
%TO.C,C2*%
X-966666Y14632619D02*
X-1014285Y14585000D01*
X-1014285Y14585000D02*
X-1157142Y14537380D01*
X-1157142Y14537380D02*
X-1252380Y14537380D01*
X-1252380Y14537380D02*
X-1395237Y14585000D01*
X-1395237Y14585000D02*
X-1490475Y14680238D01*
X-1490475Y14680238D02*
X-1538094Y14775476D01*
X-1538094Y14775476D02*
X-1585713Y14965952D01*
X-1585713Y14965952D02*
X-1585713Y15108809D01*
X-1585713Y15108809D02*
X-1538094Y15299285D01*
X-1538094Y15299285D02*
X-1490475Y15394523D01*
X-1490475Y15394523D02*
X-1395237Y15489761D01*
X-1395237Y15489761D02*
X-1252380Y15537380D01*
X-1252380Y15537380D02*
X-1157142Y15537380D01*
X-1157142Y15537380D02*
X-1014285Y15489761D01*
X-1014285Y15489761D02*
X-966666Y15442142D01*
X-585713Y15442142D02*
X-538094Y15489761D01*
X-538094Y15489761D02*
X-442856Y15537380D01*
X-442856Y15537380D02*
X-204761Y15537380D01*
X-204761Y15537380D02*
X-109523Y15489761D01*
X-109523Y15489761D02*
X-61904Y15442142D01*
X-61904Y15442142D02*
X-14285Y15346904D01*
X-14285Y15346904D02*
X-14285Y15251666D01*
X-14285Y15251666D02*
X-61904Y15108809D01*
X-61904Y15108809D02*
X-633332Y14537380D01*
X-633332Y14537380D02*
X-14285Y14537380D01*
%TO.C,J2*%
X28462619Y-333333D02*
X29176904Y-333333D01*
X29176904Y-333333D02*
X29319761Y-380952D01*
X29319761Y-380952D02*
X29415000Y-476190D01*
X29415000Y-476190D02*
X29462619Y-619047D01*
X29462619Y-619047D02*
X29462619Y-714285D01*
X28557857Y95238D02*
X28510238Y142857D01*
X28510238Y142857D02*
X28462619Y238095D01*
X28462619Y238095D02*
X28462619Y476190D01*
X28462619Y476190D02*
X28510238Y571428D01*
X28510238Y571428D02*
X28557857Y619047D01*
X28557857Y619047D02*
X28653095Y666666D01*
X28653095Y666666D02*
X28748333Y666666D01*
X28748333Y666666D02*
X28891190Y619047D01*
X28891190Y619047D02*
X29462619Y47619D01*
X29462619Y47619D02*
X29462619Y666666D01*
%TO.C,R3*%
X6133333Y14437380D02*
X5800000Y14913571D01*
X5561905Y14437380D02*
X5561905Y15437380D01*
X5561905Y15437380D02*
X5942857Y15437380D01*
X5942857Y15437380D02*
X6038095Y15389761D01*
X6038095Y15389761D02*
X6085714Y15342142D01*
X6085714Y15342142D02*
X6133333Y15246904D01*
X6133333Y15246904D02*
X6133333Y15104047D01*
X6133333Y15104047D02*
X6085714Y15008809D01*
X6085714Y15008809D02*
X6038095Y14961190D01*
X6038095Y14961190D02*
X5942857Y14913571D01*
X5942857Y14913571D02*
X5561905Y14913571D01*
X6466667Y15437380D02*
X7085714Y15437380D01*
X7085714Y15437380D02*
X6752381Y15056428D01*
X6752381Y15056428D02*
X6895238Y15056428D01*
X6895238Y15056428D02*
X6990476Y15008809D01*
X6990476Y15008809D02*
X7038095Y14961190D01*
X7038095Y14961190D02*
X7085714Y14865952D01*
X7085714Y14865952D02*
X7085714Y14627857D01*
X7085714Y14627857D02*
X7038095Y14532619D01*
X7038095Y14532619D02*
X6990476Y14485000D01*
X6990476Y14485000D02*
X6895238Y14437380D01*
X6895238Y14437380D02*
X6609524Y14437380D01*
X6609524Y14437380D02*
X6514286Y14485000D01*
X6514286Y14485000D02*
X6466667Y14532619D01*
%TO.C,J3*%
X-29537380Y-333333D02*
X-28823095Y-333333D01*
X-28823095Y-333333D02*
X-28680238Y-380952D01*
X-28680238Y-380952D02*
X-28585000Y-476190D01*
X-28585000Y-476190D02*
X-28537380Y-619047D01*
X-28537380Y-619047D02*
X-28537380Y-714285D01*
X-29537380Y47619D02*
X-29537380Y666666D01*
X-29537380Y666666D02*
X-29156428Y333333D01*
X-29156428Y333333D02*
X-29156428Y476190D01*
X-29156428Y476190D02*
X-29108809Y571428D01*
X-29108809Y571428D02*
X-29061190Y619047D01*
X-29061190Y619047D02*
X-28965952Y666666D01*
X-28965952Y666666D02*
X-28727857Y666666D01*
X-28727857Y666666D02*
X-28632619Y619047D01*
X-28632619Y619047D02*
X-28585000Y571428D01*
X-28585000Y571428D02*
X-28537380Y476190D01*
X-28537380Y476190D02*
X-28537380Y190476D01*
X-28537380Y190476D02*
X-28585000Y95238D01*
X-28585000Y95238D02*
X-28632619Y47619D01*
D13*
%TO.C,U1*%
X4200000Y8590000D02*
X3900000Y8590000D01*
X-3020000Y1670000D02*
X-3020000Y1370000D01*
X4200000Y1370000D02*
X3900000Y1370000D01*
X3900000Y8590000D02*
X3900000Y9905000D01*
X4200000Y1670000D02*
X4200000Y1370000D01*
X-3020000Y1370000D02*
X-2720000Y1370000D01*
X-3020000Y8590000D02*
X-2720000Y8590000D01*
X-3020000Y8290000D02*
X-3020000Y8590000D01*
X4200000Y8290000D02*
X4200000Y8590000D01*
%TO.C,L1*%
X3762779Y12110000D02*
X3437221Y12110000D01*
X3762779Y11090000D02*
X3437221Y11090000D01*
%TO.C,C6*%
X3740580Y13710000D02*
X3459420Y13710000D01*
X3740580Y12690000D02*
X3459420Y12690000D01*
D14*
%TO.C,K8*%
X26810000Y-13210000D02*
X26810000Y-13210000D01*
X26810000Y-13210000D02*
X26810000Y-13210000D01*
X26710000Y-13210000D02*
X26710000Y-13210000D01*
X26160000Y-19450000D02*
X13660000Y-19450000D01*
X26160000Y-19210000D02*
X26160000Y-19450000D01*
X26160000Y-17410000D02*
X26160000Y-14110000D01*
X26160000Y-12050000D02*
X26160000Y-12310000D01*
X13660000Y-19450000D02*
X13660000Y-12050000D01*
X13660000Y-12050000D02*
X26160000Y-12050000D01*
X26710000Y-13210000D02*
G75*
G03*
X26810000Y-13210000I50000J0D01*
G01*
X26810000Y-13210000D02*
G75*
G03*
X26710000Y-13210000I-50000J0D01*
G01*
X26810000Y-13210000D02*
G75*
G03*
X26710000Y-13210000I-50000J0D01*
G01*
%TO.C,K7*%
X26810000Y-2710000D02*
X26810000Y-2710000D01*
X26810000Y-2710000D02*
X26810000Y-2710000D01*
X26710000Y-2710000D02*
X26710000Y-2710000D01*
X26160000Y-8950000D02*
X13660000Y-8950000D01*
X26160000Y-8710000D02*
X26160000Y-8950000D01*
X26160000Y-6910000D02*
X26160000Y-3610000D01*
X26160000Y-1550000D02*
X26160000Y-1810000D01*
X13660000Y-8950000D02*
X13660000Y-1550000D01*
X13660000Y-1550000D02*
X26160000Y-1550000D01*
X26710000Y-2710000D02*
G75*
G03*
X26810000Y-2710000I50000J0D01*
G01*
X26810000Y-2710000D02*
G75*
G03*
X26710000Y-2710000I-50000J0D01*
G01*
X26810000Y-2710000D02*
G75*
G03*
X26710000Y-2710000I-50000J0D01*
G01*
%TO.C,K6*%
X26810000Y7790000D02*
X26810000Y7790000D01*
X26810000Y7790000D02*
X26810000Y7790000D01*
X26710000Y7790000D02*
X26710000Y7790000D01*
X26160000Y1550000D02*
X13660000Y1550000D01*
X26160000Y1790000D02*
X26160000Y1550000D01*
X26160000Y3590000D02*
X26160000Y6890000D01*
X26160000Y8950000D02*
X26160000Y8690000D01*
X13660000Y1550000D02*
X13660000Y8950000D01*
X13660000Y8950000D02*
X26160000Y8950000D01*
X26710000Y7790000D02*
G75*
G03*
X26810000Y7790000I50000J0D01*
G01*
X26810000Y7790000D02*
G75*
G03*
X26710000Y7790000I-50000J0D01*
G01*
X26810000Y7790000D02*
G75*
G03*
X26710000Y7790000I-50000J0D01*
G01*
%TO.C,K5*%
X26810000Y18290000D02*
X26810000Y18290000D01*
X26810000Y18290000D02*
X26810000Y18290000D01*
X26710000Y18290000D02*
X26710000Y18290000D01*
X26160000Y12050000D02*
X13660000Y12050000D01*
X26160000Y12290000D02*
X26160000Y12050000D01*
X26160000Y14090000D02*
X26160000Y17390000D01*
X26160000Y19450000D02*
X26160000Y19190000D01*
X13660000Y12050000D02*
X13660000Y19450000D01*
X13660000Y19450000D02*
X26160000Y19450000D01*
X26710000Y18290000D02*
G75*
G03*
X26810000Y18290000I50000J0D01*
G01*
X26810000Y18290000D02*
G75*
G03*
X26710000Y18290000I-50000J0D01*
G01*
X26810000Y18290000D02*
G75*
G03*
X26710000Y18290000I-50000J0D01*
G01*
%TO.C,K4*%
X-26810000Y13210000D02*
X-26810000Y13210000D01*
X-26810000Y13210000D02*
X-26810000Y13210000D01*
X-26710000Y13210000D02*
X-26710000Y13210000D01*
X-26160000Y19450000D02*
X-13660000Y19450000D01*
X-26160000Y19210000D02*
X-26160000Y19450000D01*
X-26160000Y17410000D02*
X-26160000Y14110000D01*
X-26160000Y12050000D02*
X-26160000Y12310000D01*
X-13660000Y19450000D02*
X-13660000Y12050000D01*
X-13660000Y12050000D02*
X-26160000Y12050000D01*
X-26710000Y13210000D02*
G75*
G03*
X-26810000Y13210000I-50000J0D01*
G01*
X-26810000Y13210000D02*
G75*
G03*
X-26710000Y13210000I50000J0D01*
G01*
X-26810000Y13210000D02*
G75*
G03*
X-26710000Y13210000I50000J0D01*
G01*
%TO.C,K3*%
X-26810000Y2710000D02*
X-26810000Y2710000D01*
X-26810000Y2710000D02*
X-26810000Y2710000D01*
X-26710000Y2710000D02*
X-26710000Y2710000D01*
X-26160000Y8950000D02*
X-13660000Y8950000D01*
X-26160000Y8710000D02*
X-26160000Y8950000D01*
X-26160000Y6910000D02*
X-26160000Y3610000D01*
X-26160000Y1550000D02*
X-26160000Y1810000D01*
X-13660000Y8950000D02*
X-13660000Y1550000D01*
X-13660000Y1550000D02*
X-26160000Y1550000D01*
X-26710000Y2710000D02*
G75*
G03*
X-26810000Y2710000I-50000J0D01*
G01*
X-26810000Y2710000D02*
G75*
G03*
X-26710000Y2710000I50000J0D01*
G01*
X-26810000Y2710000D02*
G75*
G03*
X-26710000Y2710000I50000J0D01*
G01*
%TO.C,K2*%
X-26810000Y-7790000D02*
X-26810000Y-7790000D01*
X-26810000Y-7790000D02*
X-26810000Y-7790000D01*
X-26710000Y-7790000D02*
X-26710000Y-7790000D01*
X-26160000Y-1550000D02*
X-13660000Y-1550000D01*
X-26160000Y-1790000D02*
X-26160000Y-1550000D01*
X-26160000Y-3590000D02*
X-26160000Y-6890000D01*
X-26160000Y-8950000D02*
X-26160000Y-8690000D01*
X-13660000Y-1550000D02*
X-13660000Y-8950000D01*
X-13660000Y-8950000D02*
X-26160000Y-8950000D01*
X-26710000Y-7790000D02*
G75*
G03*
X-26810000Y-7790000I-50000J0D01*
G01*
X-26810000Y-7790000D02*
G75*
G03*
X-26710000Y-7790000I50000J0D01*
G01*
X-26810000Y-7790000D02*
G75*
G03*
X-26710000Y-7790000I50000J0D01*
G01*
%TO.C,K1*%
X-26810000Y-18290000D02*
X-26810000Y-18290000D01*
X-26810000Y-18290000D02*
X-26810000Y-18290000D01*
X-26710000Y-18290000D02*
X-26710000Y-18290000D01*
X-26160000Y-12050000D02*
X-13660000Y-12050000D01*
X-26160000Y-12290000D02*
X-26160000Y-12050000D01*
X-26160000Y-14090000D02*
X-26160000Y-17390000D01*
X-26160000Y-19450000D02*
X-26160000Y-19190000D01*
X-13660000Y-12050000D02*
X-13660000Y-19450000D01*
X-13660000Y-19450000D02*
X-26160000Y-19450000D01*
X-26710000Y-18290000D02*
G75*
G03*
X-26810000Y-18290000I-50000J0D01*
G01*
X-26810000Y-18290000D02*
G75*
G03*
X-26710000Y-18290000I50000J0D01*
G01*
X-26810000Y-18290000D02*
G75*
G03*
X-26710000Y-18290000I50000J0D01*
G01*
D13*
%TO.C,J1*%
X-6160000Y39962500D02*
X6160000Y39962500D01*
X-6160000Y27502500D02*
X-6160000Y23242500D01*
X-750000Y22522500D02*
X-1250000Y23022500D01*
X-6160000Y31602500D02*
X-6160000Y39962500D01*
X6160000Y39962500D02*
X6160000Y31602500D01*
X6160000Y23242500D02*
X6160000Y27502500D01*
X-6160000Y23242500D02*
X6160000Y23242500D01*
X-1250000Y23022500D02*
X-1750000Y22522500D01*
X-1750000Y22522500D02*
X-750000Y22522500D01*
%TO.C,Y1*%
X11435000Y6990000D02*
X11435000Y590000D01*
X6385000Y6990000D02*
X6385000Y590000D01*
X11435000Y6990000D02*
G75*
G03*
X6385000Y6990000I-2525000J0D01*
G01*
X6385000Y590000D02*
G75*
G03*
X11435000Y590000I2525000J0D01*
G01*
%TO.C,C3*%
X3940580Y15510000D02*
X3659420Y15510000D01*
X3940580Y14490000D02*
X3659420Y14490000D01*
%TO.C,C2*%
X-90000Y12459420D02*
X-90000Y12740580D01*
X-1110000Y12459420D02*
X-1110000Y12740580D01*
%TO.C,J2*%
X30690000Y13300000D02*
X30690000Y14700000D01*
X40110000Y21810000D02*
X30690000Y21810000D01*
X30690000Y-11200000D02*
X30690000Y-9800000D01*
X30690000Y-7700000D02*
X30690000Y-6300000D01*
X30690000Y-18200000D02*
X30690000Y-16800000D01*
X30690000Y-21810000D02*
X40110000Y-21810000D01*
X30690000Y9800000D02*
X30690000Y11200000D01*
X30690000Y6300000D02*
X30690000Y7700000D01*
X30690000Y-4200000D02*
X30690000Y-2800000D01*
X29400000Y-19550000D02*
X29400000Y-18950000D01*
X36800000Y-21810000D02*
X36800000Y21810000D01*
X30000000Y-19250000D02*
X29400000Y-19550000D01*
X30690000Y16800000D02*
X30690000Y18200000D01*
X29400000Y-18950000D02*
X30000000Y-19250000D01*
X30690000Y-14700000D02*
X30690000Y-13300000D01*
X40110000Y-21810000D02*
X40110000Y21810000D01*
X30690000Y-21810000D02*
X30690000Y-20300000D01*
X30690000Y-700000D02*
X30690000Y700000D01*
X30690000Y21810000D02*
X30690000Y20300000D01*
X30690000Y2800000D02*
X30690000Y4200000D01*
%TO.C,R3*%
X5477500Y12637258D02*
X5477500Y12162742D01*
X6522500Y12637258D02*
X6522500Y12162742D01*
%TO.C,J3*%
X-30690000Y-13300000D02*
X-30690000Y-14700000D01*
X-40110000Y-21810000D02*
X-30690000Y-21810000D01*
X-30690000Y11200000D02*
X-30690000Y9800000D01*
X-30690000Y7700000D02*
X-30690000Y6300000D01*
X-30690000Y18200000D02*
X-30690000Y16800000D01*
X-30690000Y21810000D02*
X-40110000Y21810000D01*
X-30690000Y-9800000D02*
X-30690000Y-11200000D01*
X-30690000Y-6300000D02*
X-30690000Y-7700000D01*
X-30690000Y4200000D02*
X-30690000Y2800000D01*
X-29400000Y19550000D02*
X-29400000Y18950000D01*
X-36800000Y21810000D02*
X-36800000Y-21810000D01*
X-30000000Y19250000D02*
X-29400000Y19550000D01*
X-30690000Y-16800000D02*
X-30690000Y-18200000D01*
X-29400000Y18950000D02*
X-30000000Y19250000D01*
X-30690000Y14700000D02*
X-30690000Y13300000D01*
X-40110000Y21810000D02*
X-40110000Y-21810000D01*
X-30690000Y21810000D02*
X-30690000Y20300000D01*
X-30690000Y700000D02*
X-30690000Y-700000D01*
X-30690000Y-21810000D02*
X-30690000Y-20300000D01*
X-30690000Y-2800000D02*
X-30690000Y-4200000D01*
%TD*%
M02*
