%TF.GenerationSoftware,KiCad,Pcbnew,7.99.0-unknown-c06cea2fe9~166~ubuntu22.04.1*%
%TF.CreationDate,2023-02-26T22:53:06+01:00*%
%TF.ProjectId,FT245 relay,46543234-3520-4726-956c-61792e6b6963,rev?*%
%TF.SameCoordinates,Original*%
%TF.FileFunction,Soldermask,Bot*%
%TF.FilePolarity,Negative*%
%FSLAX46Y46*%
G04 Gerber Fmt 4.6, Leading zero omitted, Abs format (unit mm)*
G04 Created by KiCad (PCBNEW 7.99.0-unknown-c06cea2fe9~166~ubuntu22.04.1) date 2023-02-26 22:53:06*
%MOMM*%
%LPD*%
G01*
G04 APERTURE LIST*
G04 Aperture macros list*
%AMRoundRect*
0 Rectangle with rounded corners*
0 $1 Rounding radius*
0 $2 $3 $4 $5 $6 $7 $8 $9 X,Y pos of 4 corners*
0 Add a 4 corners polygon primitive as box body*
4,1,4,$2,$3,$4,$5,$6,$7,$8,$9,$2,$3,0*
0 Add four circle primitives for the rounded corners*
1,1,$1+$1,$2,$3*
1,1,$1+$1,$4,$5*
1,1,$1+$1,$6,$7*
1,1,$1+$1,$8,$9*
0 Add four rect primitives between the rounded corners*
20,1,$1+$1,$2,$3,$4,$5,0*
20,1,$1+$1,$4,$5,$6,$7,0*
20,1,$1+$1,$6,$7,$8,$9,0*
20,1,$1+$1,$8,$9,$2,$3,0*%
G04 Aperture macros list end*
%ADD10C,2.500000*%
%ADD11RoundRect,0.250000X0.600000X-0.400000X0.600000X0.400000X-0.600000X0.400000X-0.600000X-0.400000X0*%
%ADD12RoundRect,0.250000X-0.600000X0.400000X-0.600000X-0.400000X0.600000X-0.400000X0.600000X0.400000X0*%
%ADD13R,0.650000X0.400000*%
%ADD14RoundRect,0.200000X0.200000X0.275000X-0.200000X0.275000X-0.200000X-0.275000X0.200000X-0.275000X0*%
%ADD15C,1.300000*%
%ADD16R,1.700000X1.700000*%
%ADD17C,1.700000*%
%ADD18C,3.500000*%
%ADD19C,1.500000*%
%ADD20RoundRect,0.250000X1.550000X-0.650000X1.550000X0.650000X-1.550000X0.650000X-1.550000X-0.650000X0*%
%ADD21O,3.600000X1.800000*%
%ADD22RoundRect,0.250000X-1.550000X0.650000X-1.550000X-0.650000X1.550000X-0.650000X1.550000X0.650000X0*%
%ADD23RoundRect,0.200000X-0.200000X-0.275000X0.200000X-0.275000X0.200000X0.275000X-0.200000X0.275000X0*%
%ADD24RoundRect,0.225000X0.225000X0.250000X-0.225000X0.250000X-0.225000X-0.250000X0.225000X-0.250000X0*%
%ADD25RoundRect,0.225000X0.250000X-0.225000X0.250000X0.225000X-0.250000X0.225000X-0.250000X-0.225000X0*%
G04 APERTURE END LIST*
D10*
%TO.C,REF\u002A\u002A*%
X-25500000Y25500000D03*
X-25500000Y25500000D03*
X-25500000Y-25500000D03*
X-25500000Y-25500000D03*
X25500000Y25500000D03*
X25500000Y25500000D03*
X25500000Y-25500000D03*
X25500000Y-25500000D03*
%TD*%
D11*
%TO.C,D1*%
X-20200000Y-17450000D03*
X-20200000Y-13950000D03*
%TD*%
D12*
%TO.C,D2*%
X-20300000Y-3550000D03*
X-20300000Y-7050000D03*
%TD*%
D13*
%TO.C,Q1*%
X-23649999Y-11149999D03*
X-23649999Y-10499999D03*
X-23649999Y-9849999D03*
X-21749999Y-9849999D03*
X-21749999Y-10499999D03*
X-21749999Y-11149999D03*
%TD*%
D14*
%TO.C,R4*%
X-25075000Y-10500000D03*
X-26725000Y-10500000D03*
%TD*%
D12*
%TO.C,D4*%
X-20600000Y17550000D03*
X-20600000Y14050000D03*
%TD*%
D11*
%TO.C,D3*%
X-19800000Y3450000D03*
X-19800000Y6950000D03*
%TD*%
D15*
%TO.C,K8*%
X25310000Y-13210000D03*
X22770000Y-13210000D03*
X15150000Y-13210000D03*
X15150000Y-18290000D03*
X22770000Y-18290000D03*
X25310000Y-18290000D03*
%TD*%
%TO.C,K7*%
X25310000Y-2710000D03*
X22770000Y-2710000D03*
X15150000Y-2710000D03*
X15150000Y-7790000D03*
X22770000Y-7790000D03*
X25310000Y-7790000D03*
%TD*%
%TO.C,K6*%
X25310000Y7790000D03*
X22770000Y7790000D03*
X15150000Y7790000D03*
X15150000Y2710000D03*
X22770000Y2710000D03*
X25310000Y2710000D03*
%TD*%
%TO.C,K5*%
X25310000Y18290000D03*
X22770000Y18290000D03*
X15150000Y18290000D03*
X15150000Y13210000D03*
X22770000Y13210000D03*
X25310000Y13210000D03*
%TD*%
%TO.C,K4*%
X-25310000Y13210000D03*
X-22770000Y13210000D03*
X-15150000Y13210000D03*
X-15150000Y18290000D03*
X-22770000Y18290000D03*
X-25310000Y18290000D03*
%TD*%
%TO.C,K3*%
X-25310000Y2710000D03*
X-22770000Y2710000D03*
X-15150000Y2710000D03*
X-15150000Y7790000D03*
X-22770000Y7790000D03*
X-25310000Y7790000D03*
%TD*%
%TO.C,K2*%
X-25310000Y-7790000D03*
X-22770000Y-7790000D03*
X-15150000Y-7790000D03*
X-15150000Y-2710000D03*
X-22770000Y-2710000D03*
X-25310000Y-2710000D03*
%TD*%
%TO.C,K1*%
X-25310000Y-18290000D03*
X-22770000Y-18290000D03*
X-15150000Y-18290000D03*
X-15150000Y-13210000D03*
X-22770000Y-13210000D03*
X-25310000Y-13210000D03*
%TD*%
D11*
%TO.C,D14*%
X20200000Y-17550000D03*
X20200000Y-14050000D03*
%TD*%
D12*
%TO.C,D12*%
X20200000Y-3450000D03*
X20200000Y-6950000D03*
%TD*%
%TO.C,D10*%
X20400000Y17550000D03*
X20400000Y14050000D03*
%TD*%
D11*
%TO.C,D5*%
X19910000Y3500000D03*
X19910000Y7000000D03*
%TD*%
D16*
%TO.C,J1*%
X-1249999Y24842499D03*
D17*
X1250000Y24842500D03*
X1250000Y26842500D03*
X-1250000Y26842500D03*
D18*
X-6020000Y29552500D03*
X6020000Y29552500D03*
%TD*%
D19*
%TO.C,Y1*%
X8910000Y6230000D03*
X8910000Y1350000D03*
%TD*%
D20*
%TO.C,J2*%
X32000000Y-19250000D03*
D21*
X31999999Y-15749999D03*
X31999999Y-12249999D03*
X31999999Y-8749999D03*
X31999999Y-5249999D03*
X31999999Y-1749999D03*
X31999999Y1749999D03*
X31999999Y5249999D03*
X31999999Y8749999D03*
X31999999Y12249999D03*
X31999999Y15749999D03*
X31999999Y19249999D03*
%TD*%
D22*
%TO.C,J3*%
X-32000000Y19250000D03*
D21*
X-31999999Y15749999D03*
X-31999999Y12249999D03*
X-31999999Y8749999D03*
X-31999999Y5249999D03*
X-31999999Y1749999D03*
X-31999999Y-1749999D03*
X-31999999Y-5249999D03*
X-31999999Y-8749999D03*
X-31999999Y-12249999D03*
X-31999999Y-15749999D03*
X-31999999Y-19249999D03*
%TD*%
D13*
%TO.C,Q2*%
X-23719999Y9849999D03*
X-23719999Y10499999D03*
X-23719999Y11149999D03*
X-21819999Y11149999D03*
X-21819999Y10499999D03*
X-21819999Y9849999D03*
%TD*%
%TO.C,Q3*%
X23729999Y11069999D03*
X23729999Y10419999D03*
X23729999Y9769999D03*
X21829999Y9769999D03*
X21829999Y10419999D03*
X21829999Y11069999D03*
%TD*%
D23*
%TO.C,R7*%
X-20425000Y10500000D03*
X-18775000Y10500000D03*
%TD*%
D14*
%TO.C,R12*%
X20225000Y-10770000D03*
X18575000Y-10770000D03*
%TD*%
D24*
%TO.C,C5*%
X8775000Y-200000D03*
X7225000Y-200000D03*
%TD*%
%TO.C,C4*%
X8775000Y8200000D03*
X7225000Y8200000D03*
%TD*%
D14*
%TO.C,R2*%
X4775000Y26842500D03*
X3125000Y26842500D03*
%TD*%
D25*
%TO.C,C1*%
X-3600000Y25225000D03*
X-3600000Y26775000D03*
%TD*%
D14*
%TO.C,R6*%
X-25075000Y10500000D03*
X-26725000Y10500000D03*
%TD*%
%TO.C,R1*%
X4775000Y24842500D03*
X3125000Y24842500D03*
%TD*%
D23*
%TO.C,R5*%
X-20425000Y-10500000D03*
X-18775000Y-10500000D03*
%TD*%
%TO.C,R9*%
X25175000Y10420000D03*
X26825000Y10420000D03*
%TD*%
%TO.C,R11*%
X25175000Y-10770000D03*
X26825000Y-10770000D03*
%TD*%
D14*
%TO.C,R10*%
X20425000Y10420000D03*
X18775000Y10420000D03*
%TD*%
D13*
%TO.C,Q4*%
X23759999Y-10119999D03*
X23759999Y-10769999D03*
X23759999Y-11419999D03*
X21859999Y-11419999D03*
X21859999Y-10769999D03*
X21859999Y-10119999D03*
%TD*%
M02*
