%TF.GenerationSoftware,KiCad,Pcbnew,7.99.0-unknown-c06cea2fe9~166~ubuntu22.04.1*%
%TF.CreationDate,2023-02-26T22:53:06+01:00*%
%TF.ProjectId,FT245 relay,46543234-3520-4726-956c-61792e6b6963,rev?*%
%TF.SameCoordinates,Original*%
%TF.FileFunction,Soldermask,Top*%
%TF.FilePolarity,Negative*%
%FSLAX46Y46*%
G04 Gerber Fmt 4.6, Leading zero omitted, Abs format (unit mm)*
G04 Created by KiCad (PCBNEW 7.99.0-unknown-c06cea2fe9~166~ubuntu22.04.1) date 2023-02-26 22:53:06*
%MOMM*%
%LPD*%
G01*
G04 APERTURE LIST*
G04 Aperture macros list*
%AMRoundRect*
0 Rectangle with rounded corners*
0 $1 Rounding radius*
0 $2 $3 $4 $5 $6 $7 $8 $9 X,Y pos of 4 corners*
0 Add a 4 corners polygon primitive as box body*
4,1,4,$2,$3,$4,$5,$6,$7,$8,$9,$2,$3,0*
0 Add four circle primitives for the rounded corners*
1,1,$1+$1,$2,$3*
1,1,$1+$1,$4,$5*
1,1,$1+$1,$6,$7*
1,1,$1+$1,$8,$9*
0 Add four rect primitives between the rounded corners*
20,1,$1+$1,$2,$3,$4,$5,0*
20,1,$1+$1,$4,$5,$6,$7,0*
20,1,$1+$1,$6,$7,$8,$9,0*
20,1,$1+$1,$8,$9,$2,$3,0*%
G04 Aperture macros list end*
%ADD10C,2.500000*%
%ADD11RoundRect,0.125000X-0.125000X0.625000X-0.125000X-0.625000X0.125000X-0.625000X0.125000X0.625000X0*%
%ADD12RoundRect,0.125000X-0.625000X0.125000X-0.625000X-0.125000X0.625000X-0.125000X0.625000X0.125000X0*%
%ADD13RoundRect,0.218750X0.218750X0.256250X-0.218750X0.256250X-0.218750X-0.256250X0.218750X-0.256250X0*%
%ADD14RoundRect,0.225000X0.225000X0.250000X-0.225000X0.250000X-0.225000X-0.250000X0.225000X-0.250000X0*%
%ADD15C,1.300000*%
%ADD16R,1.700000X1.700000*%
%ADD17C,1.700000*%
%ADD18C,3.500000*%
%ADD19C,1.500000*%
%ADD20RoundRect,0.225000X0.250000X-0.225000X0.250000X0.225000X-0.250000X0.225000X-0.250000X-0.225000X0*%
%ADD21RoundRect,0.250000X1.550000X-0.650000X1.550000X0.650000X-1.550000X0.650000X-1.550000X-0.650000X0*%
%ADD22O,3.600000X1.800000*%
%ADD23RoundRect,0.200000X-0.275000X0.200000X-0.275000X-0.200000X0.275000X-0.200000X0.275000X0.200000X0*%
%ADD24RoundRect,0.250000X-1.550000X0.650000X-1.550000X-0.650000X1.550000X-0.650000X1.550000X0.650000X0*%
G04 APERTURE END LIST*
D10*
%TO.C,REF\u002A\u002A*%
X-25500000Y25500000D03*
X-25500000Y25500000D03*
X-25500000Y-25500000D03*
X-25500000Y-25500000D03*
X25500000Y25500000D03*
X25500000Y25500000D03*
X25500000Y-25500000D03*
X25500000Y-25500000D03*
%TD*%
D11*
%TO.C,U1*%
X3390000Y9155000D03*
X2590000Y9155000D03*
X1790000Y9155000D03*
X990000Y9155000D03*
X190000Y9155000D03*
X-610000Y9155000D03*
X-1410000Y9155000D03*
X-2210000Y9155000D03*
D12*
X-3585000Y7780000D03*
X-3585000Y6980000D03*
X-3585000Y6180000D03*
X-3585000Y5380000D03*
X-3585000Y4580000D03*
X-3585000Y3780000D03*
X-3585000Y2980000D03*
X-3585000Y2180000D03*
D11*
X-2210000Y805000D03*
X-1410000Y805000D03*
X-610000Y805000D03*
X190000Y805000D03*
X990000Y805000D03*
X1790000Y805000D03*
X2590000Y805000D03*
X3390000Y805000D03*
D12*
X4765000Y2180000D03*
X4765000Y2980000D03*
X4765000Y3780000D03*
X4765000Y4580000D03*
X4765000Y5380000D03*
X4765000Y6180000D03*
X4765000Y6980000D03*
X4765000Y7780000D03*
%TD*%
D13*
%TO.C,L1*%
X4387500Y11600000D03*
X2812500Y11600000D03*
%TD*%
D14*
%TO.C,C6*%
X4375000Y13200000D03*
X2825000Y13200000D03*
%TD*%
D15*
%TO.C,K8*%
X25310000Y-13210000D03*
X22770000Y-13210000D03*
X15150000Y-13210000D03*
X15150000Y-18290000D03*
X22770000Y-18290000D03*
X25310000Y-18290000D03*
%TD*%
%TO.C,K7*%
X25310000Y-2710000D03*
X22770000Y-2710000D03*
X15150000Y-2710000D03*
X15150000Y-7790000D03*
X22770000Y-7790000D03*
X25310000Y-7790000D03*
%TD*%
%TO.C,K6*%
X25310000Y7790000D03*
X22770000Y7790000D03*
X15150000Y7790000D03*
X15150000Y2710000D03*
X22770000Y2710000D03*
X25310000Y2710000D03*
%TD*%
%TO.C,K5*%
X25310000Y18290000D03*
X22770000Y18290000D03*
X15150000Y18290000D03*
X15150000Y13210000D03*
X22770000Y13210000D03*
X25310000Y13210000D03*
%TD*%
%TO.C,K4*%
X-25310000Y13210000D03*
X-22770000Y13210000D03*
X-15150000Y13210000D03*
X-15150000Y18290000D03*
X-22770000Y18290000D03*
X-25310000Y18290000D03*
%TD*%
%TO.C,K3*%
X-25310000Y2710000D03*
X-22770000Y2710000D03*
X-15150000Y2710000D03*
X-15150000Y7790000D03*
X-22770000Y7790000D03*
X-25310000Y7790000D03*
%TD*%
%TO.C,K2*%
X-25310000Y-7790000D03*
X-22770000Y-7790000D03*
X-15150000Y-7790000D03*
X-15150000Y-2710000D03*
X-22770000Y-2710000D03*
X-25310000Y-2710000D03*
%TD*%
%TO.C,K1*%
X-25310000Y-18290000D03*
X-22770000Y-18290000D03*
X-15150000Y-18290000D03*
X-15150000Y-13210000D03*
X-22770000Y-13210000D03*
X-25310000Y-13210000D03*
%TD*%
D16*
%TO.C,J1*%
X-1249999Y24842499D03*
D17*
X1250000Y24842500D03*
X1250000Y26842500D03*
X-1250000Y26842500D03*
D18*
X-6020000Y29552500D03*
X6020000Y29552500D03*
%TD*%
D19*
%TO.C,Y1*%
X8910000Y6230000D03*
X8910000Y1350000D03*
%TD*%
D14*
%TO.C,C3*%
X4575000Y15000000D03*
X3025000Y15000000D03*
%TD*%
D20*
%TO.C,C2*%
X-600000Y11825000D03*
X-600000Y13375000D03*
%TD*%
D21*
%TO.C,J2*%
X32000000Y-19250000D03*
D22*
X31999999Y-15749999D03*
X31999999Y-12249999D03*
X31999999Y-8749999D03*
X31999999Y-5249999D03*
X31999999Y-1749999D03*
X31999999Y1749999D03*
X31999999Y5249999D03*
X31999999Y8749999D03*
X31999999Y12249999D03*
X31999999Y15749999D03*
X31999999Y19249999D03*
%TD*%
D23*
%TO.C,R3*%
X6000000Y13225000D03*
X6000000Y11575000D03*
%TD*%
D24*
%TO.C,J3*%
X-32000000Y19250000D03*
D22*
X-31999999Y15749999D03*
X-31999999Y12249999D03*
X-31999999Y8749999D03*
X-31999999Y5249999D03*
X-31999999Y1749999D03*
X-31999999Y-1749999D03*
X-31999999Y-5249999D03*
X-31999999Y-8749999D03*
X-31999999Y-12249999D03*
X-31999999Y-15749999D03*
X-31999999Y-19249999D03*
%TD*%
M02*
