%TF.GenerationSoftware,KiCad,Pcbnew,7.99.0-unknown-c06cea2fe9~166~ubuntu22.04.1*%
%TF.CreationDate,2023-02-26T22:53:05+01:00*%
%TF.ProjectId,FT245 relay,46543234-3520-4726-956c-61792e6b6963,rev?*%
%TF.SameCoordinates,Original*%
%TF.FileFunction,Copper,L2,Bot*%
%TF.FilePolarity,Positive*%
%FSLAX46Y46*%
G04 Gerber Fmt 4.6, Leading zero omitted, Abs format (unit mm)*
G04 Created by KiCad (PCBNEW 7.99.0-unknown-c06cea2fe9~166~ubuntu22.04.1) date 2023-02-26 22:53:05*
%MOMM*%
%LPD*%
G01*
G04 APERTURE LIST*
G04 Aperture macros list*
%AMRoundRect*
0 Rectangle with rounded corners*
0 $1 Rounding radius*
0 $2 $3 $4 $5 $6 $7 $8 $9 X,Y pos of 4 corners*
0 Add a 4 corners polygon primitive as box body*
4,1,4,$2,$3,$4,$5,$6,$7,$8,$9,$2,$3,0*
0 Add four circle primitives for the rounded corners*
1,1,$1+$1,$2,$3*
1,1,$1+$1,$4,$5*
1,1,$1+$1,$6,$7*
1,1,$1+$1,$8,$9*
0 Add four rect primitives between the rounded corners*
20,1,$1+$1,$2,$3,$4,$5,0*
20,1,$1+$1,$4,$5,$6,$7,0*
20,1,$1+$1,$6,$7,$8,$9,0*
20,1,$1+$1,$8,$9,$2,$3,0*%
G04 Aperture macros list end*
%TA.AperFunction,SMDPad,CuDef*%
%ADD10RoundRect,0.250000X0.600000X-0.400000X0.600000X0.400000X-0.600000X0.400000X-0.600000X-0.400000X0*%
%TD*%
%TA.AperFunction,SMDPad,CuDef*%
%ADD11RoundRect,0.250000X-0.600000X0.400000X-0.600000X-0.400000X0.600000X-0.400000X0.600000X0.400000X0*%
%TD*%
%TA.AperFunction,SMDPad,CuDef*%
%ADD12R,0.650000X0.400000*%
%TD*%
%TA.AperFunction,SMDPad,CuDef*%
%ADD13RoundRect,0.200000X0.200000X0.275000X-0.200000X0.275000X-0.200000X-0.275000X0.200000X-0.275000X0*%
%TD*%
%TA.AperFunction,ComponentPad*%
%ADD14C,1.300000*%
%TD*%
%TA.AperFunction,ComponentPad*%
%ADD15R,1.700000X1.700000*%
%TD*%
%TA.AperFunction,ComponentPad*%
%ADD16C,1.700000*%
%TD*%
%TA.AperFunction,ComponentPad*%
%ADD17C,3.500000*%
%TD*%
%TA.AperFunction,ComponentPad*%
%ADD18C,1.500000*%
%TD*%
%TA.AperFunction,ComponentPad*%
%ADD19RoundRect,0.250000X1.550000X-0.650000X1.550000X0.650000X-1.550000X0.650000X-1.550000X-0.650000X0*%
%TD*%
%TA.AperFunction,ComponentPad*%
%ADD20O,3.600000X1.800000*%
%TD*%
%TA.AperFunction,ComponentPad*%
%ADD21RoundRect,0.250000X-1.550000X0.650000X-1.550000X-0.650000X1.550000X-0.650000X1.550000X0.650000X0*%
%TD*%
%TA.AperFunction,SMDPad,CuDef*%
%ADD22RoundRect,0.200000X-0.200000X-0.275000X0.200000X-0.275000X0.200000X0.275000X-0.200000X0.275000X0*%
%TD*%
%TA.AperFunction,SMDPad,CuDef*%
%ADD23RoundRect,0.225000X0.225000X0.250000X-0.225000X0.250000X-0.225000X-0.250000X0.225000X-0.250000X0*%
%TD*%
%TA.AperFunction,SMDPad,CuDef*%
%ADD24RoundRect,0.225000X0.250000X-0.225000X0.250000X0.225000X-0.250000X0.225000X-0.250000X-0.225000X0*%
%TD*%
%TA.AperFunction,ViaPad*%
%ADD25C,0.800000*%
%TD*%
%TA.AperFunction,Conductor*%
%ADD26C,0.400000*%
%TD*%
%TA.AperFunction,Conductor*%
%ADD27C,1.300000*%
%TD*%
G04 APERTURE END LIST*
D10*
%TO.P,D1,1,K*%
%TO.N,+5V*%
X-20200000Y-17450000D03*
%TO.P,D1,2,A*%
%TO.N,Net-(D1-A)*%
X-20200000Y-13950000D03*
%TD*%
D11*
%TO.P,D2,1,K*%
%TO.N,+5V*%
X-20300000Y-3550000D03*
%TO.P,D2,2,A*%
%TO.N,Net-(D2-A)*%
X-20300000Y-7050000D03*
%TD*%
D12*
%TO.P,Q1,1,E1*%
%TO.N,GND*%
X-23649999Y-11149999D03*
%TO.P,Q1,2,B1*%
%TO.N,Net-(Q1A-B1)*%
X-23649999Y-10499999D03*
%TO.P,Q1,3,C2*%
%TO.N,Net-(D2-A)*%
X-23649999Y-9849999D03*
%TO.P,Q1,4,E2*%
%TO.N,GND*%
X-21749999Y-9849999D03*
%TO.P,Q1,5,B2*%
%TO.N,Net-(Q1B-B2)*%
X-21749999Y-10499999D03*
%TO.P,Q1,6,C1*%
%TO.N,Net-(D1-A)*%
X-21749999Y-11149999D03*
%TD*%
D13*
%TO.P,R4,1*%
%TO.N,Net-(Q1A-B1)*%
X-25075000Y-10500000D03*
%TO.P,R4,2*%
%TO.N,/RELAY5*%
X-26725000Y-10500000D03*
%TD*%
D11*
%TO.P,D4,1,K*%
%TO.N,+5V*%
X-20600000Y17550000D03*
%TO.P,D4,2,A*%
%TO.N,Net-(D4-A)*%
X-20600000Y14050000D03*
%TD*%
D10*
%TO.P,D3,1,K*%
%TO.N,+5V*%
X-19800000Y3450000D03*
%TO.P,D3,2,A*%
%TO.N,Net-(D3-A)*%
X-19800000Y6950000D03*
%TD*%
D14*
%TO.P,K8,1,NC*%
%TO.N,Net-(J2-Pin_3)*%
X25310000Y-13210000D03*
%TO.P,K8,2,COIL_1*%
%TO.N,Net-(D14-A)*%
X22770000Y-13210000D03*
%TO.P,K8,5,COM_1*%
%TO.N,Net-(J2-Pin_2)*%
X15150000Y-13210000D03*
%TO.P,K8,6,COM_2*%
X15150000Y-18290000D03*
%TO.P,K8,9,COIL_2*%
%TO.N,+5V*%
X22770000Y-18290000D03*
%TO.P,K8,10,NO*%
%TO.N,Net-(J2-Pin_1)*%
X25310000Y-18290000D03*
%TD*%
%TO.P,K7,1,NC*%
%TO.N,Net-(J2-Pin_6)*%
X25310000Y-2710000D03*
%TO.P,K7,2,COIL_1*%
%TO.N,+5V*%
X22770000Y-2710000D03*
%TO.P,K7,5,COM_1*%
%TO.N,Net-(J2-Pin_5)*%
X15150000Y-2710000D03*
%TO.P,K7,6,COM_2*%
X15150000Y-7790000D03*
%TO.P,K7,9,COIL_2*%
%TO.N,Net-(D12-A)*%
X22770000Y-7790000D03*
%TO.P,K7,10,NO*%
%TO.N,Net-(J2-Pin_4)*%
X25310000Y-7790000D03*
%TD*%
%TO.P,K6,1,NC*%
%TO.N,Net-(J2-Pin_9)*%
X25310000Y7790000D03*
%TO.P,K6,2,COIL_1*%
%TO.N,Net-(D5-A)*%
X22770000Y7790000D03*
%TO.P,K6,5,COM_1*%
%TO.N,Net-(J2-Pin_8)*%
X15150000Y7790000D03*
%TO.P,K6,6,COM_2*%
X15150000Y2710000D03*
%TO.P,K6,9,COIL_2*%
%TO.N,+5V*%
X22770000Y2710000D03*
%TO.P,K6,10,NO*%
%TO.N,Net-(J2-Pin_7)*%
X25310000Y2710000D03*
%TD*%
%TO.P,K5,1,NC*%
%TO.N,Net-(J2-Pin_12)*%
X25310000Y18290000D03*
%TO.P,K5,2,COIL_1*%
%TO.N,+5V*%
X22770000Y18290000D03*
%TO.P,K5,5,COM_1*%
%TO.N,Net-(J2-Pin_11)*%
X15150000Y18290000D03*
%TO.P,K5,6,COM_2*%
X15150000Y13210000D03*
%TO.P,K5,9,COIL_2*%
%TO.N,Net-(D10-A)*%
X22770000Y13210000D03*
%TO.P,K5,10,NO*%
%TO.N,Net-(J2-Pin_10)*%
X25310000Y13210000D03*
%TD*%
%TO.P,K4,1,NC*%
%TO.N,Net-(J3-Pin_3)*%
X-25310000Y13210000D03*
%TO.P,K4,2,COIL_1*%
%TO.N,Net-(D4-A)*%
X-22770000Y13210000D03*
%TO.P,K4,5,COM_1*%
%TO.N,Net-(J3-Pin_2)*%
X-15150000Y13210000D03*
%TO.P,K4,6,COM_2*%
X-15150000Y18290000D03*
%TO.P,K4,9,COIL_2*%
%TO.N,+5V*%
X-22770000Y18290000D03*
%TO.P,K4,10,NO*%
%TO.N,Net-(J3-Pin_1)*%
X-25310000Y18290000D03*
%TD*%
%TO.P,K3,1,NC*%
%TO.N,Net-(J3-Pin_6)*%
X-25310000Y2710000D03*
%TO.P,K3,2,COIL_1*%
%TO.N,+5V*%
X-22770000Y2710000D03*
%TO.P,K3,5,COM_1*%
%TO.N,Net-(J3-Pin_5)*%
X-15150000Y2710000D03*
%TO.P,K3,6,COM_2*%
X-15150000Y7790000D03*
%TO.P,K3,9,COIL_2*%
%TO.N,Net-(D3-A)*%
X-22770000Y7790000D03*
%TO.P,K3,10,NO*%
%TO.N,Net-(J3-Pin_4)*%
X-25310000Y7790000D03*
%TD*%
%TO.P,K2,1,NC*%
%TO.N,Net-(J3-Pin_9)*%
X-25310000Y-7790000D03*
%TO.P,K2,2,COIL_1*%
%TO.N,Net-(D2-A)*%
X-22770000Y-7790000D03*
%TO.P,K2,5,COM_1*%
%TO.N,Net-(J3-Pin_8)*%
X-15150000Y-7790000D03*
%TO.P,K2,6,COM_2*%
X-15150000Y-2710000D03*
%TO.P,K2,9,COIL_2*%
%TO.N,+5V*%
X-22770000Y-2710000D03*
%TO.P,K2,10,NO*%
%TO.N,Net-(J3-Pin_7)*%
X-25310000Y-2710000D03*
%TD*%
%TO.P,K1,1,NC*%
%TO.N,Net-(J3-Pin_12)*%
X-25310000Y-18290000D03*
%TO.P,K1,2,COIL_1*%
%TO.N,+5V*%
X-22770000Y-18290000D03*
%TO.P,K1,5,COM_1*%
%TO.N,Net-(J3-Pin_11)*%
X-15150000Y-18290000D03*
%TO.P,K1,6,COM_2*%
X-15150000Y-13210000D03*
%TO.P,K1,9,COIL_2*%
%TO.N,Net-(D1-A)*%
X-22770000Y-13210000D03*
%TO.P,K1,10,NO*%
%TO.N,Net-(J3-Pin_10)*%
X-25310000Y-13210000D03*
%TD*%
D10*
%TO.P,D14,1,K*%
%TO.N,+5V*%
X20200000Y-17550000D03*
%TO.P,D14,2,A*%
%TO.N,Net-(D14-A)*%
X20200000Y-14050000D03*
%TD*%
D11*
%TO.P,D12,1,K*%
%TO.N,+5V*%
X20200000Y-3450000D03*
%TO.P,D12,2,A*%
%TO.N,Net-(D12-A)*%
X20200000Y-6950000D03*
%TD*%
%TO.P,D10,1,K*%
%TO.N,+5V*%
X20400000Y17550000D03*
%TO.P,D10,2,A*%
%TO.N,Net-(D10-A)*%
X20400000Y14050000D03*
%TD*%
D10*
%TO.P,D5,1,K*%
%TO.N,+5V*%
X19910000Y3500000D03*
%TO.P,D5,2,A*%
%TO.N,Net-(D5-A)*%
X19910000Y7000000D03*
%TD*%
D15*
%TO.P,J1,1,VBUS*%
%TO.N,+5V*%
X-1249999Y24842499D03*
D16*
%TO.P,J1,2,D-*%
%TO.N,/D_N*%
X1250000Y24842500D03*
%TO.P,J1,3,D+*%
%TO.N,/D_P*%
X1250000Y26842500D03*
%TO.P,J1,4,GND*%
%TO.N,GND*%
X-1250000Y26842500D03*
D17*
%TO.P,J1,5,Shield*%
%TO.N,unconnected-(J1-Shield-Pad5)*%
X-6020000Y29552500D03*
X6020000Y29552500D03*
%TD*%
D18*
%TO.P,Y1,1,1*%
%TO.N,Net-(U1-XTOUT)*%
X8910000Y6230000D03*
%TO.P,Y1,2,2*%
%TO.N,Net-(U1-XTIN)*%
X8910000Y1350000D03*
%TD*%
D19*
%TO.P,J2,1,Pin_1*%
%TO.N,Net-(J2-Pin_1)*%
X32000000Y-19250000D03*
D20*
%TO.P,J2,2,Pin_2*%
%TO.N,Net-(J2-Pin_2)*%
X31999999Y-15749999D03*
%TO.P,J2,3,Pin_3*%
%TO.N,Net-(J2-Pin_3)*%
X31999999Y-12249999D03*
%TO.P,J2,4,Pin_4*%
%TO.N,Net-(J2-Pin_4)*%
X31999999Y-8749999D03*
%TO.P,J2,5,Pin_5*%
%TO.N,Net-(J2-Pin_5)*%
X31999999Y-5249999D03*
%TO.P,J2,6,Pin_6*%
%TO.N,Net-(J2-Pin_6)*%
X31999999Y-1749999D03*
%TO.P,J2,7,Pin_7*%
%TO.N,Net-(J2-Pin_7)*%
X31999999Y1749999D03*
%TO.P,J2,8,Pin_8*%
%TO.N,Net-(J2-Pin_8)*%
X31999999Y5249999D03*
%TO.P,J2,9,Pin_9*%
%TO.N,Net-(J2-Pin_9)*%
X31999999Y8749999D03*
%TO.P,J2,10,Pin_10*%
%TO.N,Net-(J2-Pin_10)*%
X31999999Y12249999D03*
%TO.P,J2,11,Pin_11*%
%TO.N,Net-(J2-Pin_11)*%
X31999999Y15749999D03*
%TO.P,J2,12,Pin_12*%
%TO.N,Net-(J2-Pin_12)*%
X31999999Y19249999D03*
%TD*%
D21*
%TO.P,J3,1,Pin_1*%
%TO.N,Net-(J3-Pin_1)*%
X-32000000Y19250000D03*
D20*
%TO.P,J3,2,Pin_2*%
%TO.N,Net-(J3-Pin_2)*%
X-31999999Y15749999D03*
%TO.P,J3,3,Pin_3*%
%TO.N,Net-(J3-Pin_3)*%
X-31999999Y12249999D03*
%TO.P,J3,4,Pin_4*%
%TO.N,Net-(J3-Pin_4)*%
X-31999999Y8749999D03*
%TO.P,J3,5,Pin_5*%
%TO.N,Net-(J3-Pin_5)*%
X-31999999Y5249999D03*
%TO.P,J3,6,Pin_6*%
%TO.N,Net-(J3-Pin_6)*%
X-31999999Y1749999D03*
%TO.P,J3,7,Pin_7*%
%TO.N,Net-(J3-Pin_7)*%
X-31999999Y-1749999D03*
%TO.P,J3,8,Pin_8*%
%TO.N,Net-(J3-Pin_8)*%
X-31999999Y-5249999D03*
%TO.P,J3,9,Pin_9*%
%TO.N,Net-(J3-Pin_9)*%
X-31999999Y-8749999D03*
%TO.P,J3,10,Pin_10*%
%TO.N,Net-(J3-Pin_10)*%
X-31999999Y-12249999D03*
%TO.P,J3,11,Pin_11*%
%TO.N,Net-(J3-Pin_11)*%
X-31999999Y-15749999D03*
%TO.P,J3,12,Pin_12*%
%TO.N,Net-(J3-Pin_12)*%
X-31999999Y-19249999D03*
%TD*%
D12*
%TO.P,Q2,1,E1*%
%TO.N,GND*%
X-23719999Y9849999D03*
%TO.P,Q2,2,B1*%
%TO.N,Net-(Q2A-B1)*%
X-23719999Y10499999D03*
%TO.P,Q2,3,C2*%
%TO.N,Net-(D4-A)*%
X-23719999Y11149999D03*
%TO.P,Q2,4,E2*%
%TO.N,GND*%
X-21819999Y11149999D03*
%TO.P,Q2,5,B2*%
%TO.N,Net-(Q2B-B2)*%
X-21819999Y10499999D03*
%TO.P,Q2,6,C1*%
%TO.N,Net-(D3-A)*%
X-21819999Y9849999D03*
%TD*%
%TO.P,Q3,1,E1*%
%TO.N,GND*%
X23729999Y11069999D03*
%TO.P,Q3,2,B1*%
%TO.N,Net-(Q3A-B1)*%
X23729999Y10419999D03*
%TO.P,Q3,3,C2*%
%TO.N,Net-(D5-A)*%
X23729999Y9769999D03*
%TO.P,Q3,4,E2*%
%TO.N,GND*%
X21829999Y9769999D03*
%TO.P,Q3,5,B2*%
%TO.N,Net-(Q3B-B2)*%
X21829999Y10419999D03*
%TO.P,Q3,6,C1*%
%TO.N,Net-(D10-A)*%
X21829999Y11069999D03*
%TD*%
D22*
%TO.P,R7,1*%
%TO.N,Net-(Q2B-B2)*%
X-20425000Y10500000D03*
%TO.P,R7,2*%
%TO.N,/RELAY6*%
X-18775000Y10500000D03*
%TD*%
D13*
%TO.P,R12,1*%
%TO.N,Net-(Q4B-B2)*%
X20225000Y-10770000D03*
%TO.P,R12,2*%
%TO.N,/RELAY2*%
X18575000Y-10770000D03*
%TD*%
D23*
%TO.P,C5,1*%
%TO.N,Net-(U1-XTIN)*%
X8775000Y-200000D03*
%TO.P,C5,2*%
%TO.N,GND*%
X7225000Y-200000D03*
%TD*%
%TO.P,C4,1*%
%TO.N,Net-(U1-XTOUT)*%
X8775000Y8200000D03*
%TO.P,C4,2*%
%TO.N,GND*%
X7225000Y8200000D03*
%TD*%
D13*
%TO.P,R2,1*%
%TO.N,/D_R_P*%
X4775000Y26842500D03*
%TO.P,R2,2*%
%TO.N,/D_P*%
X3125000Y26842500D03*
%TD*%
D24*
%TO.P,C1,1*%
%TO.N,+5V*%
X-3600000Y25225000D03*
%TO.P,C1,2*%
%TO.N,GND*%
X-3600000Y26775000D03*
%TD*%
D13*
%TO.P,R6,1*%
%TO.N,Net-(Q2A-B1)*%
X-25075000Y10500000D03*
%TO.P,R6,2*%
%TO.N,/RELAY7*%
X-26725000Y10500000D03*
%TD*%
%TO.P,R1,1*%
%TO.N,/D_R_N*%
X4775000Y24842500D03*
%TO.P,R1,2*%
%TO.N,/D_N*%
X3125000Y24842500D03*
%TD*%
D22*
%TO.P,R5,1*%
%TO.N,Net-(Q1B-B2)*%
X-20425000Y-10500000D03*
%TO.P,R5,2*%
%TO.N,/RELAY4*%
X-18775000Y-10500000D03*
%TD*%
%TO.P,R9,1*%
%TO.N,Net-(Q3A-B1)*%
X25175000Y10420000D03*
%TO.P,R9,2*%
%TO.N,/RELAY1*%
X26825000Y10420000D03*
%TD*%
%TO.P,R11,1*%
%TO.N,Net-(Q4A-B1)*%
X25175000Y-10770000D03*
%TO.P,R11,2*%
%TO.N,/RELAY3*%
X26825000Y-10770000D03*
%TD*%
D13*
%TO.P,R10,1*%
%TO.N,Net-(Q3B-B2)*%
X20425000Y10420000D03*
%TO.P,R10,2*%
%TO.N,/RELAY0*%
X18775000Y10420000D03*
%TD*%
D12*
%TO.P,Q4,1,E1*%
%TO.N,GND*%
X23759999Y-10119999D03*
%TO.P,Q4,2,B1*%
%TO.N,Net-(Q4A-B1)*%
X23759999Y-10769999D03*
%TO.P,Q4,3,C2*%
%TO.N,Net-(D14-A)*%
X23759999Y-11419999D03*
%TO.P,Q4,4,E2*%
%TO.N,GND*%
X21859999Y-11419999D03*
%TO.P,Q4,5,B2*%
%TO.N,Net-(Q4B-B2)*%
X21859999Y-10769999D03*
%TO.P,Q4,6,C1*%
%TO.N,Net-(D12-A)*%
X21859999Y-10119999D03*
%TD*%
D25*
%TO.N,GND*%
X10875000Y-6375000D03*
X-13000000Y2850000D03*
X-12075000Y-15850000D03*
X8900000Y10400000D03*
X2920000Y5380000D03*
%TO.N,+5V*%
X7400000Y-9400000D03*
%TO.N,GND*%
X-10500000Y-7800000D03*
X-5000000Y-9300000D03*
%TO.N,+5V*%
X-7055373Y-9224709D03*
X-8200000Y9000000D03*
X-8700000Y24800000D03*
%TO.N,GND*%
X-7500000Y6700000D03*
%TO.N,/RELAY0*%
X9400000Y-3200000D03*
%TO.N,/RELAY2*%
X3000000Y-5500000D03*
%TO.N,/RELAY4*%
X-100000Y-8200000D03*
%TO.N,/RELAY6*%
X-4200000Y-3100000D03*
%TO.N,/RELAY5*%
X-28500000Y-10500000D03*
%TO.N,GND*%
X13984668Y9515332D03*
X-3600000Y10400000D03*
%TO.N,/RELAY1*%
X28500000Y10400000D03*
%TO.N,/RELAY7*%
X-28700000Y10500000D03*
%TO.N,/RELAY3*%
X28300000Y-10800000D03*
%TO.N,+5V*%
X-200000Y7400000D03*
%TO.N,GND*%
X6800000Y5800000D03*
%TO.N,/D_R_N*%
X7600000Y25275000D03*
%TO.N,/D_R_P*%
X7600000Y26325000D03*
%TD*%
D26*
%TO.N,GND*%
X8900000Y10400000D02*
X5500000Y10400000D01*
X5500000Y10400000D02*
X2920000Y7820000D01*
X2920000Y7820000D02*
X2920000Y5380000D01*
%TO.N,Net-(D2-A)*%
X-23650000Y-9850000D02*
X-23650000Y-8670000D01*
X-23650000Y-8670000D02*
X-22770000Y-7790000D01*
%TO.N,Net-(Q4A-B1)*%
X23760000Y-10770000D02*
X25175000Y-10770000D01*
%TO.N,Net-(Q2B-B2)*%
X-20425000Y10500000D02*
X-21820000Y10500000D01*
%TO.N,unconnected-(J1-Shield-Pad5)*%
X-6020000Y29552500D02*
X6020000Y29552500D01*
%TO.N,+5V*%
X-22770000Y-18290000D02*
X-20200000Y-18290000D01*
X-20200000Y-18290000D02*
X-20200000Y-17450000D01*
X-11700000Y-20100000D02*
X-19500000Y-20100000D01*
X-19500000Y-20100000D02*
X-20200000Y-19400000D01*
X-20200000Y-19400000D02*
X-20200000Y-17450000D01*
%TO.N,Net-(D1-A)*%
X-22770000Y-13210000D02*
X-20940000Y-13210000D01*
X-20940000Y-13210000D02*
X-20200000Y-13950000D01*
%TO.N,Net-(D2-A)*%
X-22770000Y-7790000D02*
X-21040000Y-7790000D01*
X-21040000Y-7790000D02*
X-20300000Y-7050000D01*
%TO.N,+5V*%
X-22770000Y-2710000D02*
X-21140000Y-2710000D01*
X-21140000Y-2710000D02*
X-20300000Y-3550000D01*
X-11700000Y-20100000D02*
X-10200000Y-20100000D01*
X-10200000Y-12369336D02*
X-7055373Y-9224709D01*
X-10200000Y-20100000D02*
X-10200000Y-12369336D01*
X12400000Y-20100000D02*
X11100000Y-20100000D01*
X11100000Y-20100000D02*
X11000000Y-20000000D01*
X11000000Y-20000000D02*
X11000000Y-13000000D01*
X11000000Y-13000000D02*
X7400000Y-9400000D01*
X17650000Y-20100000D02*
X12400000Y-20100000D01*
X-11700000Y-20100000D02*
X12400000Y-20100000D01*
%TO.N,GND*%
X5869336Y-9300000D02*
X-5000000Y-9300000D01*
X7731164Y-8600500D02*
X6568836Y-8600500D01*
%TO.N,/RELAY2*%
X11265644Y-10770000D02*
X5995644Y-5500000D01*
X18575000Y-10770000D02*
X11265644Y-10770000D01*
%TO.N,+5V*%
X20200000Y-17550000D02*
X17650000Y-20100000D01*
%TO.N,GND*%
X13600000Y-11900000D02*
X11030664Y-11900000D01*
X11030664Y-11900000D02*
X7731164Y-8600500D01*
%TO.N,/RELAY2*%
X5995644Y-5500000D02*
X3000000Y-5500000D01*
%TO.N,GND*%
X6568836Y-8600500D02*
X5869336Y-9300000D01*
%TO.N,+5V*%
X-1250000Y20800000D02*
X-1250000Y13250000D01*
X-1250000Y24842500D02*
X-1250000Y20800000D01*
X20400000Y17550000D02*
X20400000Y18700000D01*
X20400000Y18700000D02*
X18300000Y20800000D01*
X18300000Y20800000D02*
X-1250000Y20800000D01*
%TO.N,/RELAY4*%
X-18775000Y-10500000D02*
X-9461328Y-10500000D01*
X-9461328Y-10500000D02*
X-7161328Y-8200000D01*
X-7161328Y-8200000D02*
X-100000Y-8200000D01*
%TO.N,GND*%
X21860000Y-11420000D02*
X21380000Y-11900000D01*
X21380000Y-11900000D02*
X13400000Y-11900000D01*
%TO.N,+5V*%
X-8400000Y8900000D02*
X-8300000Y8900000D01*
X-11500000Y400000D02*
X-11100000Y800000D01*
X-22770000Y-2710000D02*
X-22770000Y400000D01*
X-22770000Y400000D02*
X-11500000Y400000D01*
X-11100000Y800000D02*
X-11100000Y6200000D01*
X-22770000Y400000D02*
X-22770000Y2710000D01*
X-11100000Y6200000D02*
X-8400000Y8900000D01*
X-8300000Y8900000D02*
X-8200000Y9000000D01*
%TO.N,Net-(D4-A)*%
X-22770000Y13210000D02*
X-21440000Y13210000D01*
X-21440000Y13210000D02*
X-20600000Y14050000D01*
%TO.N,+5V*%
X-22770000Y18290000D02*
X-21340000Y18290000D01*
X-21340000Y18290000D02*
X-20600000Y17550000D01*
%TO.N,Net-(D3-A)*%
X-22770000Y7790000D02*
X-20640000Y7790000D01*
X-20640000Y7790000D02*
X-19800000Y6950000D01*
%TO.N,+5V*%
X-22770000Y2710000D02*
X-20540000Y2710000D01*
X-20540000Y2710000D02*
X-19800000Y3450000D01*
%TO.N,Net-(D4-A)*%
X-23720000Y11150000D02*
X-23720000Y12260000D01*
X-23720000Y12260000D02*
X-22770000Y13210000D01*
%TO.N,GND*%
X-21750000Y-9850000D02*
X-21100000Y-9200000D01*
X-21100000Y-9200000D02*
X-11900000Y-9200000D01*
X-11900000Y-9200000D02*
X-7500000Y-4800000D01*
X-7500000Y-4800000D02*
X-7500000Y6700000D01*
%TO.N,/RELAY0*%
X18775000Y10420000D02*
X18755000Y10400000D01*
X18755000Y10400000D02*
X13300000Y10400000D01*
X13300000Y10400000D02*
X12300000Y9400000D01*
X12300000Y9400000D02*
X12300000Y-1200000D01*
X10300000Y-3200000D02*
X9400000Y-3200000D01*
X12300000Y-1200000D02*
X10300000Y-3200000D01*
%TO.N,/RELAY6*%
X-18775000Y10500000D02*
X-8400000Y10500000D01*
X-8400000Y10500000D02*
X-6300000Y8400000D01*
X-5000000Y-3100000D02*
X-4200000Y-3100000D01*
X-6300000Y8400000D02*
X-6300000Y-1800000D01*
X-6300000Y-1800000D02*
X-5000000Y-3100000D01*
%TO.N,/RELAY5*%
X-26725000Y-10500000D02*
X-28500000Y-10500000D01*
%TO.N,Net-(Q1A-B1)*%
X-25075000Y-10500000D02*
X-23650000Y-10500000D01*
%TO.N,Net-(Q1B-B2)*%
X-20425000Y-10500000D02*
X-21750000Y-10500000D01*
%TO.N,/RELAY7*%
X-26725000Y10500000D02*
X-28700000Y10500000D01*
%TO.N,Net-(Q2A-B1)*%
X-23720000Y10500000D02*
X-25075000Y10500000D01*
%TO.N,GND*%
X20850332Y9515332D02*
X13984668Y9515332D01*
X21105000Y9770000D02*
X20850332Y9515332D01*
X21830000Y9770000D02*
X21105000Y9770000D01*
X21830000Y9770000D02*
X22470000Y9770000D01*
X22700000Y10000000D02*
X22700000Y10700000D01*
X22470000Y9770000D02*
X22700000Y10000000D01*
X22700000Y10700000D02*
X23070000Y11070000D01*
X23070000Y11070000D02*
X23730000Y11070000D01*
X-21820000Y11150000D02*
X-21820000Y11780000D01*
X-21820000Y11780000D02*
X-21500000Y12100000D01*
X-21500000Y12100000D02*
X-17700000Y12100000D01*
X-17200000Y11600000D02*
X-4800000Y11600000D01*
X-17700000Y12100000D02*
X-17200000Y11600000D01*
X-4800000Y11600000D02*
X-3600000Y10400000D01*
%TO.N,/RELAY1*%
X26825000Y10420000D02*
X28480000Y10420000D01*
X28480000Y10420000D02*
X28500000Y10400000D01*
%TO.N,/RELAY3*%
X26825000Y-10770000D02*
X28270000Y-10770000D01*
X28270000Y-10770000D02*
X28300000Y-10800000D01*
%TO.N,+5V*%
X22770000Y18290000D02*
X21140000Y18290000D01*
X21140000Y18290000D02*
X20400000Y17550000D01*
%TO.N,Net-(D10-A)*%
X22770000Y13210000D02*
X21240000Y13210000D01*
X21240000Y13210000D02*
X20400000Y14050000D01*
%TO.N,Net-(D12-A)*%
X22770000Y-7790000D02*
X21040000Y-7790000D01*
X21040000Y-7790000D02*
X20200000Y-6950000D01*
%TO.N,+5V*%
X22770000Y-2710000D02*
X20940000Y-2710000D01*
X20940000Y-2710000D02*
X20200000Y-3450000D01*
X22770000Y-18290000D02*
X20940000Y-18290000D01*
X20940000Y-18290000D02*
X20200000Y-17550000D01*
%TO.N,Net-(D14-A)*%
X22770000Y-13210000D02*
X21040000Y-13210000D01*
X21040000Y-13210000D02*
X20200000Y-14050000D01*
%TO.N,+5V*%
X22770000Y-2710000D02*
X22770000Y2710000D01*
%TO.N,Net-(D5-A)*%
X22770000Y7790000D02*
X20700000Y7790000D01*
X20700000Y7790000D02*
X19910000Y7000000D01*
%TO.N,+5V*%
X22770000Y2710000D02*
X20700000Y2710000D01*
X20700000Y2710000D02*
X19910000Y3500000D01*
X-1250000Y13250000D02*
X-175000Y12175000D01*
X-175000Y12175000D02*
X-175000Y7425000D01*
X-175000Y7425000D02*
X-200000Y7400000D01*
%TO.N,GND*%
X7225000Y8200000D02*
X7225000Y6225000D01*
X7225000Y6225000D02*
X6800000Y5800000D01*
X7225000Y-200000D02*
X7225000Y8200000D01*
%TO.N,Net-(U1-XTOUT)*%
X8775000Y8200000D02*
X8775000Y6365000D01*
X8775000Y6365000D02*
X8910000Y6230000D01*
%TO.N,Net-(U1-XTIN)*%
X8775000Y-200000D02*
X8775000Y1215000D01*
X8775000Y1215000D02*
X8910000Y1350000D01*
%TO.N,+5V*%
X-3600000Y25042500D02*
X-3400000Y24842500D01*
X-16217500Y24842500D02*
X-3400000Y24842500D01*
X-3600000Y25225000D02*
X-3600000Y25042500D01*
X-3400000Y24842500D02*
X-1250000Y24842500D01*
X-22770000Y18290000D02*
X-16217500Y24842500D01*
%TO.N,GND*%
X-3532500Y26842500D02*
X-3600000Y26775000D01*
X-22350000Y11150000D02*
X-21820000Y11150000D01*
X-23050000Y-11150000D02*
X-22800000Y-10900000D01*
X-22800000Y-10300000D02*
X-22350000Y-9850000D01*
X23180000Y-10120000D02*
X22800000Y-10500000D01*
X-1250000Y26842500D02*
X-3532500Y26842500D01*
X22800000Y-10500000D02*
X22800000Y-11000000D01*
X-22800000Y10700000D02*
X-22350000Y11150000D01*
X22380000Y-11420000D02*
X21860000Y-11420000D01*
X-22350000Y-9850000D02*
X-21750000Y-9850000D01*
X-23150000Y9850000D02*
X-22800000Y10200000D01*
X-23720000Y9850000D02*
X-23150000Y9850000D01*
X22800000Y-11000000D02*
X22380000Y-11420000D01*
X23760000Y-10120000D02*
X23180000Y-10120000D01*
X-22800000Y10200000D02*
X-22800000Y10700000D01*
X-23650000Y-11150000D02*
X-23050000Y-11150000D01*
X-22800000Y-10900000D02*
X-22800000Y-10300000D01*
D27*
%TO.N,Net-(J2-Pin_1)*%
X32000000Y-19250000D02*
X26270000Y-19250000D01*
X26270000Y-19250000D02*
X25310000Y-18290000D01*
%TO.N,Net-(J2-Pin_2)*%
X32000000Y-15750000D02*
X15410000Y-15750000D01*
X15150000Y-15490000D02*
X15150000Y-13210000D01*
X15150000Y-18290000D02*
X15150000Y-15490000D01*
X15410000Y-15750000D02*
X15150000Y-15490000D01*
%TO.N,Net-(J2-Pin_3)*%
X32000000Y-12250000D02*
X26270000Y-12250000D01*
X26270000Y-12250000D02*
X25310000Y-13210000D01*
%TO.N,Net-(J2-Pin_4)*%
X26270000Y-8750000D02*
X25310000Y-7790000D01*
X32000000Y-8750000D02*
X26270000Y-8750000D01*
%TO.N,Net-(J2-Pin_5)*%
X32000000Y-5250000D02*
X15350000Y-5250000D01*
X15150000Y-7790000D02*
X15150000Y-5450000D01*
X15350000Y-5250000D02*
X15150000Y-5450000D01*
X15150000Y-5450000D02*
X15150000Y-2710000D01*
%TO.N,Net-(J2-Pin_6)*%
X32000000Y-1750000D02*
X26270000Y-1750000D01*
X26270000Y-1750000D02*
X25310000Y-2710000D01*
%TO.N,Net-(J2-Pin_7)*%
X26270000Y1750000D02*
X25310000Y2710000D01*
X32000000Y1750000D02*
X26270000Y1750000D01*
%TO.N,Net-(J2-Pin_8)*%
X15150000Y2710000D02*
X15150000Y5180000D01*
X32000000Y5250000D02*
X15220000Y5250000D01*
X15150000Y5180000D02*
X15150000Y7790000D01*
X15220000Y5250000D02*
X15150000Y5180000D01*
%TO.N,Net-(J2-Pin_9)*%
X32000000Y8750000D02*
X26270000Y8750000D01*
X26270000Y8750000D02*
X25310000Y7790000D01*
%TO.N,Net-(J2-Pin_10)*%
X32000000Y12250000D02*
X26270000Y12250000D01*
X26270000Y12250000D02*
X25310000Y13210000D01*
%TO.N,Net-(J2-Pin_11)*%
X15230000Y15750000D02*
X15150000Y15670000D01*
X15150000Y15670000D02*
X15150000Y18290000D01*
X32000000Y15750000D02*
X15230000Y15750000D01*
X15150000Y13210000D02*
X15150000Y15670000D01*
%TO.N,Net-(J2-Pin_12)*%
X32000000Y19250000D02*
X26270000Y19250000D01*
X26270000Y19250000D02*
X25310000Y18290000D01*
%TO.N,Net-(J3-Pin_1)*%
X-32000000Y19250000D02*
X-26270000Y19250000D01*
X-26270000Y19250000D02*
X-25310000Y18290000D01*
%TO.N,Net-(J3-Pin_2)*%
X-15290000Y15750000D02*
X-15150000Y15610000D01*
X-15150000Y15610000D02*
X-15150000Y18290000D01*
X-15150000Y13210000D02*
X-15150000Y15610000D01*
X-32000000Y15750000D02*
X-15290000Y15750000D01*
%TO.N,Net-(J3-Pin_3)*%
X-32000000Y12250000D02*
X-26270000Y12250000D01*
X-26270000Y12250000D02*
X-25310000Y13210000D01*
%TO.N,Net-(J3-Pin_4)*%
X-32000000Y8750000D02*
X-26270000Y8750000D01*
X-26270000Y8750000D02*
X-25310000Y7790000D01*
%TO.N,Net-(J3-Pin_5)*%
X-15410000Y5250000D02*
X-15150000Y4990000D01*
X-15150000Y4990000D02*
X-15150000Y7790000D01*
X-32000000Y5250000D02*
X-15410000Y5250000D01*
X-15150000Y2710000D02*
X-15150000Y4990000D01*
%TO.N,Net-(J3-Pin_6)*%
X-32000000Y1750000D02*
X-26270000Y1750000D01*
X-26270000Y1750000D02*
X-25310000Y2710000D01*
%TO.N,Net-(J3-Pin_7)*%
X-32000000Y-1750000D02*
X-26270000Y-1750000D01*
X-26270000Y-1750000D02*
X-25310000Y-2710000D01*
%TO.N,Net-(J3-Pin_8)*%
X-15150000Y-7790000D02*
X-15150000Y-5340000D01*
X-15150000Y-5340000D02*
X-15150000Y-2710000D01*
X-15240000Y-5250000D02*
X-15150000Y-5340000D01*
X-32000000Y-5250000D02*
X-15240000Y-5250000D01*
%TO.N,Net-(J3-Pin_9)*%
X-32000000Y-8750000D02*
X-26270000Y-8750000D01*
X-26270000Y-8750000D02*
X-25310000Y-7790000D01*
%TO.N,Net-(J3-Pin_10)*%
X-32000000Y-12250000D02*
X-26270000Y-12250000D01*
X-26270000Y-12250000D02*
X-25310000Y-13210000D01*
%TO.N,Net-(J3-Pin_11)*%
X-15150000Y-15850000D02*
X-15150000Y-13210000D01*
X-15150000Y-18290000D02*
X-15150000Y-15850000D01*
X-32000000Y-15750000D02*
X-15250000Y-15750000D01*
X-15250000Y-15750000D02*
X-15150000Y-15850000D01*
%TO.N,Net-(J3-Pin_12)*%
X-26270000Y-19250000D02*
X-25310000Y-18290000D01*
X-32000000Y-19250000D02*
X-26270000Y-19250000D01*
D26*
%TO.N,Net-(D1-A)*%
X-21750000Y-11150000D02*
X-21750000Y-12190000D01*
X-21750000Y-12190000D02*
X-22770000Y-13210000D01*
%TO.N,Net-(D3-A)*%
X-21820000Y8740000D02*
X-22770000Y7790000D01*
X-21820000Y9850000D02*
X-21820000Y8740000D01*
%TO.N,Net-(D10-A)*%
X21830000Y12270000D02*
X22770000Y13210000D01*
X21830000Y11070000D02*
X21830000Y12270000D01*
%TO.N,Net-(D5-A)*%
X23730000Y9770000D02*
X23730000Y8750000D01*
X23730000Y8750000D02*
X22770000Y7790000D01*
%TO.N,Net-(D12-A)*%
X21860000Y-8700000D02*
X22770000Y-7790000D01*
X21860000Y-10120000D02*
X21860000Y-8700000D01*
%TO.N,Net-(D14-A)*%
X23760000Y-12220000D02*
X22770000Y-13210000D01*
X23760000Y-11420000D02*
X23760000Y-12220000D01*
%TO.N,Net-(Q3A-B1)*%
X25175000Y10420000D02*
X23730000Y10420000D01*
%TO.N,Net-(Q3B-B2)*%
X21830000Y10420000D02*
X20425000Y10420000D01*
%TO.N,Net-(Q4B-B2)*%
X21860000Y-10770000D02*
X20225000Y-10770000D01*
%TO.N,/D_N*%
X3125000Y24842500D02*
X1250000Y24842500D01*
%TO.N,/D_P*%
X3125000Y26842500D02*
X1250000Y26842500D01*
%TO.N,/D_R_N*%
X7167500Y24842500D02*
X7600000Y25275000D01*
X4775000Y24842500D02*
X7167500Y24842500D01*
%TO.N,/D_R_P*%
X4775000Y26842500D02*
X7082500Y26842500D01*
X7082500Y26842500D02*
X7600000Y26325000D01*
%TD*%
%TA.AperFunction,Conductor*%
%TO.N,GND*%
G36*
X8443421Y-8938434D02*
G01*
X10752695Y-11247707D01*
X10757815Y-11253145D01*
X10797715Y-11298183D01*
X10840254Y-11327545D01*
X10847221Y-11332354D01*
X10853250Y-11336790D01*
X10900587Y-11373877D01*
X10909822Y-11378033D01*
X10929370Y-11389058D01*
X10937714Y-11394818D01*
X10993966Y-11416151D01*
X11000872Y-11419012D01*
X11055712Y-11443694D01*
X11065674Y-11445519D01*
X11087294Y-11451546D01*
X11096769Y-11455139D01*
X11096772Y-11455140D01*
X11156500Y-11462392D01*
X11163845Y-11463509D01*
X11223038Y-11474357D01*
X11283065Y-11470726D01*
X11290553Y-11470500D01*
X17758480Y-11470500D01*
X17805933Y-11479939D01*
X17846161Y-11506819D01*
X17939813Y-11600471D01*
X17947027Y-11604832D01*
X18085394Y-11688478D01*
X18247804Y-11739086D01*
X18294857Y-11743362D01*
X18318383Y-11745500D01*
X18318384Y-11745500D01*
X18831616Y-11745500D01*
X18831617Y-11745500D01*
X18849260Y-11743896D01*
X18902196Y-11739086D01*
X19064606Y-11688478D01*
X19210185Y-11600472D01*
X19247618Y-11563039D01*
X19312319Y-11498339D01*
X19367906Y-11466245D01*
X19432094Y-11466245D01*
X19487681Y-11498339D01*
X19589813Y-11600471D01*
X19597027Y-11604832D01*
X19735394Y-11688478D01*
X19897804Y-11739086D01*
X19944857Y-11743362D01*
X19968383Y-11745500D01*
X19968384Y-11745500D01*
X20481616Y-11745500D01*
X20481617Y-11745500D01*
X20499260Y-11743896D01*
X20552196Y-11739086D01*
X20714606Y-11688478D01*
X20850908Y-11606080D01*
X20909863Y-11588307D01*
X20970102Y-11601086D01*
X21016765Y-11641268D01*
X21038344Y-11698942D01*
X21041400Y-11727371D01*
X21091647Y-11862089D01*
X21177811Y-11977188D01*
X21292910Y-12063352D01*
X21427624Y-12113597D01*
X21487176Y-12120000D01*
X21660000Y-12120000D01*
X21660000Y-11594500D01*
X21676613Y-11532500D01*
X21722000Y-11487113D01*
X21784000Y-11470500D01*
X21917633Y-11470500D01*
X21917641Y-11470499D01*
X21936000Y-11470499D01*
X21998000Y-11487112D01*
X22043387Y-11532499D01*
X22060000Y-11594499D01*
X22060000Y-12120000D01*
X22062560Y-12122560D01*
X22095134Y-12179996D01*
X22093609Y-12246008D01*
X22058418Y-12301877D01*
X22031155Y-12326731D01*
X21916128Y-12431592D01*
X21894504Y-12460228D01*
X21850821Y-12496500D01*
X21795550Y-12509500D01*
X21064910Y-12509500D01*
X21057423Y-12509274D01*
X20997391Y-12505642D01*
X20938242Y-12516481D01*
X20930843Y-12517608D01*
X20871122Y-12524860D01*
X20861641Y-12528456D01*
X20840036Y-12534479D01*
X20830069Y-12536305D01*
X20775234Y-12560984D01*
X20768318Y-12563848D01*
X20712069Y-12585181D01*
X20703725Y-12590941D01*
X20684183Y-12601963D01*
X20674944Y-12606121D01*
X20627594Y-12643216D01*
X20621566Y-12647652D01*
X20572067Y-12681819D01*
X20532183Y-12726838D01*
X20527051Y-12732290D01*
X20396160Y-12863181D01*
X20355932Y-12890061D01*
X20308479Y-12899500D01*
X19549991Y-12899500D01*
X19447203Y-12910000D01*
X19280665Y-12965186D01*
X19131342Y-13057288D01*
X19007288Y-13181342D01*
X18915186Y-13330665D01*
X18860000Y-13497202D01*
X18850133Y-13593794D01*
X18849500Y-13599991D01*
X18849500Y-14044352D01*
X18849501Y-14475500D01*
X18832888Y-14537500D01*
X18787501Y-14582887D01*
X18725501Y-14599500D01*
X16424500Y-14599500D01*
X16362500Y-14582887D01*
X16317113Y-14537500D01*
X16300500Y-14475500D01*
X16300500Y-13268926D01*
X16301029Y-13257485D01*
X16303514Y-13230665D01*
X16305429Y-13210000D01*
X16296995Y-13118986D01*
X16291455Y-13059201D01*
X16285756Y-12997690D01*
X16260806Y-12910001D01*
X16227405Y-12792611D01*
X16218175Y-12774074D01*
X16132368Y-12601747D01*
X16003873Y-12431594D01*
X15846301Y-12287947D01*
X15734802Y-12218909D01*
X15665019Y-12175702D01*
X15665017Y-12175701D01*
X15466198Y-12098679D01*
X15460602Y-12097633D01*
X15256610Y-12059500D01*
X15043390Y-12059500D01*
X14903664Y-12085619D01*
X14833801Y-12098679D01*
X14634982Y-12175701D01*
X14453698Y-12287947D01*
X14296126Y-12431594D01*
X14167631Y-12601747D01*
X14072595Y-12792609D01*
X14014243Y-12997690D01*
X14003005Y-13118985D01*
X14003005Y-13118986D01*
X13994571Y-13210000D01*
X13998971Y-13257485D01*
X13999500Y-13268926D01*
X13999500Y-15460546D01*
X13999368Y-15466272D01*
X13995804Y-15543364D01*
X13998311Y-15561335D01*
X13999500Y-15578465D01*
X13999500Y-18231074D01*
X13998971Y-18242515D01*
X13994571Y-18289999D01*
X13999500Y-18343194D01*
X14014243Y-18502310D01*
X14072595Y-18707390D01*
X14167631Y-18898252D01*
X14296128Y-19068408D01*
X14422776Y-19183863D01*
X14455673Y-19232851D01*
X14462202Y-19291496D01*
X14440886Y-19346519D01*
X14396551Y-19385460D01*
X14339238Y-19399500D01*
X12442372Y-19399500D01*
X11824500Y-19399500D01*
X11762500Y-19382887D01*
X11717113Y-19337500D01*
X11700500Y-19275500D01*
X11700500Y-13024921D01*
X11700726Y-13017434D01*
X11701920Y-12997689D01*
X11704358Y-12957394D01*
X11693507Y-12898185D01*
X11692390Y-12890841D01*
X11685140Y-12831128D01*
X11681547Y-12821656D01*
X11675522Y-12800044D01*
X11673695Y-12790069D01*
X11649009Y-12735220D01*
X11646152Y-12728326D01*
X11624818Y-12672070D01*
X11624816Y-12672068D01*
X11624816Y-12672066D01*
X11619062Y-12663731D01*
X11608033Y-12644177D01*
X11603878Y-12634944D01*
X11566780Y-12587591D01*
X11562352Y-12581573D01*
X11549203Y-12562524D01*
X11537883Y-12546123D01*
X11528184Y-12532072D01*
X11528183Y-12532071D01*
X11483153Y-12492178D01*
X11477715Y-12487058D01*
X8326503Y-9335846D01*
X8302263Y-9301548D01*
X8290864Y-9261130D01*
X8285674Y-9211744D01*
X8237808Y-9064431D01*
X8234726Y-8999065D01*
X8265348Y-8941231D01*
X8321145Y-8907039D01*
X8386577Y-8906011D01*
X8443421Y-8938434D01*
G37*
%TD.AperFunction*%
%TA.AperFunction,Conductor*%
G36*
X-9328335Y24135931D02*
G01*
X-9293768Y24118318D01*
X-9152730Y24015848D01*
X-8979802Y23938855D01*
X-8794648Y23899500D01*
X-8794646Y23899500D01*
X-8605354Y23899500D01*
X-8605352Y23899500D01*
X-8420197Y23938855D01*
X-8247269Y24015848D01*
X-8106232Y24118318D01*
X-8071665Y24135931D01*
X-8033347Y24142000D01*
X-3474927Y24142000D01*
X-3452576Y24139969D01*
X-3442606Y24138142D01*
X-3382566Y24141774D01*
X-3375079Y24142000D01*
X-3357628Y24142000D01*
X-2724499Y24142000D01*
X-2662499Y24125387D01*
X-2617112Y24080000D01*
X-2600499Y24018000D01*
X-2600499Y23944628D01*
X-2594091Y23885017D01*
X-2543796Y23750169D01*
X-2457546Y23634954D01*
X-2342331Y23548704D01*
X-2207483Y23498409D01*
X-2147873Y23492000D01*
X-2074500Y23492000D01*
X-2012500Y23475387D01*
X-1967113Y23430000D01*
X-1950500Y23368000D01*
X-1950500Y13274921D01*
X-1950726Y13267434D01*
X-1954358Y13207394D01*
X-1943507Y13148185D01*
X-1942390Y13140840D01*
X-1935140Y13081128D01*
X-1931547Y13071655D01*
X-1925521Y13050035D01*
X-1923695Y13040068D01*
X-1906021Y13000800D01*
X-1899009Y12985218D01*
X-1896151Y12978322D01*
X-1874818Y12922070D01*
X-1869061Y12913730D01*
X-1858035Y12894181D01*
X-1853877Y12884941D01*
X-1816785Y12837597D01*
X-1812355Y12831577D01*
X-1778183Y12782071D01*
X-1733153Y12742178D01*
X-1727715Y12737058D01*
X-1303263Y12312606D01*
X-911819Y11921163D01*
X-884939Y11880935D01*
X-875500Y11833482D01*
X-875500Y8043157D01*
X-883736Y7998719D01*
X-907350Y7960185D01*
X-923083Y7942711D01*
X-932533Y7932216D01*
X-1027179Y7768284D01*
X-1085674Y7588256D01*
X-1105460Y7400000D01*
X-1085674Y7211744D01*
X-1071098Y7166884D01*
X-1027179Y7031715D01*
X-932533Y6867783D01*
X-805870Y6727110D01*
X-652730Y6615848D01*
X-479802Y6538855D01*
X-294648Y6499500D01*
X-294646Y6499500D01*
X-105354Y6499500D01*
X-105352Y6499500D01*
X79802Y6538855D01*
X252730Y6615848D01*
X405870Y6727110D01*
X532533Y6867783D01*
X627179Y7031715D01*
X671098Y7166884D01*
X685674Y7211744D01*
X705460Y7400000D01*
X685674Y7588256D01*
X627179Y7768284D01*
X614390Y7790435D01*
X542113Y7915624D01*
X525500Y7977624D01*
X525500Y12150079D01*
X525726Y12157566D01*
X525927Y12160897D01*
X529358Y12217606D01*
X518513Y12276781D01*
X517387Y12284183D01*
X516930Y12287948D01*
X510140Y12343872D01*
X506549Y12353339D01*
X500522Y12374956D01*
X498695Y12384931D01*
X473994Y12439811D01*
X471152Y12446674D01*
X449818Y12502930D01*
X444061Y12511268D01*
X433037Y12530814D01*
X428878Y12540056D01*
X412481Y12560984D01*
X391790Y12587394D01*
X387361Y12593410D01*
X353183Y12642929D01*
X308142Y12682829D01*
X302723Y12687931D01*
X-513181Y13503838D01*
X-540061Y13544066D01*
X-549500Y13591519D01*
X-549500Y19975500D01*
X-532887Y20037500D01*
X-487500Y20082887D01*
X-425500Y20099500D01*
X17958481Y20099500D01*
X18005934Y20090061D01*
X18046162Y20063181D01*
X19365978Y18743364D01*
X19395424Y18696394D01*
X19401458Y18641287D01*
X19382877Y18589057D01*
X19343393Y18550144D01*
X19331342Y18542711D01*
X19207288Y18418657D01*
X19115186Y18269334D01*
X19060000Y18102797D01*
X19049500Y18000009D01*
X19049500Y17099990D01*
X19055925Y17037101D01*
X19043911Y16969925D01*
X18998174Y16919278D01*
X18932567Y16900500D01*
X16424500Y16900500D01*
X16362500Y16917113D01*
X16317113Y16962500D01*
X16300500Y17024500D01*
X16300500Y18231074D01*
X16301029Y18242515D01*
X16305429Y18290000D01*
X16296995Y18381014D01*
X16296995Y18381015D01*
X16285756Y18502309D01*
X16285756Y18502310D01*
X16227405Y18707389D01*
X16172237Y18818183D01*
X16132368Y18898252D01*
X16116246Y18919601D01*
X16003872Y19068407D01*
X15846302Y19212052D01*
X15665019Y19324298D01*
X15466198Y19401321D01*
X15256610Y19440500D01*
X15043390Y19440500D01*
X14833802Y19401321D01*
X14634981Y19324298D01*
X14455145Y19212948D01*
X14453698Y19212052D01*
X14296126Y19068405D01*
X14167631Y18898252D01*
X14072595Y18707390D01*
X14014243Y18502309D01*
X14003005Y18381015D01*
X14003005Y18381014D01*
X13994571Y18290000D01*
X13998971Y18242515D01*
X13999500Y18231074D01*
X13999500Y15758465D01*
X13998311Y15741335D01*
X13995804Y15723364D01*
X13999368Y15646272D01*
X13999500Y15640546D01*
X13999500Y13268926D01*
X13998971Y13257485D01*
X13994571Y13210000D01*
X13999500Y13156806D01*
X14014243Y12997689D01*
X14072595Y12792609D01*
X14167631Y12601747D01*
X14296126Y12431594D01*
X14453698Y12287947D01*
X14634982Y12175701D01*
X14833801Y12098679D01*
X14903664Y12085619D01*
X15043390Y12059500D01*
X15256608Y12059500D01*
X15256610Y12059500D01*
X15466198Y12098679D01*
X15608563Y12153831D01*
X15665017Y12175701D01*
X15846301Y12287947D01*
X16003873Y12431594D01*
X16132368Y12601747D01*
X16227404Y12792609D01*
X16238489Y12831565D01*
X16280238Y12978297D01*
X16285756Y12997689D01*
X16300500Y13156806D01*
X16301004Y13162250D01*
X16305429Y13210000D01*
X16301028Y13257485D01*
X16300500Y13268926D01*
X16300500Y14475500D01*
X16317113Y14537500D01*
X16362500Y14582887D01*
X16424500Y14599500D01*
X18925500Y14599500D01*
X18987500Y14582887D01*
X19032887Y14537500D01*
X19049500Y14475500D01*
X19049500Y13599991D01*
X19060000Y13497203D01*
X19115186Y13330665D01*
X19207288Y13181342D01*
X19331342Y13057288D01*
X19480665Y12965186D01*
X19647202Y12910000D01*
X19749991Y12899500D01*
X20508480Y12899500D01*
X20555933Y12890061D01*
X20596158Y12863183D01*
X20666731Y12792611D01*
X20727052Y12732290D01*
X20732183Y12726838D01*
X20772067Y12681819D01*
X20821566Y12647652D01*
X20827594Y12643216D01*
X20874944Y12606121D01*
X20884183Y12601963D01*
X20903725Y12590941D01*
X20912069Y12585181D01*
X20968318Y12563848D01*
X20975234Y12560984D01*
X21030069Y12536305D01*
X21039125Y12534646D01*
X21095195Y12508726D01*
X21131803Y12458970D01*
X21139863Y12397726D01*
X21137609Y12379169D01*
X21136483Y12371771D01*
X21125641Y12312607D01*
X21129274Y12252566D01*
X21129500Y12245079D01*
X21129500Y11644835D01*
X21123154Y11605676D01*
X21104767Y11570525D01*
X21061205Y11512333D01*
X21061204Y11512331D01*
X21059688Y11508266D01*
X21028864Y11425623D01*
X20993369Y11374799D01*
X20937707Y11347509D01*
X20875794Y11350571D01*
X20752196Y11389086D01*
X20688030Y11394917D01*
X20681617Y11395500D01*
X20681616Y11395500D01*
X20168384Y11395500D01*
X20168383Y11395500D01*
X20155850Y11394361D01*
X20097804Y11389086D01*
X19935394Y11338478D01*
X19822118Y11270000D01*
X19789813Y11250471D01*
X19687681Y11148339D01*
X19632094Y11116245D01*
X19567906Y11116245D01*
X19512319Y11148339D01*
X19410186Y11250471D01*
X19410185Y11250471D01*
X19410185Y11250472D01*
X19264606Y11338478D01*
X19102196Y11389086D01*
X19044150Y11394361D01*
X19031617Y11395500D01*
X19031616Y11395500D01*
X18518384Y11395500D01*
X18518383Y11395500D01*
X18505850Y11394361D01*
X18447804Y11389086D01*
X18285394Y11338478D01*
X18172118Y11270000D01*
X18139813Y11250471D01*
X18026161Y11136819D01*
X17985933Y11109939D01*
X17938480Y11100500D01*
X13324921Y11100500D01*
X13317434Y11100726D01*
X13314102Y11100927D01*
X13257394Y11104358D01*
X13198185Y11093507D01*
X13190841Y11092390D01*
X13131128Y11085140D01*
X13121657Y11081548D01*
X13100044Y11075522D01*
X13090069Y11073695D01*
X13090065Y11073693D01*
X13035220Y11049009D01*
X13028326Y11046152D01*
X12972070Y11024818D01*
X12963719Y11019053D01*
X12944183Y11008036D01*
X12934944Y11003878D01*
X12901550Y10977715D01*
X12887608Y10966792D01*
X12881580Y10962356D01*
X12832071Y10928183D01*
X12792171Y10883145D01*
X12787051Y10877707D01*
X11822283Y9912940D01*
X11816847Y9907822D01*
X11771817Y9867929D01*
X11771816Y9867928D01*
X11759728Y9850415D01*
X11742538Y9825511D01*
X11737654Y9818436D01*
X11733216Y9812405D01*
X11696120Y9765054D01*
X11691961Y9755813D01*
X11680941Y9736273D01*
X11675182Y9727930D01*
X11675181Y9727927D01*
X11675180Y9727926D01*
X11653856Y9671701D01*
X11650991Y9664783D01*
X11626303Y9609929D01*
X11624475Y9599952D01*
X11618450Y9578339D01*
X11614860Y9568873D01*
X11607610Y9509172D01*
X11606483Y9501771D01*
X11595641Y9442607D01*
X11599274Y9382566D01*
X11599500Y9375079D01*
X11599500Y9299862D01*
X11585985Y9243567D01*
X11548385Y9199544D01*
X11494898Y9177389D01*
X11437182Y9181931D01*
X11387819Y9212181D01*
X11149086Y9450914D01*
X10900000Y9700000D01*
X6600000Y9700000D01*
X5500000Y8600000D01*
X5500000Y8500000D01*
X5500000Y5600000D01*
X5500000Y-1300000D01*
X6600000Y-2400000D01*
X8630072Y-2400000D01*
X8685207Y-2412932D01*
X8728842Y-2449030D01*
X8751876Y-2500765D01*
X8749504Y-2557346D01*
X8722222Y-2606972D01*
X8667466Y-2667783D01*
X8572820Y-2831715D01*
X8514326Y-3011742D01*
X8494540Y-3200000D01*
X8514326Y-3388257D01*
X8572820Y-3568284D01*
X8667466Y-3732216D01*
X8794129Y-3872889D01*
X8947269Y-3984151D01*
X9120197Y-4061144D01*
X9305352Y-4100500D01*
X9305354Y-4100500D01*
X9494646Y-4100500D01*
X9494648Y-4100500D01*
X9618083Y-4074262D01*
X9679803Y-4061144D01*
X9852730Y-3984151D01*
X9935271Y-3924181D01*
X9969838Y-3906569D01*
X10008156Y-3900500D01*
X10275079Y-3900500D01*
X10282566Y-3900726D01*
X10285706Y-3900915D01*
X10342606Y-3904358D01*
X10401782Y-3893513D01*
X10409181Y-3892387D01*
X10468872Y-3885140D01*
X10478335Y-3881550D01*
X10499958Y-3875522D01*
X10509932Y-3873695D01*
X10564808Y-3848996D01*
X10571673Y-3846152D01*
X10627930Y-3824818D01*
X10636270Y-3819060D01*
X10655819Y-3808035D01*
X10665057Y-3803878D01*
X10712413Y-3766775D01*
X10718420Y-3762355D01*
X10767929Y-3728183D01*
X10807823Y-3683150D01*
X10812924Y-3677731D01*
X12777731Y-1712924D01*
X12783150Y-1707823D01*
X12828183Y-1667929D01*
X12862351Y-1618426D01*
X12866763Y-1612428D01*
X12903878Y-1565057D01*
X12908034Y-1555820D01*
X12919062Y-1536267D01*
X12924818Y-1527930D01*
X12946153Y-1471671D01*
X12948997Y-1464803D01*
X12973694Y-1409932D01*
X12975519Y-1399970D01*
X12981545Y-1378348D01*
X12985140Y-1368872D01*
X12992389Y-1309165D01*
X12993516Y-1301762D01*
X12993839Y-1300000D01*
X13004357Y-1242606D01*
X13000726Y-1182577D01*
X13000500Y-1175090D01*
X13000500Y9058481D01*
X13009939Y9105934D01*
X13036819Y9146162D01*
X13553837Y9663181D01*
X13594065Y9690061D01*
X13641518Y9699500D01*
X17978481Y9699500D01*
X18025934Y9690061D01*
X18066159Y9663183D01*
X18087189Y9642154D01*
X18139815Y9589527D01*
X18251309Y9522127D01*
X18285394Y9501522D01*
X18317284Y9491585D01*
X18447806Y9450913D01*
X18518383Y9444500D01*
X18518384Y9444500D01*
X19031616Y9444500D01*
X19031617Y9444500D01*
X19102193Y9450913D01*
X19116241Y9455290D01*
X19264606Y9501522D01*
X19332597Y9542624D01*
X19410186Y9589528D01*
X19512319Y9691661D01*
X19567906Y9723755D01*
X19632094Y9723755D01*
X19687681Y9691661D01*
X19789813Y9589528D01*
X19901309Y9522127D01*
X19935394Y9501522D01*
X19967284Y9491585D01*
X20097806Y9450913D01*
X20168383Y9444500D01*
X20168384Y9444500D01*
X20681616Y9444500D01*
X20681617Y9444500D01*
X20752193Y9450913D01*
X20762187Y9454027D01*
X20876272Y9489577D01*
X20938186Y9492639D01*
X20993847Y9465349D01*
X21029342Y9414525D01*
X21061647Y9327911D01*
X21147811Y9212811D01*
X21262910Y9126647D01*
X21397624Y9076402D01*
X21457176Y9070000D01*
X21630000Y9070000D01*
X21630000Y9595500D01*
X21646613Y9657500D01*
X21692000Y9702887D01*
X21754000Y9719500D01*
X21906000Y9719500D01*
X21968000Y9702887D01*
X22013387Y9657500D01*
X22030000Y9595500D01*
X22030000Y9070000D01*
X22202829Y9070000D01*
X22218916Y9071729D01*
X22277328Y9063923D01*
X22325540Y9030032D01*
X22352662Y8977712D01*
X22352568Y8918780D01*
X22325279Y8866548D01*
X22276959Y8832812D01*
X22265420Y8828342D01*
X22254983Y8824299D01*
X22254982Y8824298D01*
X22254981Y8824298D01*
X22073698Y8712052D01*
X21916128Y8568407D01*
X21894728Y8540068D01*
X21894504Y8539772D01*
X21850821Y8503500D01*
X21795550Y8490500D01*
X20724921Y8490500D01*
X20717434Y8490726D01*
X20714102Y8490927D01*
X20657394Y8494358D01*
X20598185Y8483507D01*
X20590841Y8482390D01*
X20531128Y8475140D01*
X20521657Y8471548D01*
X20500044Y8465522D01*
X20490069Y8463695D01*
X20444032Y8442975D01*
X20435220Y8439009D01*
X20428326Y8436152D01*
X20372070Y8414818D01*
X20372069Y8414817D01*
X20372066Y8414816D01*
X20363731Y8409062D01*
X20344181Y8398035D01*
X20334944Y8393878D01*
X20287591Y8356780D01*
X20281579Y8352356D01*
X20261386Y8338418D01*
X20243396Y8326000D01*
X20232071Y8318183D01*
X20192178Y8273153D01*
X20187058Y8267715D01*
X20106161Y8186818D01*
X20065933Y8159938D01*
X20018480Y8150499D01*
X19259991Y8150499D01*
X19157203Y8139999D01*
X18990666Y8084814D01*
X18923129Y8043157D01*
X18841342Y7992711D01*
X18717288Y7868657D01*
X18625186Y7719334D01*
X18570000Y7552797D01*
X18559500Y7450009D01*
X18559500Y6549994D01*
X18560818Y6537103D01*
X18548805Y6469926D01*
X18503068Y6419278D01*
X18437460Y6400500D01*
X16424500Y6400500D01*
X16362500Y6417113D01*
X16317113Y6462500D01*
X16300500Y6524500D01*
X16300500Y7731074D01*
X16301029Y7742515D01*
X16305429Y7790000D01*
X16296995Y7881014D01*
X16296995Y7881015D01*
X16285756Y8002309D01*
X16285756Y8002310D01*
X16227405Y8207389D01*
X16172236Y8318184D01*
X16132368Y8398252D01*
X16124205Y8409062D01*
X16003872Y8568407D01*
X15846302Y8712052D01*
X15665019Y8824298D01*
X15466198Y8901321D01*
X15256610Y8940500D01*
X15043390Y8940500D01*
X14833802Y8901321D01*
X14634981Y8824298D01*
X14453698Y8712052D01*
X14328269Y8597707D01*
X14296126Y8568405D01*
X14167631Y8398252D01*
X14072595Y8207390D01*
X14014243Y8002309D01*
X14003005Y7881015D01*
X14003005Y7881014D01*
X13994571Y7790000D01*
X13998971Y7742515D01*
X13999500Y7731074D01*
X13999500Y5268465D01*
X13998311Y5251335D01*
X13995804Y5233364D01*
X13999368Y5156272D01*
X13999500Y5150546D01*
X13999500Y2768926D01*
X13998971Y2757485D01*
X13994571Y2710000D01*
X13999500Y2656806D01*
X14014243Y2497689D01*
X14072595Y2292609D01*
X14167631Y2101747D01*
X14296126Y1931594D01*
X14453698Y1787947D01*
X14634982Y1675701D01*
X14833801Y1598679D01*
X14903664Y1585619D01*
X15043390Y1559500D01*
X15256608Y1559500D01*
X15256610Y1559500D01*
X15466198Y1598679D01*
X15665017Y1675701D01*
X15846301Y1787947D01*
X16003873Y1931594D01*
X16132368Y2101747D01*
X16227404Y2292609D01*
X16232353Y2310000D01*
X16270897Y2445467D01*
X16285756Y2497689D01*
X16300500Y2656806D01*
X16301004Y2662250D01*
X16305429Y2710000D01*
X16301028Y2757485D01*
X16300500Y2768926D01*
X16300500Y3975500D01*
X16317113Y4037500D01*
X16362500Y4082887D01*
X16424500Y4099500D01*
X18437459Y4099500D01*
X18503067Y4080721D01*
X18548804Y4030073D01*
X18560817Y3962896D01*
X18559500Y3950006D01*
X18559500Y3049991D01*
X18570000Y2947203D01*
X18625186Y2780665D01*
X18717288Y2631342D01*
X18841342Y2507288D01*
X18990665Y2415186D01*
X19157202Y2360000D01*
X19259991Y2349500D01*
X20018480Y2349500D01*
X20065933Y2340061D01*
X20106158Y2313183D01*
X20150679Y2268663D01*
X20187053Y2232289D01*
X20192184Y2226838D01*
X20232072Y2181816D01*
X20281582Y2147639D01*
X20287608Y2143205D01*
X20334944Y2106121D01*
X20344187Y2101961D01*
X20363723Y2090943D01*
X20372070Y2085181D01*
X20428310Y2063851D01*
X20435225Y2060987D01*
X20490069Y2036305D01*
X20500047Y2034476D01*
X20521651Y2028453D01*
X20531124Y2024860D01*
X20590828Y2017610D01*
X20598227Y2016483D01*
X20657391Y2005641D01*
X20717434Y2009274D01*
X20724921Y2009500D01*
X21795550Y2009500D01*
X21850821Y1996500D01*
X21894504Y1960228D01*
X21916128Y1931592D01*
X22029039Y1828660D01*
X22058935Y1787109D01*
X22069500Y1737023D01*
X22069500Y-1737023D01*
X22058935Y-1787109D01*
X22029039Y-1828660D01*
X21916128Y-1931592D01*
X21894504Y-1960228D01*
X21850821Y-1996500D01*
X21795550Y-2009500D01*
X20964921Y-2009500D01*
X20957434Y-2009274D01*
X20897391Y-2005641D01*
X20838226Y-2016483D01*
X20830827Y-2017609D01*
X20771128Y-2024859D01*
X20761648Y-2028454D01*
X20740047Y-2034475D01*
X20730070Y-2036303D01*
X20675219Y-2060989D01*
X20668305Y-2063853D01*
X20612069Y-2085182D01*
X20603725Y-2090941D01*
X20584186Y-2101961D01*
X20574942Y-2106121D01*
X20527597Y-2143213D01*
X20521568Y-2147649D01*
X20472070Y-2181816D01*
X20432183Y-2226838D01*
X20427051Y-2232290D01*
X20396160Y-2263181D01*
X20355932Y-2290061D01*
X20308479Y-2299500D01*
X19549991Y-2299500D01*
X19447203Y-2310000D01*
X19280665Y-2365186D01*
X19131342Y-2457288D01*
X19007288Y-2581342D01*
X18915186Y-2730665D01*
X18860000Y-2897202D01*
X18849500Y-2999990D01*
X18849500Y-3900009D01*
X18855925Y-3962899D01*
X18843911Y-4030075D01*
X18798174Y-4080722D01*
X18732567Y-4099500D01*
X16424500Y-4099500D01*
X16362500Y-4082887D01*
X16317113Y-4037500D01*
X16300500Y-3975500D01*
X16300500Y-2768926D01*
X16301029Y-2757485D01*
X16301294Y-2754628D01*
X16305429Y-2710000D01*
X16296995Y-2618986D01*
X16285756Y-2497690D01*
X16227405Y-2292611D01*
X16218175Y-2274074D01*
X16132368Y-2101747D01*
X16003873Y-1931594D01*
X15846301Y-1787947D01*
X15665017Y-1675701D01*
X15466198Y-1598679D01*
X15256610Y-1559500D01*
X15043390Y-1559500D01*
X14903664Y-1585619D01*
X14833801Y-1598679D01*
X14634982Y-1675701D01*
X14453698Y-1787947D01*
X14296126Y-1931594D01*
X14167631Y-2101747D01*
X14072595Y-2292609D01*
X14014243Y-2497690D01*
X14003005Y-2618985D01*
X14003005Y-2618986D01*
X13994571Y-2710000D01*
X13998971Y-2757485D01*
X13999500Y-2768926D01*
X13999500Y-5361535D01*
X13998311Y-5378665D01*
X13995804Y-5396635D01*
X13999368Y-5473728D01*
X13999500Y-5479454D01*
X13999500Y-7731074D01*
X13998971Y-7742514D01*
X13994571Y-7790000D01*
X13997039Y-7816639D01*
X13999500Y-7843194D01*
X14003341Y-7884646D01*
X14014243Y-8002310D01*
X14072595Y-8207390D01*
X14167631Y-8398252D01*
X14275547Y-8541154D01*
X14296128Y-8568407D01*
X14453698Y-8712052D01*
X14634981Y-8824298D01*
X14833802Y-8901321D01*
X15043390Y-8940500D01*
X15256608Y-8940500D01*
X15256610Y-8940500D01*
X15466198Y-8901321D01*
X15665019Y-8824298D01*
X15846302Y-8712052D01*
X16003872Y-8568407D01*
X16132366Y-8398255D01*
X16132366Y-8398253D01*
X16132368Y-8398252D01*
X16196047Y-8270365D01*
X16227405Y-8207389D01*
X16285756Y-8002310D01*
X16296659Y-7884646D01*
X16300500Y-7843194D01*
X16305429Y-7790000D01*
X16301028Y-7742514D01*
X16300500Y-7731074D01*
X16300500Y-6524500D01*
X16317113Y-6462500D01*
X16362500Y-6417113D01*
X16424500Y-6400500D01*
X18725500Y-6400500D01*
X18787500Y-6417113D01*
X18832887Y-6462500D01*
X18849500Y-6524500D01*
X18849500Y-7400008D01*
X18860000Y-7502796D01*
X18915186Y-7669334D01*
X19007288Y-7818657D01*
X19131342Y-7942711D01*
X19131344Y-7942712D01*
X19280666Y-8034814D01*
X19392016Y-8071712D01*
X19447202Y-8089999D01*
X19457702Y-8091071D01*
X19549991Y-8100500D01*
X20308480Y-8100499D01*
X20355933Y-8109938D01*
X20396161Y-8136818D01*
X20527058Y-8267715D01*
X20532178Y-8273153D01*
X20572070Y-8318182D01*
X20572072Y-8318184D01*
X20621569Y-8352349D01*
X20627602Y-8356788D01*
X20649134Y-8373657D01*
X20674943Y-8393877D01*
X20684174Y-8398031D01*
X20703726Y-8409058D01*
X20712070Y-8414818D01*
X20768322Y-8436151D01*
X20775221Y-8439009D01*
X20830068Y-8463694D01*
X20840030Y-8465519D01*
X20861650Y-8471546D01*
X20871125Y-8475139D01*
X20871128Y-8475140D01*
X20930856Y-8482392D01*
X20938201Y-8483509D01*
X20997394Y-8494357D01*
X21029642Y-8492406D01*
X21084581Y-8501618D01*
X21129943Y-8533951D01*
X21156574Y-8582880D01*
X21159098Y-8638529D01*
X21155641Y-8657390D01*
X21159274Y-8717434D01*
X21159500Y-8724921D01*
X21159500Y-9545165D01*
X21153154Y-9584324D01*
X21134767Y-9619475D01*
X21091205Y-9677666D01*
X21040907Y-9812520D01*
X21037870Y-9840771D01*
X21016291Y-9898445D01*
X20969628Y-9938626D01*
X20909389Y-9951405D01*
X20850431Y-9933631D01*
X20771236Y-9885756D01*
X20714606Y-9851522D01*
X20552196Y-9800914D01*
X20552193Y-9800913D01*
X20481617Y-9794500D01*
X20481616Y-9794500D01*
X19968384Y-9794500D01*
X19968383Y-9794500D01*
X19897806Y-9800913D01*
X19851059Y-9815480D01*
X19735394Y-9851522D01*
X19735392Y-9851522D01*
X19735392Y-9851523D01*
X19589813Y-9939528D01*
X19487681Y-10041661D01*
X19432094Y-10073755D01*
X19367906Y-10073755D01*
X19312319Y-10041661D01*
X19210186Y-9939528D01*
X19100576Y-9873267D01*
X19064606Y-9851522D01*
X18902196Y-9800914D01*
X18902193Y-9800913D01*
X18831617Y-9794500D01*
X18831616Y-9794500D01*
X18318384Y-9794500D01*
X18318383Y-9794500D01*
X18247806Y-9800913D01*
X18201059Y-9815480D01*
X18085394Y-9851522D01*
X18085392Y-9851522D01*
X18085392Y-9851523D01*
X17939813Y-9939528D01*
X17846161Y-10033181D01*
X17805933Y-10060061D01*
X17758480Y-10069500D01*
X11607162Y-10069500D01*
X11559709Y-10060061D01*
X11519481Y-10033181D01*
X6508584Y-5022283D01*
X6503466Y-5016847D01*
X6463573Y-4971817D01*
X6457730Y-4967784D01*
X6414080Y-4937654D01*
X6408049Y-4933216D01*
X6360698Y-4896120D01*
X6351457Y-4891961D01*
X6331917Y-4880941D01*
X6323574Y-4875182D01*
X6323571Y-4875181D01*
X6323570Y-4875180D01*
X6267345Y-4853856D01*
X6260427Y-4850991D01*
X6205573Y-4826303D01*
X6195596Y-4824475D01*
X6173983Y-4818450D01*
X6164517Y-4814860D01*
X6104816Y-4807610D01*
X6097415Y-4806483D01*
X6038251Y-4795641D01*
X5978210Y-4799274D01*
X5970723Y-4799500D01*
X3608156Y-4799500D01*
X3569838Y-4793431D01*
X3535270Y-4775818D01*
X3452727Y-4715847D01*
X3279802Y-4638855D01*
X3094648Y-4599500D01*
X3094646Y-4599500D01*
X2905354Y-4599500D01*
X2905352Y-4599500D01*
X2720197Y-4638855D01*
X2547269Y-4715848D01*
X2394129Y-4827110D01*
X2267466Y-4967783D01*
X2172820Y-5131715D01*
X2114326Y-5311742D01*
X2094540Y-5500000D01*
X2114326Y-5688257D01*
X2172820Y-5868284D01*
X2267466Y-6032216D01*
X2394129Y-6172889D01*
X2547269Y-6284151D01*
X2720197Y-6361144D01*
X2905352Y-6400500D01*
X2905354Y-6400500D01*
X3094646Y-6400500D01*
X3094648Y-6400500D01*
X3218083Y-6374262D01*
X3279803Y-6361144D01*
X3452730Y-6284151D01*
X3535271Y-6224181D01*
X3569838Y-6206569D01*
X3608156Y-6200500D01*
X5654125Y-6200500D01*
X5701578Y-6209939D01*
X5741806Y-6236819D01*
X7862916Y-8357929D01*
X7895959Y-8417295D01*
X7892758Y-8485161D01*
X7854275Y-8541154D01*
X7792064Y-8568463D01*
X7724799Y-8558890D01*
X7679803Y-8538856D01*
X7679802Y-8538855D01*
X7679798Y-8538854D01*
X7494648Y-8499500D01*
X7494646Y-8499500D01*
X7305354Y-8499500D01*
X7305352Y-8499500D01*
X7120197Y-8538855D01*
X6947269Y-8615848D01*
X6794129Y-8727110D01*
X6667466Y-8867783D01*
X6572820Y-9031715D01*
X6514326Y-9211742D01*
X6494540Y-9399999D01*
X6514326Y-9588257D01*
X6572820Y-9768284D01*
X6667466Y-9932216D01*
X6794129Y-10072889D01*
X6947269Y-10184151D01*
X7120197Y-10261144D01*
X7275126Y-10294075D01*
X7308513Y-10306391D01*
X7337027Y-10327684D01*
X10263181Y-13253838D01*
X10290061Y-13294066D01*
X10299500Y-13341519D01*
X10299500Y-19275500D01*
X10282887Y-19337500D01*
X10237500Y-19382887D01*
X10175500Y-19399500D01*
X-9375500Y-19399500D01*
X-9437500Y-19382887D01*
X-9482887Y-19337500D01*
X-9499500Y-19275500D01*
X-9499500Y-12710855D01*
X-9490061Y-12663402D01*
X-9463181Y-12623174D01*
X-6992400Y-10152393D01*
X-6963886Y-10131100D01*
X-6930499Y-10118784D01*
X-6775570Y-10085853D01*
X-6602642Y-10008860D01*
X-6449502Y-9897598D01*
X-6322839Y-9756925D01*
X-6228193Y-9592993D01*
X-6169699Y-9412966D01*
X-6149913Y-9224709D01*
X-6156548Y-9161581D01*
X-6169593Y-9037458D01*
X-6157723Y-8970142D01*
X-6111983Y-8919342D01*
X-6046273Y-8900500D01*
X-708156Y-8900500D01*
X-669838Y-8906569D01*
X-635271Y-8924181D01*
X-552730Y-8984151D01*
X-379803Y-9061144D01*
X-318083Y-9074262D01*
X-194648Y-9100500D01*
X-194646Y-9100500D01*
X-5354Y-9100500D01*
X-5352Y-9100500D01*
X118083Y-9074262D01*
X179803Y-9061144D01*
X352730Y-8984151D01*
X429283Y-8928532D01*
X505870Y-8872889D01*
X510468Y-8867783D01*
X632533Y-8732216D01*
X727179Y-8568284D01*
X785674Y-8388256D01*
X805460Y-8200000D01*
X785674Y-8011744D01*
X730963Y-7843362D01*
X727179Y-7831715D01*
X632533Y-7667783D01*
X505870Y-7527110D01*
X352730Y-7415848D01*
X179802Y-7338855D01*
X-5352Y-7299500D01*
X-5354Y-7299500D01*
X-194646Y-7299500D01*
X-194648Y-7299500D01*
X-379802Y-7338855D01*
X-552727Y-7415847D01*
X-552729Y-7415848D01*
X-552730Y-7415849D01*
X-626172Y-7469208D01*
X-635270Y-7475818D01*
X-669838Y-7493431D01*
X-708156Y-7499500D01*
X-7136418Y-7499500D01*
X-7143905Y-7499274D01*
X-7203935Y-7495642D01*
X-7263083Y-7506481D01*
X-7270484Y-7507608D01*
X-7330200Y-7514860D01*
X-7339675Y-7518453D01*
X-7361286Y-7524477D01*
X-7371259Y-7526305D01*
X-7426108Y-7550990D01*
X-7433026Y-7553856D01*
X-7489258Y-7575182D01*
X-7493681Y-7578235D01*
X-7497599Y-7580939D01*
X-7517142Y-7591961D01*
X-7526386Y-7596121D01*
X-7573732Y-7633215D01*
X-7579754Y-7637647D01*
X-7601102Y-7652383D01*
X-7629255Y-7671815D01*
X-7629256Y-7671816D01*
X-7629257Y-7671817D01*
X-7669150Y-7716847D01*
X-7674268Y-7722283D01*
X-9715166Y-9763181D01*
X-9755394Y-9790061D01*
X-9802847Y-9799500D01*
X-17958480Y-9799500D01*
X-18005933Y-9790061D01*
X-18046161Y-9763181D01*
X-18139813Y-9669528D01*
X-18285392Y-9581523D01*
X-18285392Y-9581522D01*
X-18285394Y-9581522D01*
X-18384044Y-9550782D01*
X-18447806Y-9530913D01*
X-18518383Y-9524500D01*
X-18518384Y-9524500D01*
X-19031616Y-9524500D01*
X-19031617Y-9524500D01*
X-19102193Y-9530913D01*
X-19102196Y-9530914D01*
X-19264606Y-9581522D01*
X-19301577Y-9603872D01*
X-19410186Y-9669528D01*
X-19512319Y-9771661D01*
X-19567906Y-9803755D01*
X-19632094Y-9803755D01*
X-19687681Y-9771661D01*
X-19789813Y-9669528D01*
X-19935392Y-9581523D01*
X-19935392Y-9581522D01*
X-19935394Y-9581522D01*
X-20034044Y-9550782D01*
X-20097806Y-9530913D01*
X-20168383Y-9524500D01*
X-20168384Y-9524500D01*
X-20681616Y-9524500D01*
X-20681617Y-9524500D01*
X-20752193Y-9530913D01*
X-20752196Y-9530914D01*
X-20804602Y-9547244D01*
X-20866514Y-9550306D01*
X-20922175Y-9523016D01*
X-20957670Y-9472193D01*
X-20981646Y-9407913D01*
X-21067811Y-9292811D01*
X-21182910Y-9206647D01*
X-21317624Y-9156402D01*
X-21377176Y-9150000D01*
X-21550000Y-9150000D01*
X-21550000Y-9675500D01*
X-21566613Y-9737500D01*
X-21612000Y-9782887D01*
X-21674000Y-9799500D01*
X-21826000Y-9799500D01*
X-21888000Y-9782887D01*
X-21933387Y-9737500D01*
X-21950000Y-9675500D01*
X-21950000Y-9150000D01*
X-22122824Y-9150000D01*
X-22182375Y-9156402D01*
X-22317089Y-9206647D01*
X-22432188Y-9292811D01*
X-22518352Y-9407910D01*
X-22568597Y-9542624D01*
X-22575000Y-9602176D01*
X-22575000Y-9650000D01*
X-22414434Y-9650000D01*
X-22355007Y-9665168D01*
X-22310119Y-9706961D01*
X-22290750Y-9765154D01*
X-22301640Y-9825511D01*
X-22340121Y-9873264D01*
X-22402551Y-9920000D01*
X-22432546Y-9942454D01*
X-22475858Y-10000311D01*
X-22519621Y-10036884D01*
X-22574961Y-10049961D01*
X-22575000Y-10050000D01*
X-22575000Y-10097823D01*
X-22568380Y-10159398D01*
X-22568381Y-10185908D01*
X-22569091Y-10192517D01*
X-22575500Y-10252127D01*
X-22575499Y-10747872D01*
X-22569091Y-10807483D01*
X-22569090Y-10807484D01*
X-22568632Y-10811748D01*
X-22568633Y-10838258D01*
X-22569090Y-10842516D01*
X-22569091Y-10842517D01*
X-22575500Y-10902127D01*
X-22575499Y-11397872D01*
X-22569091Y-11457483D01*
X-22518796Y-11592331D01*
X-22517173Y-11594499D01*
X-22475233Y-11650525D01*
X-22456846Y-11685676D01*
X-22450500Y-11724835D01*
X-22450500Y-11848481D01*
X-22459939Y-11895934D01*
X-22486819Y-11936162D01*
X-22573838Y-12023181D01*
X-22614066Y-12050061D01*
X-22661519Y-12059500D01*
X-22663390Y-12059500D01*
X-22876610Y-12059500D01*
X-23080602Y-12097633D01*
X-23086198Y-12098679D01*
X-23285017Y-12175701D01*
X-23285019Y-12175702D01*
X-23354802Y-12218909D01*
X-23466301Y-12287947D01*
X-23623873Y-12431594D01*
X-23752368Y-12601747D01*
X-23838175Y-12774074D01*
X-23847405Y-12792611D01*
X-23875132Y-12890061D01*
X-23902699Y-12986947D01*
X-23905756Y-12997690D01*
X-23915792Y-13105999D01*
X-23935370Y-13162250D01*
X-23978922Y-13202884D01*
X-24002181Y-13209212D01*
X-23982428Y-13213779D01*
X-23936567Y-13254628D01*
X-23915933Y-13312471D01*
X-23905756Y-13422310D01*
X-23847405Y-13627389D01*
X-23811735Y-13699025D01*
X-23752368Y-13818252D01*
X-23752366Y-13818253D01*
X-23752366Y-13818255D01*
X-23623872Y-13988407D01*
X-23466302Y-14132052D01*
X-23285019Y-14244298D01*
X-23086198Y-14321321D01*
X-22913458Y-14353611D01*
X-22858506Y-14378894D01*
X-22822053Y-14427167D01*
X-22812774Y-14486941D01*
X-22832878Y-14543993D01*
X-22877581Y-14584746D01*
X-22936245Y-14599500D01*
X-25123873Y-14599500D01*
X-25181694Y-14585194D01*
X-25226173Y-14545577D01*
X-25247047Y-14489790D01*
X-25239500Y-14430706D01*
X-25205272Y-14381958D01*
X-25152263Y-14354794D01*
X-25075256Y-14336682D01*
X-25069663Y-14335501D01*
X-24993802Y-14321321D01*
X-24976881Y-14314765D01*
X-24960497Y-14309691D01*
X-24942814Y-14305533D01*
X-24872206Y-14274356D01*
X-24866954Y-14272180D01*
X-24794981Y-14244298D01*
X-24779547Y-14234742D01*
X-24764359Y-14226736D01*
X-24747763Y-14219408D01*
X-24684100Y-14175798D01*
X-24679300Y-14172671D01*
X-24613697Y-14132052D01*
X-24600290Y-14119829D01*
X-24586829Y-14109166D01*
X-24571858Y-14098911D01*
X-24517277Y-14044330D01*
X-24513157Y-14040397D01*
X-24456129Y-13988408D01*
X-24456126Y-13988405D01*
X-24445189Y-13973922D01*
X-24433920Y-13960973D01*
X-24421091Y-13948144D01*
X-24421091Y-13948143D01*
X-24421089Y-13948142D01*
X-24377482Y-13884483D01*
X-24374141Y-13879840D01*
X-24352450Y-13851116D01*
X-24327634Y-13818255D01*
X-24327633Y-13818252D01*
X-24319540Y-13802001D01*
X-24310845Y-13787205D01*
X-24300592Y-13772237D01*
X-24269423Y-13701648D01*
X-24266993Y-13696471D01*
X-24232595Y-13627389D01*
X-24227629Y-13609938D01*
X-24221800Y-13593794D01*
X-24214465Y-13577181D01*
X-24196800Y-13502072D01*
X-24195360Y-13496527D01*
X-24174244Y-13422312D01*
X-24172569Y-13404237D01*
X-24169805Y-13387291D01*
X-24165651Y-13369629D01*
X-24163272Y-13318185D01*
X-24145329Y-13259448D01*
X-24101402Y-13216526D01*
X-24076567Y-13209563D01*
X-24094532Y-13205557D01*
X-24139915Y-13166979D01*
X-24162073Y-13111689D01*
X-24165685Y-13085796D01*
X-24166465Y-13080204D01*
X-24167123Y-13074531D01*
X-24174244Y-12997686D01*
X-24179210Y-12980231D01*
X-24182753Y-12963436D01*
X-24185260Y-12945467D01*
X-24209786Y-12872289D01*
X-24211479Y-12866821D01*
X-24232595Y-12792607D01*
X-24240687Y-12776356D01*
X-24247253Y-12760504D01*
X-24253020Y-12743297D01*
X-24290566Y-12675888D01*
X-24293236Y-12670824D01*
X-24327635Y-12601741D01*
X-24338566Y-12587267D01*
X-24347938Y-12572885D01*
X-24356772Y-12557024D01*
X-24406079Y-12497646D01*
X-24409633Y-12493159D01*
X-24456128Y-12431592D01*
X-24513147Y-12379611D01*
X-24517288Y-12375657D01*
X-25205765Y-11687181D01*
X-25236015Y-11637818D01*
X-25240557Y-11580102D01*
X-25218402Y-11526615D01*
X-25174379Y-11489015D01*
X-25118084Y-11475500D01*
X-24818383Y-11475500D01*
X-24811327Y-11474858D01*
X-24747804Y-11469086D01*
X-24605810Y-11424839D01*
X-24543896Y-11421777D01*
X-24488235Y-11449068D01*
X-24452740Y-11499892D01*
X-24418352Y-11592088D01*
X-24332188Y-11707188D01*
X-24217089Y-11793352D01*
X-24082375Y-11843597D01*
X-24022824Y-11850000D01*
X-23850000Y-11850000D01*
X-23850000Y-11324500D01*
X-23833387Y-11262500D01*
X-23788000Y-11217113D01*
X-23726000Y-11200500D01*
X-23595355Y-11200500D01*
X-23595345Y-11200499D01*
X-23574000Y-11200499D01*
X-23512000Y-11217112D01*
X-23466613Y-11262499D01*
X-23450000Y-11324499D01*
X-23450000Y-11850000D01*
X-23277176Y-11850000D01*
X-23217624Y-11843597D01*
X-23082910Y-11793352D01*
X-22967811Y-11707188D01*
X-22881647Y-11592089D01*
X-22831402Y-11457375D01*
X-22825000Y-11397824D01*
X-22825000Y-11350000D01*
X-22985566Y-11350000D01*
X-23044993Y-11334832D01*
X-23089881Y-11293039D01*
X-23109250Y-11234846D01*
X-23098360Y-11174489D01*
X-23059878Y-11126735D01*
X-22967454Y-11057546D01*
X-22952447Y-11037500D01*
X-22924142Y-10999689D01*
X-22880379Y-10963116D01*
X-22825038Y-10950038D01*
X-22825000Y-10950000D01*
X-22825000Y-10902174D01*
X-22831619Y-10840599D01*
X-22831619Y-10814092D01*
X-22824500Y-10747870D01*
X-22824500Y-10252128D01*
X-22831367Y-10188253D01*
X-22831367Y-10161747D01*
X-22824500Y-10097870D01*
X-22824500Y-9602130D01*
X-22830909Y-9542515D01*
X-22881204Y-9407667D01*
X-22924767Y-9349475D01*
X-22943154Y-9314324D01*
X-22949500Y-9275165D01*
X-22949500Y-9064500D01*
X-22932887Y-9002500D01*
X-22887500Y-8957113D01*
X-22825500Y-8940500D01*
X-22663392Y-8940500D01*
X-22663390Y-8940500D01*
X-22453802Y-8901321D01*
X-22254981Y-8824298D01*
X-22073698Y-8712052D01*
X-21916128Y-8568407D01*
X-21894503Y-8539771D01*
X-21850821Y-8503500D01*
X-21795550Y-8490500D01*
X-21064921Y-8490500D01*
X-21057434Y-8490726D01*
X-21054102Y-8490927D01*
X-20997394Y-8494358D01*
X-20938185Y-8483507D01*
X-20930840Y-8482390D01*
X-20871128Y-8475140D01*
X-20861651Y-8471546D01*
X-20840035Y-8465521D01*
X-20830068Y-8463695D01*
X-20775218Y-8439009D01*
X-20768322Y-8436151D01*
X-20712070Y-8414818D01*
X-20703730Y-8409061D01*
X-20684184Y-8398037D01*
X-20674943Y-8393878D01*
X-20674942Y-8393877D01*
X-20674941Y-8393877D01*
X-20627597Y-8356785D01*
X-20621569Y-8352349D01*
X-20572071Y-8318183D01*
X-20532178Y-8273153D01*
X-20527058Y-8267715D01*
X-20496161Y-8236818D01*
X-20455933Y-8209938D01*
X-20408480Y-8200499D01*
X-19649991Y-8200499D01*
X-19547203Y-8189999D01*
X-19547202Y-8189998D01*
X-19380666Y-8134814D01*
X-19287895Y-8077593D01*
X-19231342Y-8042711D01*
X-19107288Y-7918657D01*
X-19015186Y-7769334D01*
X-18960000Y-7602797D01*
X-18949500Y-7500009D01*
X-18949500Y-6599990D01*
X-18955925Y-6537101D01*
X-18943911Y-6469925D01*
X-18898174Y-6419278D01*
X-18832567Y-6400500D01*
X-16424500Y-6400500D01*
X-16362500Y-6417113D01*
X-16317113Y-6462500D01*
X-16300500Y-6524500D01*
X-16300500Y-7731074D01*
X-16301028Y-7742514D01*
X-16305429Y-7790000D01*
X-16300500Y-7843194D01*
X-16296659Y-7884646D01*
X-16285756Y-8002310D01*
X-16227405Y-8207389D01*
X-16196047Y-8270365D01*
X-16132368Y-8398252D01*
X-16132366Y-8398253D01*
X-16132366Y-8398255D01*
X-16003872Y-8568407D01*
X-15846302Y-8712052D01*
X-15665019Y-8824298D01*
X-15466198Y-8901321D01*
X-15256610Y-8940500D01*
X-15043392Y-8940500D01*
X-15043390Y-8940500D01*
X-14833802Y-8901321D01*
X-14634981Y-8824298D01*
X-14453698Y-8712052D01*
X-14296128Y-8568407D01*
X-14275547Y-8541154D01*
X-14167631Y-8398252D01*
X-14072595Y-8207390D01*
X-14014243Y-8002310D01*
X-14003341Y-7884646D01*
X-13999500Y-7843194D01*
X-13997039Y-7816639D01*
X-13994571Y-7790000D01*
X-13998971Y-7742514D01*
X-13999500Y-7731074D01*
X-13999500Y-5369439D01*
X-13999368Y-5363714D01*
X-13996966Y-5311744D01*
X-13995805Y-5286638D01*
X-13998310Y-5268672D01*
X-13999500Y-5251542D01*
X-13999500Y-2768926D01*
X-13998971Y-2757485D01*
X-13994571Y-2710000D01*
X-14003005Y-2618986D01*
X-14003005Y-2618985D01*
X-14014243Y-2497690D01*
X-14072595Y-2292609D01*
X-14167631Y-2101747D01*
X-14296126Y-1931594D01*
X-14453698Y-1787947D01*
X-14634982Y-1675701D01*
X-14833801Y-1598679D01*
X-14903664Y-1585619D01*
X-15043390Y-1559500D01*
X-15256610Y-1559500D01*
X-15466198Y-1598679D01*
X-15665017Y-1675701D01*
X-15846301Y-1787947D01*
X-16003873Y-1931594D01*
X-16132368Y-2101747D01*
X-16218175Y-2274074D01*
X-16227405Y-2292611D01*
X-16285756Y-2497690D01*
X-16296995Y-2618986D01*
X-16305429Y-2710000D01*
X-16301294Y-2754628D01*
X-16301029Y-2757485D01*
X-16300500Y-2768926D01*
X-16300500Y-3975500D01*
X-16317113Y-4037500D01*
X-16362500Y-4082887D01*
X-16424500Y-4099500D01*
X-18825500Y-4099500D01*
X-18887500Y-4082887D01*
X-18932887Y-4037500D01*
X-18949500Y-3975500D01*
X-18949500Y-3099991D01*
X-18960000Y-2997203D01*
X-19015186Y-2830665D01*
X-19107288Y-2681342D01*
X-19231342Y-2557288D01*
X-19380665Y-2465186D01*
X-19547202Y-2410000D01*
X-19649991Y-2399500D01*
X-20408480Y-2399500D01*
X-20455933Y-2390061D01*
X-20496158Y-2363183D01*
X-20627052Y-2232289D01*
X-20632183Y-2226838D01*
X-20672070Y-2181816D01*
X-20721568Y-2147649D01*
X-20727597Y-2143213D01*
X-20774942Y-2106121D01*
X-20784186Y-2101961D01*
X-20803725Y-2090941D01*
X-20812069Y-2085182D01*
X-20868305Y-2063853D01*
X-20875219Y-2060989D01*
X-20930070Y-2036303D01*
X-20940047Y-2034475D01*
X-20961648Y-2028454D01*
X-20971128Y-2024859D01*
X-21030827Y-2017609D01*
X-21038226Y-2016483D01*
X-21097391Y-2005641D01*
X-21157434Y-2009274D01*
X-21164921Y-2009500D01*
X-21795550Y-2009500D01*
X-21850821Y-1996500D01*
X-21894504Y-1960228D01*
X-21916128Y-1931592D01*
X-22029039Y-1828660D01*
X-22058935Y-1787109D01*
X-22069500Y-1737023D01*
X-22069500Y-424500D01*
X-22052887Y-362500D01*
X-22007500Y-317113D01*
X-21945500Y-300500D01*
X-11524921Y-300500D01*
X-11517434Y-300726D01*
X-11514102Y-300927D01*
X-11457394Y-304358D01*
X-11398185Y-293507D01*
X-11390840Y-292390D01*
X-11331128Y-285140D01*
X-11321651Y-281546D01*
X-11300035Y-275521D01*
X-11290068Y-273695D01*
X-11235218Y-249009D01*
X-11228322Y-246151D01*
X-11172070Y-224818D01*
X-11163730Y-219061D01*
X-11144184Y-208037D01*
X-11134943Y-203878D01*
X-11134942Y-203877D01*
X-11134941Y-203877D01*
X-11087597Y-166785D01*
X-11081577Y-162355D01*
X-11032071Y-128183D01*
X-10992177Y-83152D01*
X-10987059Y-77716D01*
X-10622290Y287051D01*
X-10616838Y292183D01*
X-10571819Y332067D01*
X-10537652Y381566D01*
X-10533216Y387594D01*
X-10496121Y434944D01*
X-10491963Y444183D01*
X-10480941Y463725D01*
X-10475181Y472069D01*
X-10453848Y528318D01*
X-10450984Y535234D01*
X-10426305Y590069D01*
X-10424479Y600036D01*
X-10418456Y621641D01*
X-10414860Y631122D01*
X-10407608Y690843D01*
X-10406481Y698242D01*
X-10395642Y757391D01*
X-10399274Y817422D01*
X-10399500Y824909D01*
X-10399500Y5858481D01*
X-10390061Y5905934D01*
X-10363181Y5946162D01*
X-8246162Y8063181D01*
X-8205934Y8090061D01*
X-8158481Y8099500D01*
X-8105352Y8099500D01*
X-7920197Y8138855D01*
X-7747269Y8215848D01*
X-7594129Y8327111D01*
X-7503243Y8428049D01*
X-7447347Y8463658D01*
X-7381095Y8465393D01*
X-7323413Y8432757D01*
X-7036819Y8146163D01*
X-7009939Y8105935D01*
X-7000500Y8058482D01*
X-7000500Y-1775079D01*
X-7000726Y-1782566D01*
X-7004358Y-1842606D01*
X-6997576Y-1879611D01*
X-6993514Y-1901778D01*
X-6992387Y-1909181D01*
X-6986190Y-1960228D01*
X-6985140Y-1968871D01*
X-6981552Y-1978331D01*
X-6975522Y-1999958D01*
X-6973695Y-2009932D01*
X-6948996Y-2064808D01*
X-6946152Y-2071673D01*
X-6924818Y-2127930D01*
X-6919060Y-2136270D01*
X-6908035Y-2155819D01*
X-6903878Y-2165057D01*
X-6866775Y-2212413D01*
X-6862355Y-2218420D01*
X-6828183Y-2267929D01*
X-6783150Y-2307823D01*
X-6777731Y-2312924D01*
X-5512924Y-3577731D01*
X-5507823Y-3583150D01*
X-5467929Y-3628183D01*
X-5418389Y-3662377D01*
X-5412419Y-3666770D01*
X-5365056Y-3703878D01*
X-5355818Y-3708035D01*
X-5336268Y-3719061D01*
X-5327930Y-3724818D01*
X-5308422Y-3732216D01*
X-5271698Y-3746144D01*
X-5264776Y-3749011D01*
X-5244858Y-3757974D01*
X-5209931Y-3773695D01*
X-5199956Y-3775522D01*
X-5178339Y-3781549D01*
X-5168872Y-3785140D01*
X-5109179Y-3792387D01*
X-5101781Y-3793513D01*
X-5042606Y-3804358D01*
X-4985897Y-3800927D01*
X-4982566Y-3800726D01*
X-4975079Y-3800500D01*
X-4808156Y-3800500D01*
X-4769838Y-3806569D01*
X-4735271Y-3824181D01*
X-4652730Y-3884151D01*
X-4479803Y-3961144D01*
X-4441855Y-3969210D01*
X-4294648Y-4000500D01*
X-4294646Y-4000500D01*
X-4105354Y-4000500D01*
X-4105352Y-4000500D01*
X-3920197Y-3961144D01*
X-3747269Y-3884151D01*
X-3594129Y-3772889D01*
X-3467466Y-3632216D01*
X-3372820Y-3468284D01*
X-3314326Y-3288257D01*
X-3294540Y-3100000D01*
X-3314326Y-2911742D01*
X-3372820Y-2731715D01*
X-3467466Y-2567783D01*
X-3594129Y-2427110D01*
X-3747269Y-2315848D01*
X-3920197Y-2238855D01*
X-4105352Y-2199500D01*
X-4105354Y-2199500D01*
X-4294646Y-2199500D01*
X-4294648Y-2199500D01*
X-4479802Y-2238855D01*
X-4664636Y-2321149D01*
X-4665261Y-2319743D01*
X-4702074Y-2334988D01*
X-4759786Y-2330444D01*
X-4809146Y-2300195D01*
X-5563181Y-1546162D01*
X-5590061Y-1505934D01*
X-5599500Y-1458481D01*
X-5599500Y8375091D01*
X-5599274Y8382578D01*
X-5595642Y8442607D01*
X-5606481Y8501755D01*
X-5607608Y8509156D01*
X-5614860Y8568874D01*
X-5618453Y8578348D01*
X-5624479Y8599963D01*
X-5626306Y8609932D01*
X-5650988Y8664774D01*
X-5653853Y8671692D01*
X-5675182Y8727932D01*
X-5680942Y8736276D01*
X-5691965Y8755820D01*
X-5696121Y8765054D01*
X-5700912Y8771169D01*
X-5733208Y8812392D01*
X-5737644Y8818421D01*
X-5741701Y8824299D01*
X-5771817Y8867929D01*
X-5816846Y8907821D01*
X-5822299Y8912955D01*
X-7887058Y10977715D01*
X-7892178Y10983153D01*
X-7932071Y11028183D01*
X-7981577Y11062355D01*
X-7987597Y11066785D01*
X-8034941Y11103877D01*
X-8034943Y11103878D01*
X-8044184Y11108037D01*
X-8063730Y11119061D01*
X-8072070Y11124818D01*
X-8128322Y11146151D01*
X-8135218Y11149009D01*
X-8156298Y11158496D01*
X-8190068Y11173695D01*
X-8200035Y11175521D01*
X-8221651Y11181546D01*
X-8231128Y11185140D01*
X-8290840Y11192390D01*
X-8298185Y11193507D01*
X-8357394Y11204358D01*
X-8414102Y11200927D01*
X-8417434Y11200726D01*
X-8424921Y11200500D01*
X-17958480Y11200500D01*
X-18005933Y11209939D01*
X-18046161Y11236819D01*
X-18139813Y11330471D01*
X-18194425Y11363485D01*
X-18285394Y11418478D01*
X-18447804Y11469086D01*
X-18494857Y11473362D01*
X-18518383Y11475500D01*
X-18518384Y11475500D01*
X-19031616Y11475500D01*
X-19031617Y11475500D01*
X-19049261Y11473896D01*
X-19102196Y11469086D01*
X-19264606Y11418478D01*
X-19410185Y11330472D01*
X-19410186Y11330471D01*
X-19512319Y11228339D01*
X-19567906Y11196245D01*
X-19632094Y11196245D01*
X-19687681Y11228339D01*
X-19789813Y11330471D01*
X-19844425Y11363485D01*
X-19935394Y11418478D01*
X-20097804Y11469086D01*
X-20144857Y11473362D01*
X-20168383Y11475500D01*
X-20168384Y11475500D01*
X-20681616Y11475500D01*
X-20681617Y11475500D01*
X-20688031Y11474917D01*
X-20752196Y11469086D01*
X-20867312Y11433214D01*
X-20929226Y11430152D01*
X-20984888Y11457442D01*
X-21020383Y11508266D01*
X-21051647Y11592088D01*
X-21137811Y11707188D01*
X-21252910Y11793352D01*
X-21387624Y11843597D01*
X-21447176Y11850000D01*
X-21620000Y11850000D01*
X-21620000Y11324500D01*
X-21636613Y11262500D01*
X-21682000Y11217113D01*
X-21744000Y11200500D01*
X-21877633Y11200500D01*
X-21877641Y11200499D01*
X-21896000Y11200499D01*
X-21958000Y11217112D01*
X-22003387Y11262499D01*
X-22020000Y11324499D01*
X-22020000Y11850000D01*
X-22192824Y11850000D01*
X-22252375Y11843597D01*
X-22387089Y11793352D01*
X-22502188Y11707188D01*
X-22588352Y11592089D01*
X-22638597Y11457375D01*
X-22645000Y11397824D01*
X-22645000Y11350000D01*
X-22484434Y11350000D01*
X-22425007Y11334832D01*
X-22380119Y11293039D01*
X-22360750Y11234846D01*
X-22371640Y11174489D01*
X-22410121Y11126735D01*
X-22502546Y11057546D01*
X-22531356Y11019061D01*
X-22545858Y10999689D01*
X-22589621Y10963116D01*
X-22644961Y10950038D01*
X-22645000Y10950000D01*
X-22645000Y10902169D01*
X-22638380Y10840598D01*
X-22638380Y10814084D01*
X-22639089Y10807487D01*
X-22639091Y10807483D01*
X-22645500Y10747873D01*
X-22645499Y10252128D01*
X-22641158Y10211742D01*
X-22638632Y10188250D01*
X-22638633Y10161740D01*
X-22639090Y10157484D01*
X-22639091Y10157483D01*
X-22645500Y10097873D01*
X-22645499Y9602128D01*
X-22639091Y9542517D01*
X-22601827Y9442606D01*
X-22588795Y9407667D01*
X-22545233Y9349475D01*
X-22526846Y9314324D01*
X-22520500Y9275165D01*
X-22520500Y9081520D01*
X-22529938Y9034069D01*
X-22556816Y8993841D01*
X-22573835Y8976821D01*
X-22614065Y8949940D01*
X-22661519Y8940500D01*
X-22663390Y8940500D01*
X-22876610Y8940500D01*
X-23086198Y8901321D01*
X-23285019Y8824298D01*
X-23466302Y8712052D01*
X-23623872Y8568407D01*
X-23744205Y8409062D01*
X-23752368Y8398252D01*
X-23792236Y8318184D01*
X-23847405Y8207389D01*
X-23905756Y8002310D01*
X-23915792Y7893999D01*
X-23935370Y7837749D01*
X-23978922Y7797115D01*
X-24002181Y7790786D01*
X-23982428Y7786220D01*
X-23936567Y7745371D01*
X-23915933Y7687526D01*
X-23905756Y7577690D01*
X-23852293Y7389789D01*
X-23847404Y7372609D01*
X-23752368Y7181747D01*
X-23623873Y7011594D01*
X-23466301Y6867947D01*
X-23398252Y6825813D01*
X-23285021Y6755703D01*
X-23285017Y6755701D01*
X-23158145Y6706551D01*
X-23086198Y6678679D01*
X-22913458Y6646388D01*
X-22858506Y6621106D01*
X-22822053Y6572833D01*
X-22812774Y6513059D01*
X-22832878Y6456007D01*
X-22877581Y6415254D01*
X-22936245Y6400500D01*
X-25123871Y6400500D01*
X-25181692Y6414806D01*
X-25226171Y6454424D01*
X-25247045Y6510211D01*
X-25239497Y6569296D01*
X-25205268Y6618044D01*
X-25152258Y6645207D01*
X-25075229Y6663322D01*
X-25069629Y6664503D01*
X-24993801Y6678679D01*
X-24976881Y6685233D01*
X-24960488Y6690309D01*
X-24942816Y6694466D01*
X-24872207Y6725642D01*
X-24866918Y6727833D01*
X-24853527Y6733021D01*
X-24794981Y6755702D01*
X-24779541Y6765261D01*
X-24764365Y6773260D01*
X-24747762Y6780591D01*
X-24684113Y6824192D01*
X-24679316Y6827318D01*
X-24613697Y6867948D01*
X-24600285Y6880175D01*
X-24586834Y6890829D01*
X-24571858Y6901089D01*
X-24517288Y6955658D01*
X-24513148Y6959611D01*
X-24456123Y7011596D01*
X-24445189Y7026075D01*
X-24433928Y7039017D01*
X-24421089Y7051857D01*
X-24377479Y7115519D01*
X-24374135Y7120167D01*
X-24327633Y7181745D01*
X-24319539Y7198000D01*
X-24310844Y7212795D01*
X-24300592Y7227762D01*
X-24269417Y7298362D01*
X-24266985Y7303543D01*
X-24232594Y7372611D01*
X-24227627Y7390065D01*
X-24221801Y7406200D01*
X-24214467Y7422812D01*
X-24196798Y7497937D01*
X-24195358Y7503482D01*
X-24174243Y7577689D01*
X-24172568Y7595767D01*
X-24169805Y7612705D01*
X-24165651Y7630369D01*
X-24163272Y7681814D01*
X-24145329Y7740551D01*
X-24101402Y7783473D01*
X-24076567Y7790435D01*
X-24094532Y7794442D01*
X-24139915Y7833020D01*
X-24162073Y7888310D01*
X-24165685Y7914203D01*
X-24166465Y7919794D01*
X-24167123Y7925468D01*
X-24174243Y8002308D01*
X-24179209Y8019759D01*
X-24182754Y8036562D01*
X-24183674Y8043157D01*
X-24185261Y8054536D01*
X-24186584Y8058482D01*
X-24209785Y8127708D01*
X-24211479Y8133178D01*
X-24232594Y8207387D01*
X-24240684Y8223635D01*
X-24247252Y8239493D01*
X-24253019Y8256698D01*
X-24267151Y8282071D01*
X-24290577Y8324129D01*
X-24293241Y8329185D01*
X-24327632Y8398253D01*
X-24338566Y8412731D01*
X-24347941Y8427119D01*
X-24356773Y8442975D01*
X-24406087Y8502363D01*
X-24409642Y8506851D01*
X-24432338Y8536904D01*
X-24456128Y8568407D01*
X-24488269Y8597708D01*
X-24513157Y8620397D01*
X-24517299Y8624352D01*
X-25205766Y9312819D01*
X-25236016Y9362182D01*
X-25240558Y9419898D01*
X-25218403Y9473385D01*
X-25174380Y9510985D01*
X-25118085Y9524500D01*
X-24818383Y9524500D01*
X-24747803Y9530914D01*
X-24668521Y9555618D01*
X-24606606Y9558680D01*
X-24550946Y9531389D01*
X-24515451Y9480565D01*
X-24488352Y9407911D01*
X-24402188Y9292811D01*
X-24287089Y9206647D01*
X-24152375Y9156402D01*
X-24092824Y9150000D01*
X-23920000Y9150000D01*
X-23920000Y9675500D01*
X-23903387Y9737500D01*
X-23858000Y9782887D01*
X-23796000Y9799500D01*
X-23644000Y9799500D01*
X-23582000Y9782887D01*
X-23536613Y9737500D01*
X-23520000Y9675500D01*
X-23520000Y9150000D01*
X-23347176Y9150000D01*
X-23287624Y9156402D01*
X-23152910Y9206647D01*
X-23037811Y9292811D01*
X-22951647Y9407910D01*
X-22901402Y9542624D01*
X-22895000Y9602176D01*
X-22895000Y9650000D01*
X-23055566Y9650000D01*
X-23114993Y9665168D01*
X-23159881Y9706961D01*
X-23179250Y9765154D01*
X-23168360Y9825511D01*
X-23129878Y9873264D01*
X-23076880Y9912940D01*
X-23037453Y9942454D01*
X-22994142Y10000311D01*
X-22950379Y10036884D01*
X-22895038Y10049961D01*
X-22895000Y10050000D01*
X-22895000Y10097826D01*
X-22901619Y10159400D01*
X-22901619Y10185907D01*
X-22894500Y10252129D01*
X-22894500Y10747870D01*
X-22901367Y10811745D01*
X-22901367Y10838252D01*
X-22894500Y10902129D01*
X-22894500Y11397869D01*
X-22900909Y11457484D01*
X-22951204Y11592332D01*
X-22994767Y11650525D01*
X-23013154Y11685676D01*
X-23019500Y11724835D01*
X-23019500Y11918480D01*
X-23010060Y11965934D01*
X-22983179Y12006164D01*
X-22966158Y12023184D01*
X-22925930Y12050062D01*
X-22878479Y12059500D01*
X-22663392Y12059500D01*
X-22663390Y12059500D01*
X-22523664Y12085619D01*
X-22453801Y12098679D01*
X-22254982Y12175701D01*
X-22073698Y12287947D01*
X-21916128Y12431592D01*
X-21894504Y12460228D01*
X-21850821Y12496500D01*
X-21795550Y12509500D01*
X-21464921Y12509500D01*
X-21457434Y12509274D01*
X-21397391Y12505641D01*
X-21338226Y12516483D01*
X-21330827Y12517609D01*
X-21271128Y12524859D01*
X-21261648Y12528454D01*
X-21240047Y12534475D01*
X-21230070Y12536303D01*
X-21175219Y12560989D01*
X-21168305Y12563853D01*
X-21112069Y12585182D01*
X-21103725Y12590941D01*
X-21084186Y12601961D01*
X-21074942Y12606121D01*
X-21027597Y12643213D01*
X-21021568Y12647649D01*
X-20972070Y12681816D01*
X-20932183Y12726838D01*
X-20927051Y12732290D01*
X-20796160Y12863181D01*
X-20755932Y12890061D01*
X-20708479Y12899500D01*
X-19949991Y12899500D01*
X-19847203Y12910000D01*
X-19680665Y12965186D01*
X-19531342Y13057288D01*
X-19407288Y13181342D01*
X-19315186Y13330665D01*
X-19260000Y13497202D01*
X-19249500Y13599990D01*
X-19249500Y14026613D01*
X-19249501Y14475501D01*
X-19232888Y14537500D01*
X-19187501Y14582887D01*
X-19125501Y14599500D01*
X-16424500Y14599500D01*
X-16362500Y14582887D01*
X-16317113Y14537500D01*
X-16300500Y14475500D01*
X-16300500Y13268926D01*
X-16301028Y13257485D01*
X-16305429Y13210000D01*
X-16301004Y13162250D01*
X-16300500Y13156806D01*
X-16296659Y13115354D01*
X-16285756Y12997689D01*
X-16280238Y12978297D01*
X-16238489Y12831565D01*
X-16227404Y12792609D01*
X-16132368Y12601747D01*
X-16003873Y12431594D01*
X-15846301Y12287947D01*
X-15665017Y12175701D01*
X-15608563Y12153831D01*
X-15466198Y12098679D01*
X-15256610Y12059500D01*
X-15043392Y12059500D01*
X-15043390Y12059500D01*
X-14903664Y12085619D01*
X-14833801Y12098679D01*
X-14634982Y12175701D01*
X-14453698Y12287947D01*
X-14296126Y12431594D01*
X-14167631Y12601747D01*
X-14072595Y12792609D01*
X-14014243Y12997689D01*
X-14003341Y13115354D01*
X-13999500Y13156806D01*
X-13994571Y13210000D01*
X-13998971Y13257485D01*
X-13999500Y13268926D01*
X-13999500Y15580546D01*
X-13999368Y15586272D01*
X-13995804Y15663364D01*
X-13998311Y15681335D01*
X-13999500Y15698465D01*
X-13999500Y18231074D01*
X-13998971Y18242515D01*
X-13994571Y18290000D01*
X-14003005Y18381014D01*
X-14003005Y18381015D01*
X-14014243Y18502309D01*
X-14072595Y18707390D01*
X-14167631Y18898252D01*
X-14296126Y19068405D01*
X-14453698Y19212052D01*
X-14455145Y19212948D01*
X-14634981Y19324298D01*
X-14833802Y19401321D01*
X-15043390Y19440500D01*
X-15256610Y19440500D01*
X-15466198Y19401321D01*
X-15665019Y19324298D01*
X-15846302Y19212052D01*
X-16003872Y19068407D01*
X-16116246Y18919601D01*
X-16132368Y18898252D01*
X-16172237Y18818183D01*
X-16227405Y18707389D01*
X-16285756Y18502310D01*
X-16285756Y18502309D01*
X-16296995Y18381015D01*
X-16296995Y18381014D01*
X-16305429Y18290000D01*
X-16301029Y18242515D01*
X-16300500Y18231074D01*
X-16300500Y17024500D01*
X-16317113Y16962500D01*
X-16362500Y16917113D01*
X-16424500Y16900500D01*
X-19132567Y16900500D01*
X-19198175Y16919278D01*
X-19243912Y16969926D01*
X-19255925Y17037103D01*
X-19249500Y17099991D01*
X-19249500Y18000008D01*
X-19260000Y18102796D01*
X-19315186Y18269334D01*
X-19407288Y18418657D01*
X-19531342Y18542711D01*
X-19606482Y18589057D01*
X-19680666Y18634814D01*
X-19792017Y18671712D01*
X-19847202Y18689999D01*
X-19857702Y18691071D01*
X-19949991Y18700500D01*
X-20708480Y18700499D01*
X-20755933Y18709938D01*
X-20796161Y18736818D01*
X-20827058Y18767715D01*
X-20832178Y18773153D01*
X-20872071Y18818183D01*
X-20921577Y18852355D01*
X-20927597Y18856785D01*
X-20977197Y18895644D01*
X-21017528Y18951628D01*
X-21021694Y19020500D01*
X-20988405Y19080936D01*
X-15963662Y24105681D01*
X-15923434Y24132561D01*
X-15875981Y24142000D01*
X-9366653Y24142000D01*
X-9328335Y24135931D01*
G37*
%TD.AperFunction*%
%TA.AperFunction,Conductor*%
G36*
X-19512319Y-11228339D02*
G01*
X-19447618Y-11293039D01*
X-19410185Y-11330472D01*
X-19264606Y-11418478D01*
X-19102196Y-11469086D01*
X-19049261Y-11473896D01*
X-19031617Y-11475500D01*
X-19031616Y-11475500D01*
X-18518384Y-11475500D01*
X-18518383Y-11475500D01*
X-18494857Y-11473362D01*
X-18447804Y-11469086D01*
X-18285394Y-11418478D01*
X-18139815Y-11330472D01*
X-18139813Y-11330471D01*
X-18046161Y-11236819D01*
X-18005933Y-11209939D01*
X-17958480Y-11200500D01*
X-10321183Y-11200500D01*
X-10264888Y-11214015D01*
X-10220865Y-11251615D01*
X-10198710Y-11305102D01*
X-10203252Y-11362818D01*
X-10233502Y-11412181D01*
X-10677715Y-11856394D01*
X-10683153Y-11861514D01*
X-10728183Y-11901407D01*
X-10762355Y-11950913D01*
X-10766785Y-11956933D01*
X-10803877Y-12004277D01*
X-10808035Y-12013517D01*
X-10819061Y-12033066D01*
X-10824818Y-12041406D01*
X-10846151Y-12097658D01*
X-10849009Y-12104554D01*
X-10873695Y-12159404D01*
X-10875422Y-12168831D01*
X-10875521Y-12169370D01*
X-10881546Y-12190987D01*
X-10885140Y-12200464D01*
X-10892390Y-12260176D01*
X-10893507Y-12267521D01*
X-10904358Y-12326730D01*
X-10901787Y-12369227D01*
X-10900726Y-12386770D01*
X-10900500Y-12394257D01*
X-10900500Y-19275500D01*
X-10917113Y-19337500D01*
X-10962500Y-19382887D01*
X-11024500Y-19399500D01*
X-11657628Y-19399500D01*
X-14339238Y-19399500D01*
X-14396551Y-19385460D01*
X-14440886Y-19346519D01*
X-14462202Y-19291496D01*
X-14455673Y-19232851D01*
X-14422776Y-19183863D01*
X-14296128Y-19068408D01*
X-14167631Y-18898252D01*
X-14072595Y-18707390D01*
X-14014243Y-18502310D01*
X-13999500Y-18343194D01*
X-13994571Y-18289999D01*
X-13998971Y-18242515D01*
X-13999500Y-18231074D01*
X-13999500Y-15879439D01*
X-13999368Y-15873714D01*
X-13996407Y-15809654D01*
X-13995805Y-15796638D01*
X-13998310Y-15778672D01*
X-13999500Y-15761542D01*
X-13999500Y-13268926D01*
X-13998971Y-13257485D01*
X-13994571Y-13210000D01*
X-14003005Y-13118986D01*
X-14003005Y-13118985D01*
X-14014243Y-12997690D01*
X-14072595Y-12792609D01*
X-14167631Y-12601747D01*
X-14296126Y-12431594D01*
X-14453698Y-12287947D01*
X-14634982Y-12175701D01*
X-14833801Y-12098679D01*
X-14903664Y-12085619D01*
X-15043390Y-12059500D01*
X-15256610Y-12059500D01*
X-15460602Y-12097633D01*
X-15466198Y-12098679D01*
X-15665017Y-12175701D01*
X-15665019Y-12175702D01*
X-15734802Y-12218909D01*
X-15846301Y-12287947D01*
X-16003873Y-12431594D01*
X-16132368Y-12601747D01*
X-16218175Y-12774074D01*
X-16227405Y-12792611D01*
X-16260806Y-12910001D01*
X-16285756Y-12997690D01*
X-16291455Y-13059201D01*
X-16296995Y-13118986D01*
X-16305429Y-13210000D01*
X-16303514Y-13230665D01*
X-16301029Y-13257485D01*
X-16300500Y-13268926D01*
X-16300500Y-14475500D01*
X-16317113Y-14537500D01*
X-16362500Y-14582887D01*
X-16424500Y-14599500D01*
X-18732567Y-14599500D01*
X-18798175Y-14580722D01*
X-18843912Y-14530074D01*
X-18855925Y-14462897D01*
X-18849500Y-14400008D01*
X-18849500Y-13499991D01*
X-18860000Y-13397203D01*
X-18915186Y-13230665D01*
X-19007288Y-13081342D01*
X-19131342Y-12957288D01*
X-19280665Y-12865186D01*
X-19447202Y-12810000D01*
X-19549991Y-12799500D01*
X-20308480Y-12799500D01*
X-20355934Y-12790061D01*
X-20396159Y-12763182D01*
X-20427052Y-12732289D01*
X-20432183Y-12726838D01*
X-20472070Y-12681816D01*
X-20521568Y-12647649D01*
X-20527597Y-12643213D01*
X-20574942Y-12606121D01*
X-20584186Y-12601961D01*
X-20603725Y-12590941D01*
X-20612069Y-12585182D01*
X-20668305Y-12563853D01*
X-20675219Y-12560989D01*
X-20730070Y-12536303D01*
X-20740047Y-12534475D01*
X-20761648Y-12528454D01*
X-20771128Y-12524859D01*
X-20830827Y-12517609D01*
X-20838226Y-12516483D01*
X-20897391Y-12505641D01*
X-20935534Y-12507949D01*
X-20988739Y-12499440D01*
X-21033311Y-12469167D01*
X-21060836Y-12422848D01*
X-21066117Y-12369227D01*
X-21057610Y-12299172D01*
X-21056483Y-12291770D01*
X-21045641Y-12232607D01*
X-21049274Y-12172566D01*
X-21049500Y-12165079D01*
X-21049500Y-11724835D01*
X-21043154Y-11685676D01*
X-21024767Y-11650525D01*
X-20981205Y-11592333D01*
X-20981114Y-11592089D01*
X-20957193Y-11527955D01*
X-20921699Y-11477132D01*
X-20866037Y-11449841D01*
X-20804124Y-11452904D01*
X-20752196Y-11469086D01*
X-20687044Y-11475006D01*
X-20681617Y-11475500D01*
X-20681616Y-11475500D01*
X-20168384Y-11475500D01*
X-20168383Y-11475500D01*
X-20144857Y-11473362D01*
X-20097804Y-11469086D01*
X-19935394Y-11418478D01*
X-19789815Y-11330472D01*
X-19789813Y-11330471D01*
X-19687681Y-11228339D01*
X-19632094Y-11196245D01*
X-19567906Y-11196245D01*
X-19512319Y-11228339D01*
G37*
%TD.AperFunction*%
%TA.AperFunction,Conductor*%
G36*
X25181692Y-6414806D02*
G01*
X25226171Y-6454424D01*
X25247045Y-6510211D01*
X25239497Y-6569296D01*
X25205268Y-6618044D01*
X25152258Y-6645207D01*
X25075229Y-6663322D01*
X25069629Y-6664503D01*
X24993801Y-6678679D01*
X24976881Y-6685233D01*
X24960488Y-6690309D01*
X24942816Y-6694466D01*
X24872207Y-6725642D01*
X24866916Y-6727833D01*
X24794981Y-6755702D01*
X24785296Y-6761697D01*
X24779541Y-6765261D01*
X24764365Y-6773260D01*
X24747762Y-6780591D01*
X24684113Y-6824192D01*
X24679316Y-6827318D01*
X24613697Y-6867948D01*
X24600285Y-6880175D01*
X24586834Y-6890829D01*
X24571857Y-6901089D01*
X24571858Y-6901089D01*
X24517288Y-6955658D01*
X24513148Y-6959611D01*
X24456123Y-7011596D01*
X24445189Y-7026075D01*
X24433928Y-7039017D01*
X24421089Y-7051857D01*
X24377479Y-7115519D01*
X24374135Y-7120167D01*
X24327633Y-7181745D01*
X24319539Y-7198000D01*
X24310844Y-7212795D01*
X24300592Y-7227762D01*
X24269417Y-7298362D01*
X24266985Y-7303543D01*
X24232594Y-7372611D01*
X24227627Y-7390065D01*
X24221801Y-7406200D01*
X24214467Y-7422812D01*
X24196798Y-7497937D01*
X24195358Y-7503482D01*
X24174243Y-7577689D01*
X24172568Y-7595767D01*
X24169805Y-7612705D01*
X24165651Y-7630369D01*
X24163272Y-7681814D01*
X24145329Y-7740551D01*
X24101402Y-7783473D01*
X24076567Y-7790435D01*
X24094532Y-7794442D01*
X24139915Y-7833020D01*
X24162073Y-7888310D01*
X24164438Y-7905263D01*
X24166306Y-7918657D01*
X24166463Y-7919777D01*
X24167123Y-7925468D01*
X24174243Y-8002308D01*
X24179209Y-8019759D01*
X24182753Y-8036558D01*
X24185261Y-8054536D01*
X24185261Y-8054538D01*
X24185262Y-8054539D01*
X24209785Y-8127708D01*
X24211479Y-8133178D01*
X24232594Y-8207387D01*
X24240684Y-8223635D01*
X24247252Y-8239493D01*
X24253019Y-8256698D01*
X24253020Y-8256700D01*
X24253021Y-8256702D01*
X24287264Y-8318182D01*
X24290571Y-8324118D01*
X24293241Y-8329185D01*
X24327632Y-8398253D01*
X24338566Y-8412731D01*
X24347941Y-8427119D01*
X24356773Y-8442975D01*
X24406087Y-8502363D01*
X24409642Y-8506851D01*
X24456128Y-8568407D01*
X24472004Y-8582880D01*
X24513157Y-8620397D01*
X24517299Y-8624352D01*
X25435645Y-9542698D01*
X25439600Y-9546840D01*
X25476176Y-9586961D01*
X25503806Y-9636565D01*
X25506429Y-9693284D01*
X25483494Y-9745226D01*
X25439812Y-9781500D01*
X25384540Y-9794500D01*
X24918383Y-9794500D01*
X24847804Y-9800914D01*
X24714769Y-9842368D01*
X24652853Y-9845430D01*
X24597193Y-9818139D01*
X24561698Y-9767315D01*
X24528352Y-9677911D01*
X24442188Y-9562811D01*
X24327089Y-9476647D01*
X24192375Y-9426402D01*
X24132824Y-9420000D01*
X23960000Y-9420000D01*
X23960000Y-9945500D01*
X23943387Y-10007500D01*
X23898000Y-10052887D01*
X23836000Y-10069500D01*
X23684000Y-10069500D01*
X23622000Y-10052887D01*
X23576613Y-10007500D01*
X23560000Y-9945500D01*
X23560000Y-9420000D01*
X23387176Y-9420000D01*
X23327624Y-9426402D01*
X23192910Y-9476647D01*
X23077811Y-9562811D01*
X22991647Y-9677910D01*
X22941402Y-9812624D01*
X22935000Y-9872176D01*
X22935000Y-9920000D01*
X23095566Y-9920000D01*
X23154993Y-9935168D01*
X23199881Y-9976961D01*
X23219250Y-10035154D01*
X23208360Y-10095511D01*
X23169878Y-10143264D01*
X23150886Y-10157483D01*
X23077453Y-10212454D01*
X23034142Y-10270311D01*
X22990379Y-10306884D01*
X22935038Y-10319961D01*
X22935000Y-10320000D01*
X22935000Y-10367826D01*
X22941619Y-10429400D01*
X22941619Y-10455907D01*
X22934500Y-10522129D01*
X22934500Y-11017870D01*
X22941367Y-11081745D01*
X22941367Y-11108252D01*
X22934500Y-11172129D01*
X22934500Y-11667869D01*
X22940909Y-11727484D01*
X22957823Y-11772833D01*
X22986038Y-11848481D01*
X22997435Y-11879036D01*
X22995924Y-11879599D01*
X23007970Y-11907725D01*
X23003801Y-11966042D01*
X22973374Y-12015967D01*
X22966167Y-12023175D01*
X22925937Y-12050059D01*
X22878480Y-12059500D01*
X22728293Y-12059500D01*
X22663126Y-12040995D01*
X22617409Y-11991004D01*
X22604787Y-11924447D01*
X22622260Y-11878844D01*
X22622122Y-11878793D01*
X22678597Y-11727375D01*
X22685000Y-11667824D01*
X22685000Y-11620000D01*
X22524434Y-11620000D01*
X22465007Y-11604832D01*
X22420119Y-11563039D01*
X22400750Y-11504846D01*
X22411640Y-11444489D01*
X22450121Y-11396735D01*
X22542546Y-11327546D01*
X22585857Y-11269689D01*
X22629621Y-11233116D01*
X22684961Y-11220038D01*
X22685000Y-11220000D01*
X22685000Y-11172169D01*
X22678380Y-11110598D01*
X22678380Y-11084084D01*
X22679089Y-11077487D01*
X22679091Y-11077483D01*
X22685500Y-11017873D01*
X22685499Y-10522128D01*
X22679091Y-10462517D01*
X22679090Y-10462515D01*
X22678632Y-10458250D01*
X22678633Y-10431740D01*
X22679091Y-10427483D01*
X22685500Y-10367873D01*
X22685499Y-9872128D01*
X22679091Y-9812517D01*
X22628796Y-9677669D01*
X22628794Y-9677666D01*
X22585233Y-9619475D01*
X22566846Y-9584324D01*
X22560500Y-9545165D01*
X22560500Y-9064500D01*
X22577113Y-9002500D01*
X22622500Y-8957113D01*
X22684500Y-8940500D01*
X22876608Y-8940500D01*
X22876610Y-8940500D01*
X23086198Y-8901321D01*
X23285019Y-8824298D01*
X23466302Y-8712052D01*
X23623872Y-8568407D01*
X23752366Y-8398255D01*
X23752366Y-8398253D01*
X23752368Y-8398252D01*
X23816047Y-8270365D01*
X23847405Y-8207389D01*
X23905756Y-8002310D01*
X23915792Y-7893999D01*
X23935370Y-7837749D01*
X23978922Y-7797115D01*
X24002181Y-7790786D01*
X23982428Y-7786220D01*
X23936567Y-7745371D01*
X23915933Y-7687525D01*
X23914477Y-7671815D01*
X23905756Y-7577690D01*
X23905042Y-7575182D01*
X23862233Y-7424725D01*
X23847405Y-7372611D01*
X23813014Y-7303543D01*
X23752368Y-7181747D01*
X23623873Y-7011594D01*
X23466301Y-6867947D01*
X23350619Y-6796320D01*
X23285019Y-6755702D01*
X23285017Y-6755701D01*
X23086198Y-6678679D01*
X23068357Y-6675344D01*
X22913458Y-6646388D01*
X22858506Y-6621106D01*
X22822053Y-6572833D01*
X22812774Y-6513059D01*
X22832878Y-6456007D01*
X22877581Y-6415254D01*
X22936245Y-6400500D01*
X25123871Y-6400500D01*
X25181692Y-6414806D01*
G37*
%TD.AperFunction*%
%TA.AperFunction,Conductor*%
G36*
X10596091Y9090561D02*
G01*
X10636319Y9063681D01*
X11063681Y8636319D01*
X11090561Y8596091D01*
X11100000Y8548638D01*
X11100000Y-642489D01*
X11088490Y-694662D01*
X11056097Y-737148D01*
X9842923Y-1763681D01*
X9834675Y-1770660D01*
X9797229Y-1792434D01*
X9754578Y-1800000D01*
X6851362Y-1800000D01*
X6803909Y-1790561D01*
X6763681Y-1763681D01*
X6036319Y-1036319D01*
X6009439Y-996091D01*
X6000000Y-948638D01*
X6000000Y-450000D01*
X6275001Y-450000D01*
X6275001Y-498315D01*
X6285143Y-597605D01*
X6338453Y-758486D01*
X6427426Y-902732D01*
X6547267Y-1022573D01*
X6691513Y-1111546D01*
X6852393Y-1164856D01*
X6951685Y-1175000D01*
X6975000Y-1175000D01*
X6975000Y-1174999D01*
X7475000Y-1174999D01*
X7498315Y-1174999D01*
X7597605Y-1164856D01*
X7758484Y-1111546D01*
X7902732Y-1022572D01*
X7911963Y-1013341D01*
X7967551Y-981245D01*
X8031741Y-981245D01*
X8087329Y-1013341D01*
X8096957Y-1022969D01*
X8241300Y-1112002D01*
X8241302Y-1112002D01*
X8241303Y-1112003D01*
X8402292Y-1165349D01*
X8501655Y-1175500D01*
X9048344Y-1175499D01*
X9147708Y-1165349D01*
X9308697Y-1112003D01*
X9453044Y-1022968D01*
X9572968Y-903044D01*
X9662003Y-758697D01*
X9715349Y-597708D01*
X9725500Y-498345D01*
X9725499Y98344D01*
X9715349Y197708D01*
X9692324Y267189D01*
X9689372Y334788D01*
X9722349Y393874D01*
X9871594Y543119D01*
X9871598Y543123D01*
X9997102Y722361D01*
X10089575Y920670D01*
X10146207Y1132023D01*
X10165277Y1350000D01*
X10146207Y1567977D01*
X10089575Y1779330D01*
X9997102Y1977638D01*
X9871598Y2156877D01*
X9716877Y2311598D01*
X9537639Y2437102D01*
X9339330Y2529575D01*
X9127977Y2586207D01*
X8910000Y2605277D01*
X8692023Y2586207D01*
X8480670Y2529575D01*
X8282362Y2437102D01*
X8172248Y2360000D01*
X8103122Y2311597D01*
X7948402Y2156877D01*
X7822898Y1977638D01*
X7730425Y1779331D01*
X7673792Y1567974D01*
X7654722Y1350000D01*
X7673792Y1132025D01*
X7730537Y920251D01*
X7731724Y860878D01*
X7705169Y807762D01*
X7656962Y773085D01*
X7598159Y764799D01*
X7498314Y775000D01*
X7475000Y775000D01*
X7475000Y-1174999D01*
X6975000Y-1174999D01*
X6975000Y-450000D01*
X6275001Y-450000D01*
X6000000Y-450000D01*
X6000000Y50000D01*
X6275000Y50000D01*
X6975000Y50000D01*
X6975000Y774999D01*
X6951685Y774999D01*
X6852394Y764856D01*
X6691513Y711546D01*
X6547267Y622573D01*
X6427426Y502732D01*
X6338453Y358486D01*
X6285143Y197606D01*
X6275000Y98315D01*
X6275000Y50000D01*
X6000000Y50000D01*
X6000000Y7950000D01*
X6275001Y7950000D01*
X6275001Y7901685D01*
X6285143Y7802394D01*
X6338453Y7641513D01*
X6427426Y7497267D01*
X6547267Y7377426D01*
X6691513Y7288453D01*
X6852393Y7235143D01*
X6951685Y7225000D01*
X6975000Y7225000D01*
X6975000Y7950000D01*
X6275001Y7950000D01*
X6000000Y7950000D01*
X6000000Y8448638D01*
X6009439Y8496091D01*
X6036319Y8536319D01*
X6063319Y8563319D01*
X6112682Y8593569D01*
X6170398Y8598111D01*
X6223885Y8575956D01*
X6261485Y8531933D01*
X6275000Y8475638D01*
X6275000Y8450000D01*
X7351000Y8450000D01*
X7413000Y8433387D01*
X7458387Y8388000D01*
X7475000Y8326000D01*
X7475000Y7225001D01*
X7498315Y7225001D01*
X7597605Y7235143D01*
X7758483Y7288452D01*
X7885403Y7366738D01*
X7947795Y7385169D01*
X8010932Y7369476D01*
X8057433Y7323978D01*
X8074500Y7261199D01*
X8074500Y7214337D01*
X8065061Y7166884D01*
X8038181Y7126656D01*
X7948402Y7036877D01*
X7822898Y6857638D01*
X7730425Y6659331D01*
X7673792Y6447974D01*
X7654722Y6230000D01*
X7673792Y6012025D01*
X7730425Y5800668D01*
X7795283Y5661581D01*
X7822898Y5602361D01*
X7944615Y5428532D01*
X7948405Y5423119D01*
X8103119Y5268405D01*
X8103122Y5268402D01*
X8103123Y5268402D01*
X8282361Y5142898D01*
X8282362Y5142897D01*
X8282363Y5142897D01*
X8480668Y5050425D01*
X8692025Y4993792D01*
X8910000Y4974722D01*
X9127974Y4993792D01*
X9339331Y5050425D01*
X9446205Y5100261D01*
X9537639Y5142898D01*
X9716877Y5268402D01*
X9871598Y5423123D01*
X9997102Y5602361D01*
X10089575Y5800670D01*
X10146207Y6012023D01*
X10152661Y6085796D01*
X10165278Y6230000D01*
X10148500Y6421765D01*
X10146207Y6447977D01*
X10089575Y6659330D01*
X9997102Y6857638D01*
X9871598Y7036877D01*
X9716877Y7191598D01*
X9573684Y7291862D01*
X9537423Y7331435D01*
X9521282Y7382628D01*
X9528288Y7435845D01*
X9557129Y7481116D01*
X9572968Y7496955D01*
X9662002Y7641300D01*
X9715349Y7802292D01*
X9718971Y7837749D01*
X9725500Y7901655D01*
X9725499Y8498344D01*
X9715349Y8597708D01*
X9662003Y8758697D01*
X9648481Y8780620D01*
X9568121Y8910903D01*
X9549689Y8973295D01*
X9565381Y9036431D01*
X9610880Y9082933D01*
X9673659Y9100000D01*
X10548638Y9100000D01*
X10596091Y9090561D01*
G37*
%TD.AperFunction*%
%TA.AperFunction,Conductor*%
G36*
X-19512319Y9771661D02*
G01*
X-19410186Y9669528D01*
X-19344499Y9629819D01*
X-19264606Y9581522D01*
X-19139082Y9542408D01*
X-19102193Y9530913D01*
X-19031617Y9524500D01*
X-19031616Y9524500D01*
X-18518384Y9524500D01*
X-18518383Y9524500D01*
X-18447806Y9530913D01*
X-18333166Y9566636D01*
X-18285394Y9581522D01*
X-18285392Y9581523D01*
X-18139813Y9669528D01*
X-18046161Y9763181D01*
X-18005933Y9790061D01*
X-17958480Y9799500D01*
X-8970378Y9799500D01*
X-8915243Y9786568D01*
X-8871608Y9750470D01*
X-8848574Y9698735D01*
X-8850946Y9642154D01*
X-8878228Y9592528D01*
X-8932533Y9532216D01*
X-9027179Y9368284D01*
X-9068424Y9241344D01*
X-9098671Y9191984D01*
X-11577731Y6712924D01*
X-11583150Y6707823D01*
X-11628183Y6667929D01*
X-11662355Y6618420D01*
X-11666775Y6612413D01*
X-11703878Y6565057D01*
X-11708033Y6555823D01*
X-11719060Y6536270D01*
X-11724818Y6527930D01*
X-11746152Y6471673D01*
X-11748996Y6464808D01*
X-11773695Y6409932D01*
X-11774427Y6405935D01*
X-11775522Y6399960D01*
X-11781552Y6378331D01*
X-11785140Y6368871D01*
X-11792387Y6309184D01*
X-11793513Y6301782D01*
X-11804358Y6242606D01*
X-11803595Y6230000D01*
X-11800726Y6182566D01*
X-11800500Y6175079D01*
X-11800500Y1224500D01*
X-11817113Y1162500D01*
X-11862500Y1117113D01*
X-11924500Y1100500D01*
X-21945500Y1100500D01*
X-22007500Y1117113D01*
X-22052887Y1162500D01*
X-22069500Y1224500D01*
X-22069500Y1737023D01*
X-22058935Y1787109D01*
X-22029039Y1828660D01*
X-21916128Y1931592D01*
X-21894504Y1960228D01*
X-21850821Y1996500D01*
X-21795550Y2009500D01*
X-20564921Y2009500D01*
X-20557434Y2009274D01*
X-20497391Y2005641D01*
X-20438226Y2016483D01*
X-20430827Y2017609D01*
X-20371128Y2024859D01*
X-20361648Y2028454D01*
X-20340047Y2034475D01*
X-20330070Y2036303D01*
X-20275219Y2060989D01*
X-20268305Y2063853D01*
X-20212069Y2085182D01*
X-20203725Y2090941D01*
X-20184186Y2101961D01*
X-20174942Y2106121D01*
X-20127597Y2143213D01*
X-20121568Y2147649D01*
X-20072070Y2181816D01*
X-20032183Y2226838D01*
X-20027051Y2232290D01*
X-19996160Y2263181D01*
X-19955932Y2290061D01*
X-19908479Y2299500D01*
X-19149991Y2299500D01*
X-19047203Y2310000D01*
X-18880665Y2365186D01*
X-18731342Y2457288D01*
X-18607288Y2581342D01*
X-18515186Y2730665D01*
X-18460000Y2897202D01*
X-18449500Y2999990D01*
X-18449500Y3900009D01*
X-18455925Y3962899D01*
X-18443911Y4030075D01*
X-18398174Y4080722D01*
X-18332567Y4099500D01*
X-16424500Y4099500D01*
X-16362500Y4082887D01*
X-16317113Y4037500D01*
X-16300500Y3975500D01*
X-16300500Y2768926D01*
X-16301028Y2757485D01*
X-16305429Y2710000D01*
X-16301004Y2662250D01*
X-16300500Y2656806D01*
X-16296659Y2615354D01*
X-16285756Y2497689D01*
X-16270897Y2445467D01*
X-16232353Y2310000D01*
X-16227404Y2292609D01*
X-16132368Y2101747D01*
X-16003873Y1931594D01*
X-15846301Y1787947D01*
X-15665017Y1675701D01*
X-15466198Y1598679D01*
X-15256610Y1559500D01*
X-15043392Y1559500D01*
X-15043390Y1559500D01*
X-14903664Y1585619D01*
X-14833801Y1598679D01*
X-14634982Y1675701D01*
X-14453698Y1787947D01*
X-14296126Y1931594D01*
X-14167631Y2101747D01*
X-14072595Y2292609D01*
X-14014243Y2497689D01*
X-14003341Y2615354D01*
X-13999500Y2656806D01*
X-13994571Y2710000D01*
X-13998971Y2757485D01*
X-13999500Y2768926D01*
X-13999500Y4960545D01*
X-13999368Y4966271D01*
X-13995804Y5043363D01*
X-13998311Y5061334D01*
X-13999500Y5078464D01*
X-13999500Y7731074D01*
X-13998971Y7742515D01*
X-13994571Y7790000D01*
X-14003005Y7881014D01*
X-14003005Y7881015D01*
X-14014243Y8002309D01*
X-14072595Y8207390D01*
X-14167631Y8398252D01*
X-14296126Y8568405D01*
X-14328269Y8597707D01*
X-14453698Y8712052D01*
X-14634981Y8824298D01*
X-14833802Y8901321D01*
X-15043390Y8940500D01*
X-15256610Y8940500D01*
X-15466198Y8901321D01*
X-15665019Y8824298D01*
X-15846302Y8712052D01*
X-16003872Y8568407D01*
X-16124205Y8409062D01*
X-16132368Y8398252D01*
X-16172236Y8318184D01*
X-16227405Y8207389D01*
X-16285756Y8002310D01*
X-16285756Y8002309D01*
X-16296995Y7881015D01*
X-16296995Y7881014D01*
X-16305429Y7790000D01*
X-16301029Y7742515D01*
X-16300500Y7731074D01*
X-16300500Y6524500D01*
X-16317113Y6462500D01*
X-16362500Y6417113D01*
X-16424500Y6400500D01*
X-18325500Y6400500D01*
X-18387500Y6417113D01*
X-18432887Y6462500D01*
X-18449500Y6524500D01*
X-18449500Y7400008D01*
X-18460000Y7502796D01*
X-18515186Y7669334D01*
X-18607288Y7818657D01*
X-18731342Y7942711D01*
X-18812406Y7992711D01*
X-18880666Y8034814D01*
X-18992016Y8071712D01*
X-19047202Y8089999D01*
X-19057702Y8091071D01*
X-19149991Y8100500D01*
X-19908480Y8100499D01*
X-19955933Y8109938D01*
X-19996161Y8136818D01*
X-20127058Y8267715D01*
X-20132178Y8273153D01*
X-20172071Y8318183D01*
X-20221577Y8352355D01*
X-20227597Y8356785D01*
X-20274941Y8393877D01*
X-20274943Y8393878D01*
X-20284184Y8398037D01*
X-20303730Y8409061D01*
X-20312070Y8414818D01*
X-20368322Y8436151D01*
X-20375218Y8439009D01*
X-20396613Y8448638D01*
X-20430068Y8463695D01*
X-20440035Y8465521D01*
X-20461651Y8471546D01*
X-20471128Y8475140D01*
X-20530840Y8482390D01*
X-20538185Y8483507D01*
X-20597394Y8494358D01*
X-20654102Y8490927D01*
X-20657434Y8490726D01*
X-20664921Y8490500D01*
X-21004682Y8490500D01*
X-21070973Y8509707D01*
X-21116727Y8561378D01*
X-21127771Y8629506D01*
X-21127603Y8630884D01*
X-21126483Y8638227D01*
X-21115641Y8697391D01*
X-21119274Y8757434D01*
X-21119500Y8764921D01*
X-21119500Y9275165D01*
X-21113154Y9314324D01*
X-21094767Y9349475D01*
X-21051204Y9407668D01*
X-21019904Y9491585D01*
X-20984409Y9542408D01*
X-20928749Y9569698D01*
X-20866834Y9566636D01*
X-20752196Y9530914D01*
X-20705142Y9526637D01*
X-20681617Y9524500D01*
X-20681616Y9524500D01*
X-20168384Y9524500D01*
X-20168383Y9524500D01*
X-20097806Y9530913D01*
X-19983166Y9566636D01*
X-19935394Y9581522D01*
X-19935392Y9581523D01*
X-19789813Y9669528D01*
X-19687681Y9771661D01*
X-19632094Y9803755D01*
X-19567906Y9803755D01*
X-19512319Y9771661D01*
G37*
%TD.AperFunction*%
%TA.AperFunction,Conductor*%
G36*
X25181694Y14585194D02*
G01*
X25226173Y14545577D01*
X25247047Y14489790D01*
X25239500Y14430706D01*
X25205272Y14381958D01*
X25152263Y14354794D01*
X25075256Y14336682D01*
X25069663Y14335501D01*
X24993802Y14321321D01*
X24976881Y14314765D01*
X24960497Y14309691D01*
X24942814Y14305533D01*
X24872206Y14274356D01*
X24866954Y14272180D01*
X24794981Y14244298D01*
X24784684Y14237923D01*
X24779547Y14234742D01*
X24764359Y14226736D01*
X24747763Y14219408D01*
X24692783Y14181745D01*
X24684100Y14175798D01*
X24679300Y14172671D01*
X24613697Y14132052D01*
X24600290Y14119829D01*
X24586829Y14109166D01*
X24571858Y14098911D01*
X24517277Y14044330D01*
X24513157Y14040397D01*
X24490498Y14019740D01*
X24456128Y13988407D01*
X24445196Y13973931D01*
X24445191Y13973924D01*
X24433920Y13960973D01*
X24421089Y13948142D01*
X24395304Y13910500D01*
X24377487Y13884490D01*
X24374141Y13879840D01*
X24327634Y13818255D01*
X24327633Y13818253D01*
X24319540Y13802001D01*
X24310845Y13787205D01*
X24300592Y13772237D01*
X24300590Y13772232D01*
X24269426Y13701654D01*
X24266993Y13696471D01*
X24232595Y13627389D01*
X24227629Y13609938D01*
X24221800Y13593796D01*
X24214467Y13577186D01*
X24214465Y13577181D01*
X24196800Y13502072D01*
X24195360Y13496527D01*
X24174244Y13422312D01*
X24172569Y13404237D01*
X24169805Y13387291D01*
X24165651Y13369629D01*
X24163272Y13318185D01*
X24145329Y13259448D01*
X24101402Y13216526D01*
X24076567Y13209563D01*
X24094532Y13205557D01*
X24139915Y13166979D01*
X24162073Y13111689D01*
X24164579Y13093719D01*
X24166336Y13081128D01*
X24166463Y13080222D01*
X24167123Y13074531D01*
X24174244Y12997686D01*
X24179210Y12980231D01*
X24182753Y12963436D01*
X24185260Y12945467D01*
X24209786Y12872289D01*
X24211479Y12866821D01*
X24232595Y12792607D01*
X24240687Y12776356D01*
X24247253Y12760504D01*
X24253020Y12743297D01*
X24290566Y12675888D01*
X24293236Y12670824D01*
X24327635Y12601741D01*
X24338566Y12587267D01*
X24347938Y12572885D01*
X24356772Y12557024D01*
X24406079Y12497646D01*
X24409633Y12493159D01*
X24456128Y12431592D01*
X24513147Y12379611D01*
X24517288Y12375657D01*
X25285765Y11607181D01*
X25316015Y11557818D01*
X25320557Y11500102D01*
X25298402Y11446615D01*
X25254379Y11409015D01*
X25198084Y11395500D01*
X24918383Y11395500D01*
X24905850Y11394361D01*
X24847804Y11389086D01*
X24687890Y11339255D01*
X24625978Y11336194D01*
X24570317Y11363485D01*
X24534822Y11414309D01*
X24498352Y11512088D01*
X24412188Y11627188D01*
X24297089Y11713352D01*
X24162375Y11763597D01*
X24102824Y11770000D01*
X23930000Y11770000D01*
X23930000Y11244500D01*
X23913387Y11182500D01*
X23868000Y11137113D01*
X23806000Y11120500D01*
X23675355Y11120500D01*
X23675345Y11120499D01*
X23654000Y11120499D01*
X23592000Y11137112D01*
X23546613Y11182499D01*
X23530000Y11244499D01*
X23530000Y11770000D01*
X23357176Y11770000D01*
X23297624Y11763597D01*
X23162910Y11713352D01*
X23047811Y11627188D01*
X22961647Y11512089D01*
X22911402Y11377375D01*
X22905000Y11317824D01*
X22905000Y11270000D01*
X23065566Y11270000D01*
X23124993Y11254832D01*
X23169881Y11213039D01*
X23189250Y11154846D01*
X23178360Y11094489D01*
X23139878Y11046735D01*
X23051220Y10980365D01*
X23047453Y10977545D01*
X23004142Y10919689D01*
X22960379Y10883116D01*
X22905038Y10870038D01*
X22905000Y10870000D01*
X22905000Y10822174D01*
X22911619Y10760599D01*
X22911619Y10734092D01*
X22910909Y10727483D01*
X22906692Y10688256D01*
X22904500Y10667870D01*
X22904500Y10172128D01*
X22911367Y10108253D01*
X22911367Y10081747D01*
X22904500Y10017870D01*
X22904500Y9522130D01*
X22910909Y9462515D01*
X22961204Y9327667D01*
X23004767Y9269475D01*
X23023154Y9234324D01*
X23029500Y9195165D01*
X23029500Y9091519D01*
X23020061Y9044066D01*
X22993181Y9003838D01*
X22966162Y8976819D01*
X22925934Y8949939D01*
X22878481Y8940500D01*
X22876610Y8940500D01*
X22663390Y8940500D01*
X22500194Y8909993D01*
X22434666Y8915483D01*
X22381157Y8953711D01*
X22354720Y9013925D01*
X22362792Y9079190D01*
X22403102Y9131149D01*
X22512188Y9212811D01*
X22598352Y9327910D01*
X22648597Y9462624D01*
X22655000Y9522176D01*
X22655000Y9570000D01*
X22494434Y9570000D01*
X22435007Y9585168D01*
X22390119Y9626961D01*
X22370750Y9685154D01*
X22381640Y9745511D01*
X22420121Y9793264D01*
X22512546Y9862454D01*
X22541027Y9900500D01*
X22555858Y9920311D01*
X22599621Y9956884D01*
X22654961Y9969961D01*
X22655000Y9970000D01*
X22655000Y10017823D01*
X22648380Y10079398D01*
X22648381Y10105908D01*
X22653175Y10150500D01*
X22655500Y10172127D01*
X22655499Y10667872D01*
X22649091Y10727483D01*
X22649090Y10727483D01*
X22648632Y10731751D01*
X22648633Y10758261D01*
X22649711Y10768284D01*
X22655500Y10822127D01*
X22655499Y11317872D01*
X22649091Y11377483D01*
X22598796Y11512331D01*
X22564745Y11557818D01*
X22555233Y11570525D01*
X22536846Y11605676D01*
X22530500Y11644835D01*
X22530500Y11928481D01*
X22539939Y11975934D01*
X22566819Y12016162D01*
X22573838Y12023181D01*
X22614066Y12050061D01*
X22661519Y12059500D01*
X22876608Y12059500D01*
X22876610Y12059500D01*
X23086198Y12098679D01*
X23228563Y12153831D01*
X23285017Y12175701D01*
X23466301Y12287947D01*
X23623873Y12431594D01*
X23752368Y12601747D01*
X23847404Y12792609D01*
X23858489Y12831565D01*
X23900238Y12978297D01*
X23905756Y12997689D01*
X23906780Y13008742D01*
X23915792Y13105999D01*
X23935370Y13162250D01*
X23978922Y13202884D01*
X24002181Y13209212D01*
X23982428Y13213779D01*
X23936567Y13254628D01*
X23915933Y13312471D01*
X23905756Y13422310D01*
X23847405Y13627389D01*
X23800080Y13722430D01*
X23752368Y13818252D01*
X23752366Y13818255D01*
X23623872Y13988407D01*
X23466302Y14132052D01*
X23285019Y14244298D01*
X23086198Y14321321D01*
X22913458Y14353611D01*
X22858506Y14378894D01*
X22822053Y14427167D01*
X22812774Y14486941D01*
X22832878Y14543993D01*
X22877581Y14584746D01*
X22936245Y14599500D01*
X25123873Y14599500D01*
X25181694Y14585194D01*
G37*
%TD.AperFunction*%
%TA.AperFunction,Conductor*%
G36*
X29937500Y34482887D02*
G01*
X29982887Y34437500D01*
X29999500Y34375500D01*
X29999500Y31000966D01*
X29999484Y30998958D01*
X29996943Y30842053D01*
X30025498Y30527416D01*
X30087465Y30217617D01*
X30182134Y29916196D01*
X30308423Y29626605D01*
X30308426Y29626599D01*
X30350669Y29552500D01*
X30464900Y29352122D01*
X30649757Y29095927D01*
X30860906Y28860906D01*
X31095927Y28649757D01*
X31352122Y28464900D01*
X31422402Y28424835D01*
X31626599Y28308426D01*
X31626602Y28308424D01*
X31626605Y28308423D01*
X31916196Y28182134D01*
X32217617Y28087465D01*
X32527416Y28025498D01*
X32842053Y27996943D01*
X32842058Y27996943D01*
X32842060Y27996943D01*
X32998958Y27999484D01*
X33000966Y27999500D01*
X36375500Y27999500D01*
X36437500Y27982887D01*
X36482887Y27937500D01*
X36499500Y27875500D01*
X36499500Y21824760D01*
X36499459Y21824554D01*
X36499459Y21800000D01*
X36499500Y21799901D01*
X36499605Y21799644D01*
X36499617Y21799616D01*
X36499618Y21799615D01*
X36499999Y21799459D01*
X36500000Y21799459D01*
X36524616Y21799476D01*
X36524616Y21799471D01*
X36524760Y21799500D01*
X39975500Y21799500D01*
X40037500Y21782887D01*
X40082887Y21737500D01*
X40099500Y21675500D01*
X40099500Y-21675500D01*
X40082887Y-21737500D01*
X40037500Y-21782887D01*
X39975500Y-21799500D01*
X36524760Y-21799500D01*
X36524554Y-21799459D01*
X36499998Y-21799459D01*
X36499807Y-21799538D01*
X36499619Y-21799615D01*
X36499615Y-21799618D01*
X36499459Y-21799999D01*
X36499476Y-21824616D01*
X36499471Y-21824616D01*
X36499500Y-21824760D01*
X36499500Y-29875500D01*
X36482887Y-29937500D01*
X36437500Y-29982887D01*
X36375500Y-29999500D01*
X35105549Y-29999500D01*
X-34375544Y-29975035D01*
X-34437525Y-29958408D01*
X-34482894Y-29913022D01*
X-34499500Y-29851035D01*
X-34499500Y-25624335D01*
X-27000500Y-25624335D01*
X-26959571Y-25869614D01*
X-26878828Y-26104810D01*
X-26760474Y-26323509D01*
X-26607738Y-26519744D01*
X-26424785Y-26688164D01*
X-26216607Y-26824173D01*
X-25988881Y-26924063D01*
X-25747821Y-26985108D01*
X-25663387Y-26992104D01*
X-25562073Y-27000500D01*
X-25562067Y-27000500D01*
X-25437933Y-27000500D01*
X-25437927Y-27000500D01*
X-25326480Y-26991264D01*
X-25252179Y-26985108D01*
X-25011119Y-26924063D01*
X-24783393Y-26824173D01*
X-24575215Y-26688164D01*
X-24392262Y-26519744D01*
X-24375036Y-26497612D01*
X-24239529Y-26323514D01*
X-24239526Y-26323509D01*
X-24121172Y-26104810D01*
X-24040429Y-25869614D01*
X-23999500Y-25624335D01*
X23999500Y-25624335D01*
X24040429Y-25869614D01*
X24121172Y-26104810D01*
X24239526Y-26323509D01*
X24239529Y-26323514D01*
X24375036Y-26497612D01*
X24392262Y-26519744D01*
X24575215Y-26688164D01*
X24783393Y-26824173D01*
X25011119Y-26924063D01*
X25252179Y-26985108D01*
X25326480Y-26991264D01*
X25437927Y-27000500D01*
X25437933Y-27000500D01*
X25562067Y-27000500D01*
X25562073Y-27000500D01*
X25663387Y-26992104D01*
X25747821Y-26985108D01*
X25988881Y-26924063D01*
X26216607Y-26824173D01*
X26424785Y-26688164D01*
X26607738Y-26519744D01*
X26760474Y-26323509D01*
X26878828Y-26104810D01*
X26959571Y-25869614D01*
X27000500Y-25624335D01*
X27000500Y-25375665D01*
X26959571Y-25130386D01*
X26878828Y-24895190D01*
X26760474Y-24676491D01*
X26760471Y-24676487D01*
X26760470Y-24676485D01*
X26607740Y-24480259D01*
X26607738Y-24480256D01*
X26424785Y-24311836D01*
X26216607Y-24175827D01*
X26216604Y-24175825D01*
X26091523Y-24120960D01*
X25988881Y-24075937D01*
X25747821Y-24014892D01*
X25747819Y-24014891D01*
X25747816Y-24014891D01*
X25562073Y-23999500D01*
X25562067Y-23999500D01*
X25437933Y-23999500D01*
X25437927Y-23999500D01*
X25252183Y-24014891D01*
X25252179Y-24014891D01*
X25252179Y-24014892D01*
X25011119Y-24075937D01*
X25011116Y-24075938D01*
X25011117Y-24075938D01*
X24783395Y-24175825D01*
X24644607Y-24266499D01*
X24575215Y-24311836D01*
X24575213Y-24311837D01*
X24575214Y-24311837D01*
X24392259Y-24480259D01*
X24239529Y-24676485D01*
X24121170Y-24895194D01*
X24040429Y-25130384D01*
X24040429Y-25130386D01*
X23999500Y-25375665D01*
X23999500Y-25624335D01*
X-23999500Y-25624335D01*
X-23999500Y-25375665D01*
X-24040429Y-25130386D01*
X-24040429Y-25130384D01*
X-24121170Y-24895194D01*
X-24239529Y-24676485D01*
X-24392259Y-24480259D01*
X-24575214Y-24311837D01*
X-24575213Y-24311837D01*
X-24575215Y-24311836D01*
X-24644607Y-24266499D01*
X-24783395Y-24175825D01*
X-25011117Y-24075938D01*
X-25011116Y-24075938D01*
X-25011119Y-24075937D01*
X-25252179Y-24014892D01*
X-25252179Y-24014891D01*
X-25252183Y-24014891D01*
X-25437927Y-23999500D01*
X-25437933Y-23999500D01*
X-25562067Y-23999500D01*
X-25562073Y-23999500D01*
X-25747816Y-24014891D01*
X-25747819Y-24014891D01*
X-25747821Y-24014892D01*
X-25988881Y-24075937D01*
X-26091523Y-24120960D01*
X-26216604Y-24175825D01*
X-26216607Y-24175827D01*
X-26424785Y-24311836D01*
X-26607738Y-24480256D01*
X-26607740Y-24480259D01*
X-26760470Y-24676485D01*
X-26760471Y-24676487D01*
X-26760474Y-24676491D01*
X-26878828Y-24895190D01*
X-26959571Y-25130386D01*
X-27000500Y-25375665D01*
X-27000500Y-25624335D01*
X-34499500Y-25624335D01*
X-34499500Y-21824760D01*
X-34499471Y-21824616D01*
X-34499476Y-21824616D01*
X-34499459Y-21799999D01*
X-34499615Y-21799618D01*
X-34499619Y-21799615D01*
X-34499807Y-21799538D01*
X-34499998Y-21799459D01*
X-34524554Y-21799459D01*
X-34524760Y-21799500D01*
X-39951968Y-21799500D01*
X-40013617Y-21783089D01*
X-40058948Y-21738199D01*
X-40075962Y-21676714D01*
X-40085070Y-20746138D01*
X-40099493Y-19272289D01*
X-40099500Y-19271075D01*
X-40099500Y-19190346D01*
X-34304298Y-19190346D01*
X-34294180Y-19428532D01*
X-34243954Y-19661581D01*
X-34155064Y-19882790D01*
X-34030069Y-20085795D01*
X-33872564Y-20264755D01*
X-33687080Y-20414523D01*
X-33478954Y-20530790D01*
X-33330702Y-20583171D01*
X-33254168Y-20610212D01*
X-33019203Y-20650500D01*
X-33019200Y-20650500D01*
X-31040503Y-20650500D01*
X-31040499Y-20650500D01*
X-30898067Y-20638376D01*
X-30862459Y-20635346D01*
X-30785556Y-20615322D01*
X-30631749Y-20575275D01*
X-30414514Y-20477077D01*
X-30332677Y-20421765D01*
X-30299550Y-20405935D01*
X-30263240Y-20400500D01*
X-26299454Y-20400500D01*
X-26293727Y-20400632D01*
X-26216638Y-20404196D01*
X-26140210Y-20393534D01*
X-26134525Y-20392875D01*
X-26057690Y-20385756D01*
X-26040228Y-20380787D01*
X-26023436Y-20377245D01*
X-26005464Y-20374739D01*
X-25932247Y-20350198D01*
X-25926869Y-20348533D01*
X-25852611Y-20327405D01*
X-25841982Y-20322112D01*
X-25836368Y-20319317D01*
X-25820502Y-20312745D01*
X-25803298Y-20306979D01*
X-25735863Y-20269418D01*
X-25730838Y-20266770D01*
X-25661741Y-20232364D01*
X-25647269Y-20221435D01*
X-25632882Y-20212060D01*
X-25617028Y-20203229D01*
X-25617026Y-20203228D01*
X-25617025Y-20203227D01*
X-25557628Y-20153904D01*
X-25553163Y-20150368D01*
X-25491593Y-20103872D01*
X-25475114Y-20085796D01*
X-25439600Y-20046840D01*
X-25435645Y-20042698D01*
X-24517299Y-19124352D01*
X-24513157Y-19120397D01*
X-24485077Y-19094798D01*
X-24456128Y-19068407D01*
X-24409642Y-19006851D01*
X-24406087Y-19002363D01*
X-24356773Y-18942975D01*
X-24347941Y-18927119D01*
X-24338566Y-18912731D01*
X-24327632Y-18898253D01*
X-24293241Y-18829185D01*
X-24290571Y-18824118D01*
X-24287264Y-18818182D01*
X-24253021Y-18756702D01*
X-24253020Y-18756700D01*
X-24253019Y-18756698D01*
X-24247252Y-18739493D01*
X-24240684Y-18723635D01*
X-24232594Y-18707387D01*
X-24211479Y-18633178D01*
X-24209785Y-18627708D01*
X-24185262Y-18554539D01*
X-24185261Y-18554538D01*
X-24185261Y-18554536D01*
X-24182753Y-18536558D01*
X-24179209Y-18519759D01*
X-24174243Y-18502308D01*
X-24167123Y-18425468D01*
X-24166463Y-18419777D01*
X-24162073Y-18388310D01*
X-24139915Y-18333020D01*
X-24094532Y-18294442D01*
X-24076567Y-18290435D01*
X-24101402Y-18283473D01*
X-24145329Y-18240551D01*
X-24163272Y-18181814D01*
X-24165651Y-18130369D01*
X-24169805Y-18112705D01*
X-24172568Y-18095767D01*
X-24174243Y-18077689D01*
X-24195358Y-18003482D01*
X-24196798Y-17997937D01*
X-24214467Y-17922812D01*
X-24221801Y-17906200D01*
X-24227627Y-17890065D01*
X-24232594Y-17872611D01*
X-24266985Y-17803543D01*
X-24269417Y-17798362D01*
X-24300592Y-17727762D01*
X-24310844Y-17712795D01*
X-24319539Y-17698000D01*
X-24327633Y-17681745D01*
X-24374135Y-17620167D01*
X-24377479Y-17615519D01*
X-24421089Y-17551857D01*
X-24433928Y-17539017D01*
X-24445189Y-17526075D01*
X-24456123Y-17511596D01*
X-24513148Y-17459611D01*
X-24517288Y-17455658D01*
X-24571858Y-17401089D01*
X-24571858Y-17401088D01*
X-24586834Y-17390829D01*
X-24600285Y-17380175D01*
X-24613697Y-17367948D01*
X-24679316Y-17327318D01*
X-24684113Y-17324192D01*
X-24747762Y-17280591D01*
X-24764365Y-17273260D01*
X-24779541Y-17265261D01*
X-24785296Y-17261697D01*
X-24794981Y-17255702D01*
X-24866916Y-17227833D01*
X-24872207Y-17225642D01*
X-24942816Y-17194466D01*
X-24960488Y-17190309D01*
X-24976881Y-17185233D01*
X-24993801Y-17178679D01*
X-25069629Y-17164503D01*
X-25075229Y-17163322D01*
X-25152258Y-17145207D01*
X-25205268Y-17118044D01*
X-25239497Y-17069296D01*
X-25247045Y-17010211D01*
X-25226171Y-16954424D01*
X-25181692Y-16914806D01*
X-25123871Y-16900500D01*
X-22936245Y-16900500D01*
X-22877581Y-16915254D01*
X-22832878Y-16956007D01*
X-22812774Y-17013059D01*
X-22822053Y-17072833D01*
X-22858506Y-17121106D01*
X-22913458Y-17146388D01*
X-23068357Y-17175344D01*
X-23086198Y-17178679D01*
X-23285017Y-17255701D01*
X-23285019Y-17255702D01*
X-23350619Y-17296320D01*
X-23466301Y-17367947D01*
X-23623873Y-17511594D01*
X-23752368Y-17681747D01*
X-23813014Y-17803543D01*
X-23847405Y-17872611D01*
X-23905756Y-18077690D01*
X-23914247Y-18169334D01*
X-23915933Y-18187525D01*
X-23936567Y-18245371D01*
X-23982428Y-18286220D01*
X-24002181Y-18290786D01*
X-23978922Y-18297115D01*
X-23935370Y-18337749D01*
X-23915792Y-18393999D01*
X-23905756Y-18502310D01*
X-23847405Y-18707389D01*
X-23816047Y-18770365D01*
X-23752368Y-18898252D01*
X-23752366Y-18898253D01*
X-23752366Y-18898255D01*
X-23623872Y-19068407D01*
X-23466302Y-19212052D01*
X-23285019Y-19324298D01*
X-23086198Y-19401321D01*
X-22876610Y-19440500D01*
X-22663392Y-19440500D01*
X-22663390Y-19440500D01*
X-22453802Y-19401321D01*
X-22254981Y-19324298D01*
X-22073698Y-19212052D01*
X-21916128Y-19068407D01*
X-21894503Y-19039771D01*
X-21850821Y-19003500D01*
X-21795550Y-18990500D01*
X-21024500Y-18990500D01*
X-20962500Y-19007113D01*
X-20917113Y-19052500D01*
X-20900500Y-19114500D01*
X-20900500Y-19375079D01*
X-20900726Y-19382566D01*
X-20904358Y-19442606D01*
X-20893514Y-19501778D01*
X-20892387Y-19509184D01*
X-20885140Y-19568871D01*
X-20881552Y-19578331D01*
X-20875522Y-19599958D01*
X-20873695Y-19609932D01*
X-20848996Y-19664808D01*
X-20846152Y-19671673D01*
X-20824818Y-19727930D01*
X-20819060Y-19736270D01*
X-20808035Y-19755819D01*
X-20803878Y-19765057D01*
X-20766775Y-19812413D01*
X-20762355Y-19818420D01*
X-20728183Y-19867929D01*
X-20683150Y-19907823D01*
X-20677730Y-19912925D01*
X-20012931Y-20577723D01*
X-20007829Y-20583142D01*
X-19967929Y-20628183D01*
X-19918399Y-20662369D01*
X-19912411Y-20666775D01*
X-19865057Y-20703877D01*
X-19855820Y-20708033D01*
X-19836273Y-20719058D01*
X-19827930Y-20724818D01*
X-19771668Y-20746154D01*
X-19764773Y-20749010D01*
X-19709931Y-20773694D01*
X-19709932Y-20773694D01*
X-19699971Y-20775519D01*
X-19678348Y-20781545D01*
X-19668872Y-20785140D01*
X-19609165Y-20792389D01*
X-19601766Y-20793515D01*
X-19542606Y-20804357D01*
X-19482578Y-20800726D01*
X-19475091Y-20800500D01*
X-11742372Y-20800500D01*
X-11657628Y-20800500D01*
X-10285056Y-20800500D01*
X11025078Y-20800500D01*
X11047429Y-20802530D01*
X11057394Y-20804357D01*
X11117422Y-20800726D01*
X11124910Y-20800500D01*
X12357628Y-20800500D01*
X12442372Y-20800500D01*
X17625079Y-20800500D01*
X17632566Y-20800726D01*
X17635706Y-20800915D01*
X17692606Y-20804358D01*
X17751782Y-20793513D01*
X17759181Y-20792387D01*
X17818872Y-20785140D01*
X17828335Y-20781550D01*
X17849958Y-20775522D01*
X17859932Y-20773695D01*
X17914808Y-20748996D01*
X17921673Y-20746152D01*
X17977930Y-20724818D01*
X17986270Y-20719060D01*
X18005819Y-20708035D01*
X18015057Y-20703878D01*
X18062413Y-20666775D01*
X18068420Y-20662355D01*
X18117929Y-20628183D01*
X18157823Y-20583150D01*
X18162924Y-20577731D01*
X20003837Y-18736817D01*
X20044065Y-18709938D01*
X20091518Y-18700499D01*
X20308480Y-18700499D01*
X20355933Y-18709938D01*
X20396161Y-18736818D01*
X20427058Y-18767715D01*
X20432178Y-18773153D01*
X20472071Y-18818183D01*
X20521577Y-18852355D01*
X20527597Y-18856785D01*
X20574941Y-18893877D01*
X20574942Y-18893877D01*
X20574943Y-18893878D01*
X20584184Y-18898037D01*
X20603730Y-18909061D01*
X20612070Y-18914818D01*
X20668322Y-18936151D01*
X20675218Y-18939009D01*
X20730068Y-18963695D01*
X20740035Y-18965521D01*
X20761651Y-18971546D01*
X20771128Y-18975140D01*
X20830840Y-18982390D01*
X20838185Y-18983507D01*
X20897394Y-18994358D01*
X20954102Y-18990927D01*
X20957434Y-18990726D01*
X20964921Y-18990500D01*
X21795550Y-18990500D01*
X21850821Y-19003500D01*
X21894503Y-19039771D01*
X21916128Y-19068407D01*
X22073698Y-19212052D01*
X22254981Y-19324298D01*
X22453802Y-19401321D01*
X22663390Y-19440500D01*
X22876608Y-19440500D01*
X22876610Y-19440500D01*
X23086198Y-19401321D01*
X23285019Y-19324298D01*
X23466302Y-19212052D01*
X23623872Y-19068407D01*
X23752366Y-18898255D01*
X23752366Y-18898253D01*
X23752368Y-18898252D01*
X23816047Y-18770365D01*
X23847405Y-18707389D01*
X23905756Y-18502310D01*
X23915792Y-18393999D01*
X23935370Y-18337749D01*
X23978922Y-18297115D01*
X24002181Y-18290786D01*
X23982428Y-18286220D01*
X23936567Y-18245371D01*
X23915933Y-18187525D01*
X23914247Y-18169334D01*
X23905756Y-18077690D01*
X23847405Y-17872611D01*
X23813014Y-17803543D01*
X23752368Y-17681747D01*
X23623873Y-17511594D01*
X23466301Y-17367947D01*
X23350619Y-17296320D01*
X23285019Y-17255702D01*
X23285017Y-17255701D01*
X23086198Y-17178679D01*
X23068357Y-17175344D01*
X22913458Y-17146388D01*
X22858506Y-17121106D01*
X22822053Y-17072833D01*
X22812774Y-17013059D01*
X22832878Y-16956007D01*
X22877581Y-16915254D01*
X22936245Y-16900500D01*
X25123871Y-16900500D01*
X25181692Y-16914806D01*
X25226171Y-16954424D01*
X25247045Y-17010211D01*
X25239497Y-17069296D01*
X25205268Y-17118044D01*
X25152258Y-17145207D01*
X25075229Y-17163322D01*
X25069629Y-17164503D01*
X24993801Y-17178679D01*
X24976881Y-17185233D01*
X24960488Y-17190309D01*
X24942816Y-17194466D01*
X24872207Y-17225642D01*
X24866916Y-17227833D01*
X24794981Y-17255702D01*
X24785296Y-17261697D01*
X24779541Y-17265261D01*
X24764365Y-17273260D01*
X24747762Y-17280591D01*
X24684113Y-17324192D01*
X24679316Y-17327318D01*
X24613697Y-17367948D01*
X24600285Y-17380175D01*
X24586834Y-17390829D01*
X24571858Y-17401088D01*
X24571858Y-17401089D01*
X24517288Y-17455658D01*
X24513148Y-17459611D01*
X24456123Y-17511596D01*
X24445189Y-17526075D01*
X24433928Y-17539017D01*
X24421089Y-17551857D01*
X24377479Y-17615519D01*
X24374135Y-17620167D01*
X24327633Y-17681745D01*
X24319539Y-17698000D01*
X24310844Y-17712795D01*
X24300592Y-17727762D01*
X24269417Y-17798362D01*
X24266985Y-17803543D01*
X24232594Y-17872611D01*
X24227627Y-17890065D01*
X24221801Y-17906200D01*
X24214467Y-17922812D01*
X24196798Y-17997937D01*
X24195358Y-18003482D01*
X24174243Y-18077689D01*
X24172568Y-18095767D01*
X24169805Y-18112705D01*
X24165651Y-18130369D01*
X24163272Y-18181814D01*
X24145329Y-18240551D01*
X24101402Y-18283473D01*
X24076567Y-18290435D01*
X24094532Y-18294442D01*
X24139915Y-18333020D01*
X24162073Y-18388310D01*
X24166463Y-18419777D01*
X24167123Y-18425468D01*
X24174243Y-18502308D01*
X24179209Y-18519759D01*
X24182753Y-18536558D01*
X24185261Y-18554536D01*
X24185261Y-18554538D01*
X24185262Y-18554539D01*
X24209785Y-18627708D01*
X24211479Y-18633178D01*
X24232594Y-18707387D01*
X24240684Y-18723635D01*
X24247252Y-18739493D01*
X24253019Y-18756698D01*
X24253020Y-18756700D01*
X24253021Y-18756702D01*
X24287264Y-18818182D01*
X24290571Y-18824118D01*
X24293241Y-18829185D01*
X24327632Y-18898253D01*
X24338566Y-18912731D01*
X24347941Y-18927119D01*
X24356773Y-18942975D01*
X24406087Y-19002363D01*
X24409642Y-19006851D01*
X24456128Y-19068407D01*
X24485077Y-19094798D01*
X24513157Y-19120397D01*
X24517299Y-19124352D01*
X25435645Y-20042698D01*
X25439600Y-20046840D01*
X25475114Y-20085796D01*
X25491593Y-20103872D01*
X25553163Y-20150368D01*
X25557628Y-20153904D01*
X25617025Y-20203227D01*
X25617026Y-20203228D01*
X25617028Y-20203229D01*
X25632882Y-20212060D01*
X25647269Y-20221435D01*
X25661741Y-20232364D01*
X25730838Y-20266770D01*
X25735863Y-20269418D01*
X25803298Y-20306979D01*
X25820502Y-20312745D01*
X25836368Y-20319317D01*
X25841982Y-20322112D01*
X25852611Y-20327405D01*
X25926869Y-20348533D01*
X25932247Y-20350198D01*
X26005464Y-20374739D01*
X26023436Y-20377245D01*
X26040228Y-20380787D01*
X26057690Y-20385756D01*
X26134525Y-20392875D01*
X26140210Y-20393534D01*
X26216638Y-20404196D01*
X26293727Y-20400632D01*
X26299454Y-20400500D01*
X29837770Y-20400500D01*
X29885223Y-20409939D01*
X29925448Y-20436816D01*
X29965709Y-20477077D01*
X29981345Y-20492713D01*
X30043079Y-20530790D01*
X30130666Y-20584814D01*
X30242017Y-20621712D01*
X30297202Y-20639999D01*
X30307702Y-20641071D01*
X30399991Y-20650500D01*
X33600008Y-20650499D01*
X33702797Y-20639999D01*
X33869334Y-20584814D01*
X34018656Y-20492712D01*
X34142712Y-20368656D01*
X34234814Y-20219334D01*
X34289999Y-20052797D01*
X34300500Y-19950009D01*
X34300499Y-18549992D01*
X34289999Y-18447203D01*
X34234814Y-18280666D01*
X34142712Y-18131344D01*
X34142711Y-18131342D01*
X34018657Y-18007288D01*
X33869334Y-17915186D01*
X33702797Y-17860000D01*
X33600009Y-17849500D01*
X30399991Y-17849500D01*
X30297203Y-17860000D01*
X30130665Y-17915186D01*
X29981345Y-18007286D01*
X29965710Y-18022922D01*
X29925448Y-18063183D01*
X29885223Y-18090061D01*
X29837770Y-18099500D01*
X26797915Y-18099500D01*
X26750462Y-18090061D01*
X26710234Y-18063181D01*
X26186079Y-17539026D01*
X26174806Y-17526071D01*
X26163872Y-17511593D01*
X26106840Y-17459600D01*
X26102698Y-17455645D01*
X26085918Y-17438865D01*
X26085913Y-17438860D01*
X26067612Y-17423662D01*
X26063345Y-17419949D01*
X26006302Y-17367948D01*
X26006300Y-17367946D01*
X25990876Y-17358396D01*
X25976942Y-17348370D01*
X25962974Y-17336772D01*
X25895559Y-17299222D01*
X25890621Y-17296320D01*
X25825020Y-17255702D01*
X25808093Y-17249144D01*
X25792557Y-17241851D01*
X25776700Y-17233020D01*
X25703531Y-17208495D01*
X25698146Y-17206551D01*
X25626197Y-17178678D01*
X25608362Y-17175344D01*
X25591750Y-17171030D01*
X25582838Y-17168043D01*
X25574534Y-17165260D01*
X25498102Y-17154598D01*
X25492451Y-17153676D01*
X25453465Y-17146389D01*
X25398511Y-17121107D01*
X25362056Y-17072835D01*
X25352777Y-17013060D01*
X25372881Y-16956007D01*
X25417584Y-16915255D01*
X25476248Y-16900500D01*
X30255531Y-16900500D01*
X30316006Y-16916247D01*
X30521043Y-17030789D01*
X30745831Y-17110212D01*
X30980797Y-17150500D01*
X30980800Y-17150500D01*
X32959497Y-17150500D01*
X32959501Y-17150500D01*
X33078192Y-17140397D01*
X33137541Y-17135346D01*
X33291346Y-17095298D01*
X33368250Y-17075275D01*
X33505885Y-17013059D01*
X33585486Y-16977077D01*
X33783003Y-16843579D01*
X33955118Y-16678621D01*
X34096879Y-16486947D01*
X34204207Y-16274074D01*
X34274016Y-16046123D01*
X34304298Y-15809654D01*
X34294180Y-15571468D01*
X34243954Y-15338419D01*
X34155064Y-15117210D01*
X34030069Y-14914205D01*
X33872564Y-14735245D01*
X33872562Y-14735243D01*
X33687085Y-14585480D01*
X33682443Y-14582887D01*
X33539077Y-14502797D01*
X33478951Y-14469208D01*
X33254168Y-14389787D01*
X33019203Y-14349500D01*
X33019200Y-14349500D01*
X31040503Y-14349500D01*
X31040499Y-14349500D01*
X30862460Y-14364653D01*
X30631749Y-14424724D01*
X30414514Y-14522922D01*
X30332677Y-14578235D01*
X30299550Y-14594065D01*
X30263240Y-14599500D01*
X25476247Y-14599500D01*
X25417584Y-14584746D01*
X25372881Y-14543994D01*
X25352776Y-14486943D01*
X25362054Y-14427168D01*
X25398506Y-14378896D01*
X25453459Y-14353612D01*
X25477695Y-14349080D01*
X25492469Y-14346318D01*
X25498090Y-14345402D01*
X25574536Y-14334739D01*
X25574535Y-14334739D01*
X25591743Y-14328972D01*
X25608365Y-14324655D01*
X25616241Y-14323182D01*
X25626198Y-14321321D01*
X25698172Y-14293437D01*
X25703521Y-14291506D01*
X25776702Y-14266979D01*
X25792555Y-14258148D01*
X25808091Y-14250855D01*
X25825019Y-14244298D01*
X25890662Y-14203651D01*
X25895514Y-14200800D01*
X25962975Y-14163227D01*
X25976943Y-14151627D01*
X25990872Y-14141605D01*
X26006302Y-14132052D01*
X26063355Y-14080039D01*
X26067601Y-14076345D01*
X26085913Y-14061140D01*
X26102707Y-14044344D01*
X26106828Y-14040408D01*
X26163872Y-13988407D01*
X26174811Y-13973920D01*
X26186072Y-13960979D01*
X26710233Y-13436819D01*
X26750462Y-13409939D01*
X26797915Y-13400500D01*
X30255531Y-13400500D01*
X30316006Y-13416247D01*
X30521043Y-13530789D01*
X30745831Y-13610212D01*
X30980797Y-13650500D01*
X30980800Y-13650500D01*
X32959497Y-13650500D01*
X32959501Y-13650500D01*
X33078193Y-13640397D01*
X33137541Y-13635346D01*
X33297125Y-13593794D01*
X33368250Y-13575275D01*
X33530191Y-13502072D01*
X33585486Y-13477077D01*
X33783003Y-13343579D01*
X33955118Y-13178621D01*
X34096879Y-12986947D01*
X34204207Y-12774074D01*
X34274016Y-12546123D01*
X34304298Y-12309654D01*
X34294180Y-12071468D01*
X34243954Y-11838419D01*
X34155064Y-11617210D01*
X34030069Y-11414205D01*
X33872564Y-11235245D01*
X33872070Y-11234846D01*
X33687085Y-11085480D01*
X33682443Y-11082887D01*
X33566064Y-11017873D01*
X33478951Y-10969208D01*
X33254168Y-10889787D01*
X33019203Y-10849500D01*
X33019200Y-10849500D01*
X31040503Y-10849500D01*
X31040499Y-10849500D01*
X30862460Y-10864653D01*
X30631749Y-10924724D01*
X30414514Y-11022922D01*
X30363287Y-11057546D01*
X30333790Y-11077483D01*
X30332677Y-11078235D01*
X30299550Y-11094065D01*
X30263240Y-11099500D01*
X29311697Y-11099500D01*
X29245987Y-11080658D01*
X29200246Y-11029858D01*
X29188376Y-10962541D01*
X29205460Y-10800000D01*
X29185674Y-10611744D01*
X29137187Y-10462517D01*
X29127179Y-10431715D01*
X29032533Y-10267783D01*
X28905871Y-10127112D01*
X28902715Y-10124819D01*
X28863401Y-10077298D01*
X28851844Y-10016715D01*
X28870902Y-9958058D01*
X28915861Y-9915838D01*
X28975599Y-9900500D01*
X30255531Y-9900500D01*
X30316006Y-9916247D01*
X30521043Y-10030789D01*
X30745831Y-10110212D01*
X30980797Y-10150500D01*
X30980800Y-10150500D01*
X32959497Y-10150500D01*
X32959501Y-10150500D01*
X33078193Y-10140397D01*
X33137541Y-10135346D01*
X33291346Y-10095298D01*
X33368250Y-10075275D01*
X33499713Y-10015849D01*
X33585486Y-9977077D01*
X33783003Y-9843579D01*
X33955118Y-9678621D01*
X34096879Y-9486947D01*
X34204207Y-9274074D01*
X34274016Y-9046123D01*
X34304298Y-8809654D01*
X34294180Y-8571468D01*
X34243954Y-8338419D01*
X34155064Y-8117210D01*
X34030069Y-7914205D01*
X33872564Y-7735245D01*
X33872562Y-7735243D01*
X33687085Y-7585480D01*
X33678956Y-7580939D01*
X33574254Y-7522448D01*
X33478951Y-7469208D01*
X33254168Y-7389787D01*
X33019203Y-7349500D01*
X33019200Y-7349500D01*
X31040503Y-7349500D01*
X31040499Y-7349500D01*
X30862460Y-7364653D01*
X30631749Y-7424724D01*
X30414514Y-7522922D01*
X30354950Y-7563181D01*
X30337193Y-7575183D01*
X30332677Y-7578235D01*
X30299550Y-7594065D01*
X30263240Y-7599500D01*
X26797915Y-7599500D01*
X26750462Y-7590061D01*
X26710234Y-7563181D01*
X26186079Y-7039026D01*
X26174806Y-7026071D01*
X26163872Y-7011593D01*
X26106840Y-6959600D01*
X26102698Y-6955645D01*
X26085918Y-6938865D01*
X26085913Y-6938860D01*
X26067612Y-6923662D01*
X26063345Y-6919949D01*
X26006302Y-6867948D01*
X26006300Y-6867946D01*
X25990876Y-6858396D01*
X25976942Y-6848370D01*
X25962974Y-6836772D01*
X25895559Y-6799222D01*
X25890621Y-6796320D01*
X25825020Y-6755702D01*
X25808093Y-6749144D01*
X25792557Y-6741851D01*
X25776700Y-6733020D01*
X25703531Y-6708495D01*
X25698146Y-6706551D01*
X25626197Y-6678678D01*
X25608362Y-6675344D01*
X25591750Y-6671030D01*
X25582838Y-6668043D01*
X25574534Y-6665260D01*
X25498102Y-6654598D01*
X25492451Y-6653676D01*
X25453465Y-6646389D01*
X25398511Y-6621107D01*
X25362056Y-6572835D01*
X25352777Y-6513060D01*
X25372881Y-6456007D01*
X25417584Y-6415255D01*
X25476248Y-6400500D01*
X30255531Y-6400500D01*
X30316006Y-6416247D01*
X30521043Y-6530789D01*
X30745831Y-6610212D01*
X30980797Y-6650500D01*
X30980800Y-6650500D01*
X32959497Y-6650500D01*
X32959501Y-6650500D01*
X33078193Y-6640397D01*
X33137541Y-6635346D01*
X33291346Y-6595298D01*
X33368250Y-6575275D01*
X33505885Y-6513059D01*
X33585486Y-6477077D01*
X33783003Y-6343579D01*
X33955118Y-6178621D01*
X34096879Y-5986947D01*
X34204207Y-5774074D01*
X34274016Y-5546123D01*
X34304298Y-5309654D01*
X34294180Y-5071468D01*
X34243954Y-4838419D01*
X34155064Y-4617210D01*
X34030069Y-4414205D01*
X33872564Y-4235245D01*
X33872562Y-4235243D01*
X33687085Y-4085480D01*
X33682443Y-4082887D01*
X33539077Y-4002797D01*
X33478951Y-3969208D01*
X33254168Y-3889787D01*
X33019203Y-3849500D01*
X33019200Y-3849500D01*
X31040503Y-3849500D01*
X31040499Y-3849500D01*
X30862460Y-3864653D01*
X30631749Y-3924724D01*
X30414514Y-4022922D01*
X30332677Y-4078235D01*
X30299550Y-4094065D01*
X30263240Y-4099500D01*
X25476247Y-4099500D01*
X25417584Y-4084746D01*
X25372881Y-4043994D01*
X25352776Y-3986943D01*
X25362054Y-3927168D01*
X25398506Y-3878896D01*
X25453459Y-3853612D01*
X25478090Y-3849007D01*
X25492469Y-3846318D01*
X25498090Y-3845402D01*
X25574536Y-3834739D01*
X25574536Y-3834738D01*
X25591743Y-3828972D01*
X25608365Y-3824655D01*
X25616241Y-3823182D01*
X25626198Y-3821321D01*
X25698172Y-3793437D01*
X25703521Y-3791506D01*
X25776702Y-3766979D01*
X25792555Y-3758148D01*
X25808091Y-3750855D01*
X25825019Y-3744298D01*
X25890662Y-3703651D01*
X25895514Y-3700800D01*
X25962975Y-3663227D01*
X25976943Y-3651627D01*
X25990872Y-3641605D01*
X26006302Y-3632052D01*
X26063355Y-3580039D01*
X26067601Y-3576345D01*
X26085913Y-3561140D01*
X26102707Y-3544344D01*
X26106828Y-3540408D01*
X26163872Y-3488407D01*
X26174811Y-3473920D01*
X26186072Y-3460979D01*
X26710233Y-2936819D01*
X26750462Y-2909939D01*
X26797915Y-2900500D01*
X30255531Y-2900500D01*
X30316006Y-2916247D01*
X30521043Y-3030789D01*
X30745831Y-3110212D01*
X30980797Y-3150500D01*
X30980800Y-3150500D01*
X32959497Y-3150500D01*
X32959501Y-3150500D01*
X33078192Y-3140397D01*
X33137541Y-3135346D01*
X33297125Y-3093794D01*
X33368250Y-3075275D01*
X33530191Y-3002072D01*
X33585486Y-2977077D01*
X33783003Y-2843579D01*
X33955118Y-2678621D01*
X34096879Y-2486947D01*
X34204207Y-2274074D01*
X34274016Y-2046123D01*
X34304298Y-1809654D01*
X34294180Y-1571468D01*
X34243954Y-1338419D01*
X34155064Y-1117210D01*
X34030069Y-914205D01*
X33872564Y-735245D01*
X33870076Y-733236D01*
X33687085Y-585480D01*
X33478951Y-469208D01*
X33254168Y-389787D01*
X33019203Y-349500D01*
X33019200Y-349500D01*
X31040503Y-349500D01*
X31040499Y-349500D01*
X30862460Y-364653D01*
X30631749Y-424724D01*
X30414514Y-522922D01*
X30332677Y-578235D01*
X30299550Y-594065D01*
X30263240Y-599500D01*
X26299454Y-599500D01*
X26293728Y-599368D01*
X26287408Y-599075D01*
X26216638Y-595804D01*
X26216637Y-595804D01*
X26140220Y-606463D01*
X26134532Y-607123D01*
X26057686Y-614244D01*
X26040231Y-619210D01*
X26023436Y-622753D01*
X26005467Y-625260D01*
X25932289Y-649786D01*
X25926821Y-651479D01*
X25852607Y-672595D01*
X25836356Y-680687D01*
X25820504Y-687253D01*
X25803297Y-693020D01*
X25735888Y-730566D01*
X25730824Y-733236D01*
X25661741Y-767635D01*
X25647267Y-778566D01*
X25632885Y-787938D01*
X25617024Y-796772D01*
X25557646Y-846079D01*
X25553159Y-849633D01*
X25491592Y-896128D01*
X25439611Y-953147D01*
X25435657Y-957288D01*
X24517288Y-1875657D01*
X24513147Y-1879611D01*
X24456128Y-1931592D01*
X24409633Y-1993159D01*
X24406079Y-1997646D01*
X24356772Y-2057024D01*
X24347938Y-2072885D01*
X24338566Y-2087267D01*
X24327635Y-2101741D01*
X24293236Y-2170824D01*
X24290566Y-2175888D01*
X24253020Y-2243297D01*
X24247253Y-2260504D01*
X24240687Y-2276356D01*
X24232595Y-2292607D01*
X24211479Y-2366821D01*
X24209786Y-2372289D01*
X24185260Y-2445467D01*
X24182753Y-2463436D01*
X24179210Y-2480231D01*
X24174244Y-2497686D01*
X24167123Y-2574531D01*
X24166465Y-2580204D01*
X24165685Y-2585796D01*
X24162073Y-2611689D01*
X24139915Y-2666979D01*
X24094532Y-2705557D01*
X24076567Y-2709563D01*
X24101402Y-2716526D01*
X24145329Y-2759448D01*
X24163272Y-2818185D01*
X24165651Y-2869629D01*
X24169805Y-2887291D01*
X24172569Y-2904237D01*
X24174244Y-2922312D01*
X24195360Y-2996527D01*
X24196800Y-3002072D01*
X24214465Y-3077181D01*
X24221800Y-3093794D01*
X24227629Y-3109938D01*
X24232595Y-3127389D01*
X24266993Y-3196471D01*
X24269423Y-3201648D01*
X24300592Y-3272237D01*
X24310845Y-3287205D01*
X24319540Y-3302001D01*
X24327633Y-3318252D01*
X24327634Y-3318255D01*
X24352450Y-3351116D01*
X24374141Y-3379840D01*
X24377482Y-3384483D01*
X24421089Y-3448142D01*
X24421091Y-3448144D01*
X24433920Y-3460973D01*
X24445189Y-3473922D01*
X24456126Y-3488405D01*
X24456129Y-3488408D01*
X24513157Y-3540397D01*
X24517277Y-3544330D01*
X24571858Y-3598911D01*
X24586829Y-3609166D01*
X24600290Y-3619829D01*
X24613697Y-3632052D01*
X24679300Y-3672671D01*
X24684100Y-3675798D01*
X24747763Y-3719408D01*
X24764359Y-3726736D01*
X24779547Y-3734742D01*
X24794981Y-3744298D01*
X24866954Y-3772180D01*
X24872206Y-3774356D01*
X24914066Y-3792839D01*
X24940150Y-3804357D01*
X24942814Y-3805533D01*
X24960497Y-3809691D01*
X24976881Y-3814765D01*
X24993802Y-3821321D01*
X25069663Y-3835501D01*
X25075256Y-3836682D01*
X25152263Y-3854794D01*
X25205272Y-3881958D01*
X25239500Y-3930706D01*
X25247047Y-3989790D01*
X25226173Y-4045577D01*
X25181694Y-4085194D01*
X25123873Y-4099500D01*
X22936245Y-4099500D01*
X22877581Y-4084746D01*
X22832878Y-4043993D01*
X22812774Y-3986941D01*
X22822053Y-3927167D01*
X22858506Y-3878894D01*
X22913458Y-3853611D01*
X23086198Y-3821321D01*
X23285019Y-3744298D01*
X23466302Y-3632052D01*
X23623872Y-3488407D01*
X23752366Y-3318255D01*
X23752366Y-3318253D01*
X23752368Y-3318252D01*
X23811735Y-3199025D01*
X23847405Y-3127389D01*
X23905756Y-2922310D01*
X23915933Y-2812471D01*
X23936567Y-2754628D01*
X23982428Y-2713779D01*
X24002181Y-2709212D01*
X23978922Y-2702884D01*
X23935370Y-2662250D01*
X23915792Y-2605999D01*
X23905756Y-2497690D01*
X23902699Y-2486947D01*
X23875132Y-2390061D01*
X23847405Y-2292611D01*
X23838175Y-2274074D01*
X23752368Y-2101747D01*
X23623873Y-1931594D01*
X23510961Y-1828660D01*
X23481065Y-1787109D01*
X23470500Y-1737023D01*
X23470500Y1737023D01*
X23481065Y1787109D01*
X23510961Y1828660D01*
X23623873Y1931594D01*
X23752368Y2101747D01*
X23847404Y2292609D01*
X23852353Y2310000D01*
X23890897Y2445467D01*
X23905756Y2497689D01*
X23908710Y2529574D01*
X23915792Y2605999D01*
X23935370Y2662250D01*
X23978922Y2702884D01*
X24002181Y2709212D01*
X23982428Y2713779D01*
X23936567Y2754628D01*
X23915933Y2812471D01*
X23905756Y2922310D01*
X23847405Y3127389D01*
X23800080Y3222430D01*
X23752368Y3318252D01*
X23752366Y3318255D01*
X23623872Y3488407D01*
X23466302Y3632052D01*
X23285019Y3744298D01*
X23086198Y3821321D01*
X22913458Y3853611D01*
X22858506Y3878894D01*
X22822053Y3927167D01*
X22812774Y3986941D01*
X22832878Y4043993D01*
X22877581Y4084746D01*
X22936245Y4099500D01*
X25123873Y4099500D01*
X25181694Y4085194D01*
X25226173Y4045577D01*
X25247047Y3989790D01*
X25239500Y3930706D01*
X25205272Y3881958D01*
X25152263Y3854794D01*
X25075256Y3836682D01*
X25069663Y3835501D01*
X24993802Y3821321D01*
X24976881Y3814765D01*
X24960497Y3809691D01*
X24942814Y3805533D01*
X24872206Y3774356D01*
X24866954Y3772180D01*
X24794981Y3744298D01*
X24784684Y3737923D01*
X24779547Y3734742D01*
X24764359Y3726736D01*
X24747763Y3719408D01*
X24692783Y3681745D01*
X24684100Y3675798D01*
X24679300Y3672671D01*
X24613697Y3632052D01*
X24600290Y3619829D01*
X24586829Y3609166D01*
X24571858Y3598911D01*
X24517277Y3544330D01*
X24513157Y3540397D01*
X24456129Y3488408D01*
X24456128Y3488407D01*
X24445196Y3473931D01*
X24445191Y3473924D01*
X24433920Y3460973D01*
X24421089Y3448142D01*
X24406684Y3427113D01*
X24377487Y3384490D01*
X24374141Y3379840D01*
X24327634Y3318255D01*
X24327633Y3318253D01*
X24319540Y3302001D01*
X24310845Y3287205D01*
X24300592Y3272237D01*
X24300590Y3272232D01*
X24269426Y3201654D01*
X24266993Y3196471D01*
X24232595Y3127389D01*
X24227629Y3109938D01*
X24221800Y3093794D01*
X24214465Y3077181D01*
X24196800Y3002072D01*
X24195360Y2996527D01*
X24174244Y2922312D01*
X24172569Y2904237D01*
X24169805Y2887291D01*
X24165651Y2869629D01*
X24163272Y2818185D01*
X24145329Y2759448D01*
X24101402Y2716526D01*
X24076567Y2709563D01*
X24094532Y2705557D01*
X24139915Y2666979D01*
X24162073Y2611689D01*
X24162968Y2605277D01*
X24166306Y2581342D01*
X24166463Y2580222D01*
X24167123Y2574531D01*
X24174244Y2497686D01*
X24179210Y2480231D01*
X24182753Y2463436D01*
X24185260Y2445467D01*
X24209786Y2372289D01*
X24211479Y2366821D01*
X24232595Y2292607D01*
X24240687Y2276356D01*
X24247253Y2260504D01*
X24253020Y2243297D01*
X24290566Y2175888D01*
X24293236Y2170824D01*
X24327635Y2101741D01*
X24338566Y2087267D01*
X24347938Y2072885D01*
X24356772Y2057024D01*
X24406079Y1997646D01*
X24409633Y1993159D01*
X24456128Y1931592D01*
X24513147Y1879611D01*
X24517288Y1875657D01*
X25435657Y957288D01*
X25439611Y953147D01*
X25491592Y896128D01*
X25553159Y849633D01*
X25557646Y846079D01*
X25617024Y796772D01*
X25632885Y787938D01*
X25647267Y778566D01*
X25661741Y767635D01*
X25730824Y733236D01*
X25735888Y730566D01*
X25803297Y693020D01*
X25820504Y687253D01*
X25836356Y680687D01*
X25852607Y672595D01*
X25926821Y651479D01*
X25932289Y649786D01*
X26005467Y625260D01*
X26023436Y622753D01*
X26040231Y619210D01*
X26057686Y614244D01*
X26134532Y607123D01*
X26140220Y606463D01*
X26216636Y595804D01*
X26216637Y595804D01*
X26216638Y595804D01*
X26293728Y599368D01*
X26299454Y599500D01*
X30255531Y599500D01*
X30316006Y583753D01*
X30521043Y469210D01*
X30745831Y389787D01*
X30980797Y349500D01*
X30980800Y349500D01*
X32959497Y349500D01*
X32959501Y349500D01*
X33137539Y364653D01*
X33368250Y424724D01*
X33585485Y522922D01*
X33783002Y656420D01*
X33955118Y821379D01*
X34023770Y914203D01*
X34096879Y1013053D01*
X34204207Y1225926D01*
X34274016Y1453877D01*
X34304298Y1690346D01*
X34294180Y1928532D01*
X34243954Y2161581D01*
X34155064Y2382790D01*
X34030069Y2585795D01*
X33872564Y2764755D01*
X33687080Y2914523D01*
X33478954Y3030790D01*
X33254171Y3110211D01*
X33254170Y3110211D01*
X33254168Y3110212D01*
X33019203Y3150500D01*
X33019200Y3150500D01*
X31040503Y3150500D01*
X31040499Y3150500D01*
X30898067Y3138376D01*
X30862459Y3135346D01*
X30785556Y3115322D01*
X30631749Y3075275D01*
X30414514Y2977077D01*
X30332677Y2921765D01*
X30299550Y2905935D01*
X30263240Y2900500D01*
X26797915Y2900500D01*
X26750462Y2909939D01*
X26710234Y2936819D01*
X26597061Y3049992D01*
X26186072Y3460979D01*
X26174811Y3473920D01*
X26163872Y3488407D01*
X26106828Y3540408D01*
X26102705Y3544347D01*
X26085917Y3561136D01*
X26085916Y3561136D01*
X26085913Y3561140D01*
X26067601Y3576345D01*
X26063355Y3580039D01*
X26006302Y3632052D01*
X25990872Y3641605D01*
X25976943Y3651627D01*
X25962975Y3663227D01*
X25895514Y3700800D01*
X25890662Y3703651D01*
X25825019Y3744298D01*
X25808091Y3750855D01*
X25792555Y3758148D01*
X25776702Y3766979D01*
X25703521Y3791506D01*
X25698172Y3793437D01*
X25626198Y3821321D01*
X25616241Y3823182D01*
X25608365Y3824655D01*
X25591743Y3828972D01*
X25574536Y3834739D01*
X25569087Y3835499D01*
X25498090Y3845402D01*
X25492469Y3846318D01*
X25475453Y3849500D01*
X25453459Y3853612D01*
X25398506Y3878896D01*
X25362054Y3927168D01*
X25352776Y3986943D01*
X25372881Y4043994D01*
X25417584Y4084746D01*
X25476247Y4099500D01*
X30255531Y4099500D01*
X30316006Y4083753D01*
X30521043Y3969210D01*
X30745831Y3889787D01*
X30980797Y3849500D01*
X30980800Y3849500D01*
X32959497Y3849500D01*
X32959501Y3849500D01*
X33137539Y3864653D01*
X33368250Y3924724D01*
X33585485Y4022922D01*
X33783002Y4156420D01*
X33955118Y4321379D01*
X34023770Y4414203D01*
X34096879Y4513053D01*
X34204207Y4725926D01*
X34274016Y4953877D01*
X34304298Y5190346D01*
X34294180Y5428532D01*
X34243954Y5661581D01*
X34155064Y5882790D01*
X34030069Y6085795D01*
X33872564Y6264755D01*
X33687080Y6414523D01*
X33478954Y6530790D01*
X33254171Y6610211D01*
X33254170Y6610211D01*
X33254168Y6610212D01*
X33019203Y6650500D01*
X33019200Y6650500D01*
X31040503Y6650500D01*
X31040499Y6650500D01*
X30911264Y6639500D01*
X30862459Y6635346D01*
X30807773Y6621107D01*
X30631749Y6575275D01*
X30414514Y6477077D01*
X30371455Y6447974D01*
X30332677Y6421765D01*
X30299550Y6405935D01*
X30263240Y6400500D01*
X25476248Y6400500D01*
X25417584Y6415255D01*
X25372881Y6456007D01*
X25352777Y6513060D01*
X25362056Y6572835D01*
X25398511Y6621107D01*
X25453465Y6646389D01*
X25492451Y6653676D01*
X25498102Y6654598D01*
X25574534Y6665260D01*
X25582838Y6668043D01*
X25591750Y6671030D01*
X25608362Y6675344D01*
X25626197Y6678678D01*
X25698146Y6706551D01*
X25703531Y6708495D01*
X25776700Y6733020D01*
X25792557Y6741851D01*
X25808093Y6749144D01*
X25825020Y6755702D01*
X25890621Y6796320D01*
X25895559Y6799222D01*
X25962974Y6836772D01*
X25976942Y6848370D01*
X25990876Y6858396D01*
X26006300Y6867946D01*
X26026071Y6885970D01*
X26063345Y6919949D01*
X26067612Y6923662D01*
X26085913Y6938860D01*
X26102698Y6955645D01*
X26106840Y6959600D01*
X26163872Y7011593D01*
X26174806Y7026071D01*
X26186079Y7039026D01*
X26710234Y7563181D01*
X26750462Y7590061D01*
X26797915Y7599500D01*
X30255531Y7599500D01*
X30316006Y7583753D01*
X30521043Y7469210D01*
X30745831Y7389787D01*
X30980797Y7349500D01*
X30980800Y7349500D01*
X32959497Y7349500D01*
X32959501Y7349500D01*
X33137539Y7364653D01*
X33368250Y7424724D01*
X33585485Y7522922D01*
X33783002Y7656420D01*
X33955118Y7821379D01*
X33967225Y7837749D01*
X34096879Y8013053D01*
X34204207Y8225926D01*
X34274016Y8453877D01*
X34304298Y8690346D01*
X34294180Y8928532D01*
X34243954Y9161581D01*
X34155064Y9382790D01*
X34030069Y9585795D01*
X33872564Y9764755D01*
X33687080Y9914523D01*
X33478954Y10030790D01*
X33254171Y10110211D01*
X33254170Y10110211D01*
X33254168Y10110212D01*
X33019203Y10150500D01*
X33019200Y10150500D01*
X31040503Y10150500D01*
X31040499Y10150500D01*
X30898067Y10138376D01*
X30862459Y10135346D01*
X30785556Y10115322D01*
X30631749Y10075275D01*
X30465913Y10000311D01*
X30414514Y9977077D01*
X30400765Y9967784D01*
X30332677Y9921765D01*
X30299550Y9905935D01*
X30263240Y9900500D01*
X29455216Y9900500D01*
X29398921Y9914015D01*
X29354898Y9951615D01*
X29332743Y10005102D01*
X29337285Y10062818D01*
X29368666Y10159400D01*
X29385674Y10211744D01*
X29405460Y10400000D01*
X29385674Y10588256D01*
X29327179Y10768284D01*
X29327178Y10768284D01*
X29243339Y10913500D01*
X29226726Y10975500D01*
X29243339Y11037500D01*
X29288726Y11082887D01*
X29350726Y11099500D01*
X30255531Y11099500D01*
X30316006Y11083753D01*
X30521043Y10969210D01*
X30745831Y10889787D01*
X30980797Y10849500D01*
X30980800Y10849500D01*
X32959497Y10849500D01*
X32959501Y10849500D01*
X33137539Y10864653D01*
X33368250Y10924724D01*
X33585485Y11022922D01*
X33783002Y11156420D01*
X33955118Y11321379D01*
X34011656Y11397824D01*
X34096879Y11513053D01*
X34204207Y11725926D01*
X34274016Y11953877D01*
X34304298Y12190346D01*
X34294180Y12428532D01*
X34243954Y12661581D01*
X34155064Y12882790D01*
X34030069Y13085795D01*
X33872564Y13264755D01*
X33687080Y13414523D01*
X33478954Y13530790D01*
X33254171Y13610211D01*
X33254170Y13610211D01*
X33254168Y13610212D01*
X33019203Y13650500D01*
X33019200Y13650500D01*
X31040503Y13650500D01*
X31040499Y13650500D01*
X30898067Y13638376D01*
X30862459Y13635346D01*
X30785556Y13615322D01*
X30631749Y13575275D01*
X30414514Y13477077D01*
X30332677Y13421765D01*
X30299550Y13405935D01*
X30263240Y13400500D01*
X26797915Y13400500D01*
X26750462Y13409939D01*
X26710234Y13436819D01*
X26602987Y13544066D01*
X26186072Y13960979D01*
X26174811Y13973920D01*
X26163872Y13988407D01*
X26106828Y14040408D01*
X26102705Y14044347D01*
X26085917Y14061136D01*
X26085916Y14061136D01*
X26085913Y14061140D01*
X26067601Y14076345D01*
X26063355Y14080039D01*
X26006302Y14132052D01*
X25990872Y14141605D01*
X25976943Y14151627D01*
X25962975Y14163227D01*
X25895514Y14200800D01*
X25890662Y14203651D01*
X25825019Y14244298D01*
X25808091Y14250855D01*
X25792555Y14258148D01*
X25776702Y14266979D01*
X25703521Y14291506D01*
X25698172Y14293437D01*
X25626198Y14321321D01*
X25616241Y14323182D01*
X25608365Y14324655D01*
X25591743Y14328972D01*
X25574536Y14334739D01*
X25569087Y14335499D01*
X25498090Y14345402D01*
X25492469Y14346318D01*
X25475453Y14349500D01*
X25453459Y14353612D01*
X25398506Y14378896D01*
X25362054Y14427168D01*
X25352776Y14486943D01*
X25372881Y14543994D01*
X25417584Y14584746D01*
X25476247Y14599500D01*
X30255531Y14599500D01*
X30316006Y14583753D01*
X30521043Y14469210D01*
X30745831Y14389787D01*
X30980797Y14349500D01*
X30980800Y14349500D01*
X32959497Y14349500D01*
X32959501Y14349500D01*
X33137539Y14364653D01*
X33368250Y14424724D01*
X33585485Y14522922D01*
X33783002Y14656420D01*
X33955118Y14821379D01*
X34023770Y14914203D01*
X34096879Y15013053D01*
X34204207Y15225926D01*
X34274016Y15453877D01*
X34304298Y15690346D01*
X34294180Y15928532D01*
X34243954Y16161581D01*
X34155064Y16382790D01*
X34030069Y16585795D01*
X33872564Y16764755D01*
X33687080Y16914523D01*
X33478954Y17030790D01*
X33254171Y17110211D01*
X33254170Y17110211D01*
X33254168Y17110212D01*
X33019203Y17150500D01*
X33019200Y17150500D01*
X31040503Y17150500D01*
X31040499Y17150500D01*
X30911264Y17139500D01*
X30862459Y17135346D01*
X30807773Y17121107D01*
X30631749Y17075275D01*
X30414514Y16977077D01*
X30332677Y16921765D01*
X30299550Y16905935D01*
X30263240Y16900500D01*
X25476248Y16900500D01*
X25417584Y16915255D01*
X25372881Y16956007D01*
X25352777Y17013060D01*
X25362056Y17072835D01*
X25398511Y17121107D01*
X25453465Y17146389D01*
X25492451Y17153676D01*
X25498102Y17154598D01*
X25574534Y17165260D01*
X25582838Y17168043D01*
X25591750Y17171030D01*
X25608362Y17175344D01*
X25626197Y17178678D01*
X25698146Y17206551D01*
X25703531Y17208495D01*
X25776700Y17233020D01*
X25792557Y17241851D01*
X25808093Y17249144D01*
X25825020Y17255702D01*
X25890621Y17296320D01*
X25895559Y17299222D01*
X25962974Y17336772D01*
X25976942Y17348370D01*
X25990876Y17358396D01*
X26006300Y17367946D01*
X26026071Y17385970D01*
X26063345Y17419949D01*
X26067612Y17423662D01*
X26085913Y17438860D01*
X26102698Y17455645D01*
X26106840Y17459600D01*
X26163872Y17511593D01*
X26174806Y17526071D01*
X26186079Y17539026D01*
X26710234Y18063181D01*
X26750462Y18090061D01*
X26797915Y18099500D01*
X30255531Y18099500D01*
X30316006Y18083753D01*
X30521043Y17969210D01*
X30745831Y17889787D01*
X30980797Y17849500D01*
X30980800Y17849500D01*
X32959497Y17849500D01*
X32959501Y17849500D01*
X33137539Y17864653D01*
X33368250Y17924724D01*
X33585485Y18022922D01*
X33783002Y18156420D01*
X33955118Y18321379D01*
X33967225Y18337749D01*
X34096879Y18513053D01*
X34204207Y18725926D01*
X34274016Y18953877D01*
X34304298Y19190346D01*
X34294180Y19428532D01*
X34243954Y19661581D01*
X34155064Y19882790D01*
X34030069Y20085795D01*
X33872564Y20264755D01*
X33687080Y20414523D01*
X33478954Y20530790D01*
X33254171Y20610211D01*
X33254170Y20610211D01*
X33254168Y20610212D01*
X33019203Y20650500D01*
X33019200Y20650500D01*
X31040503Y20650500D01*
X31040499Y20650500D01*
X30898067Y20638376D01*
X30862459Y20635346D01*
X30785556Y20615322D01*
X30631749Y20575275D01*
X30414514Y20477077D01*
X30332677Y20421765D01*
X30299550Y20405935D01*
X30263240Y20400500D01*
X26299454Y20400500D01*
X26293728Y20400632D01*
X26293124Y20400659D01*
X26216638Y20404196D01*
X26140213Y20393535D01*
X26134525Y20392875D01*
X26057690Y20385756D01*
X26040228Y20380787D01*
X26023436Y20377245D01*
X26005464Y20374739D01*
X25932247Y20350198D01*
X25926869Y20348533D01*
X25852611Y20327405D01*
X25841982Y20322112D01*
X25836368Y20319317D01*
X25820502Y20312745D01*
X25803298Y20306979D01*
X25735863Y20269418D01*
X25730838Y20266770D01*
X25661741Y20232364D01*
X25647269Y20221435D01*
X25632882Y20212060D01*
X25617028Y20203229D01*
X25617026Y20203228D01*
X25617025Y20203227D01*
X25557628Y20153904D01*
X25553168Y20150372D01*
X25491593Y20103872D01*
X25491591Y20103870D01*
X25439600Y20046840D01*
X25435645Y20042698D01*
X24517299Y19124352D01*
X24513157Y19120397D01*
X24485077Y19094798D01*
X24456128Y19068407D01*
X24425561Y19027930D01*
X24409642Y19006851D01*
X24406087Y19002363D01*
X24356773Y18942975D01*
X24347941Y18927119D01*
X24338566Y18912731D01*
X24327632Y18898253D01*
X24293241Y18829185D01*
X24290577Y18824129D01*
X24262193Y18773169D01*
X24253019Y18756698D01*
X24247252Y18739493D01*
X24240684Y18723635D01*
X24232594Y18707387D01*
X24211479Y18633178D01*
X24209785Y18627708D01*
X24196831Y18589057D01*
X24185261Y18554536D01*
X24182754Y18536562D01*
X24179209Y18519759D01*
X24174243Y18502308D01*
X24167123Y18425468D01*
X24166465Y18419794D01*
X24164438Y18405263D01*
X24162073Y18388310D01*
X24139915Y18333020D01*
X24094532Y18294442D01*
X24076567Y18290435D01*
X24101402Y18283473D01*
X24145329Y18240551D01*
X24163272Y18181814D01*
X24165651Y18130369D01*
X24169805Y18112705D01*
X24172568Y18095767D01*
X24174243Y18077689D01*
X24195358Y18003482D01*
X24196798Y17997937D01*
X24214467Y17922812D01*
X24221801Y17906200D01*
X24227627Y17890065D01*
X24232594Y17872611D01*
X24266985Y17803543D01*
X24269417Y17798362D01*
X24300592Y17727762D01*
X24310844Y17712795D01*
X24319539Y17698000D01*
X24327633Y17681745D01*
X24374135Y17620167D01*
X24377479Y17615519D01*
X24421089Y17551857D01*
X24433928Y17539017D01*
X24445189Y17526075D01*
X24456123Y17511596D01*
X24513148Y17459611D01*
X24517288Y17455658D01*
X24571858Y17401089D01*
X24586834Y17390829D01*
X24600285Y17380175D01*
X24613697Y17367948D01*
X24679316Y17327318D01*
X24684113Y17324192D01*
X24747762Y17280591D01*
X24764365Y17273260D01*
X24779541Y17265261D01*
X24794981Y17255702D01*
X24853527Y17233021D01*
X24866918Y17227833D01*
X24872207Y17225642D01*
X24942816Y17194466D01*
X24960488Y17190309D01*
X24976881Y17185233D01*
X24993801Y17178679D01*
X25069629Y17164503D01*
X25075229Y17163322D01*
X25152258Y17145207D01*
X25205268Y17118044D01*
X25239497Y17069296D01*
X25247045Y17010211D01*
X25226171Y16954424D01*
X25181692Y16914806D01*
X25123871Y16900500D01*
X22936245Y16900500D01*
X22877581Y16915254D01*
X22832878Y16956007D01*
X22812774Y17013059D01*
X22822053Y17072833D01*
X22858506Y17121106D01*
X22913458Y17146388D01*
X23086198Y17178679D01*
X23158145Y17206551D01*
X23285017Y17255701D01*
X23285021Y17255703D01*
X23400224Y17327034D01*
X23466301Y17367947D01*
X23589500Y17480259D01*
X23623872Y17511593D01*
X23623873Y17511594D01*
X23752368Y17681747D01*
X23847404Y17872609D01*
X23852293Y17889789D01*
X23905756Y18077690D01*
X23915933Y18187526D01*
X23936567Y18245371D01*
X23982428Y18286220D01*
X24002181Y18290786D01*
X23978922Y18297115D01*
X23935370Y18337749D01*
X23915792Y18393999D01*
X23905756Y18502310D01*
X23847405Y18707389D01*
X23792237Y18818183D01*
X23752368Y18898252D01*
X23736246Y18919601D01*
X23623872Y19068407D01*
X23466302Y19212052D01*
X23285019Y19324298D01*
X23086198Y19401321D01*
X22876610Y19440500D01*
X22663390Y19440500D01*
X22453802Y19401321D01*
X22254981Y19324298D01*
X22075145Y19212948D01*
X22073698Y19212052D01*
X21916128Y19068407D01*
X21894504Y19039772D01*
X21850821Y19003500D01*
X21795550Y18990500D01*
X21164921Y18990500D01*
X21157435Y18990726D01*
X21145831Y18991427D01*
X21108792Y18993668D01*
X21045836Y19015394D01*
X21013871Y19053753D01*
X21013166Y19053200D01*
X21003878Y19065054D01*
X21003877Y19065057D01*
X20966775Y19112411D01*
X20962369Y19118399D01*
X20928183Y19167929D01*
X20883142Y19207829D01*
X20877723Y19212931D01*
X18812924Y21277731D01*
X18807823Y21283150D01*
X18767929Y21328183D01*
X18718420Y21362355D01*
X18712413Y21366775D01*
X18665057Y21403878D01*
X18655819Y21408035D01*
X18636270Y21419060D01*
X18627930Y21424818D01*
X18571673Y21446152D01*
X18564808Y21448996D01*
X18509932Y21473695D01*
X18499958Y21475522D01*
X18478335Y21481550D01*
X18468872Y21485140D01*
X18409181Y21492387D01*
X18401782Y21493513D01*
X18342606Y21504358D01*
X18285706Y21500915D01*
X18282566Y21500726D01*
X18275079Y21500500D01*
X-425500Y21500500D01*
X-487500Y21517113D01*
X-532887Y21562500D01*
X-549500Y21624500D01*
X-549500Y23368001D01*
X-532887Y23430001D01*
X-487500Y23475388D01*
X-425500Y23492001D01*
X-352130Y23492001D01*
X-352128Y23492001D01*
X-322322Y23495205D01*
X-292515Y23498409D01*
X-157669Y23548704D01*
X-42454Y23634954D01*
X43796Y23750169D01*
X81944Y23852449D01*
X116923Y23902828D01*
X171768Y23930281D01*
X233060Y23928092D01*
X285807Y23896797D01*
X378598Y23804005D01*
X501748Y23717774D01*
X572170Y23668465D01*
X572171Y23668464D01*
X572172Y23668464D01*
X786337Y23568597D01*
X1014592Y23507436D01*
X1250000Y23486840D01*
X1485407Y23507436D01*
X1652501Y23552209D01*
X1713663Y23568597D01*
X1927830Y23668465D01*
X2121401Y23804005D01*
X2288495Y23971099D01*
X2303501Y23992529D01*
X2343071Y24028791D01*
X2394262Y24044933D01*
X2447479Y24037929D01*
X2476647Y24019349D01*
X2476930Y24019817D01*
X2610857Y23938855D01*
X2635394Y23924022D01*
X2703409Y23902828D01*
X2797806Y23873413D01*
X2868383Y23867000D01*
X2868384Y23867000D01*
X3381616Y23867000D01*
X3381617Y23867000D01*
X3452193Y23873413D01*
X3466241Y23877790D01*
X3614606Y23924022D01*
X3692476Y23971096D01*
X3760186Y24012028D01*
X3862319Y24114161D01*
X3917906Y24146255D01*
X3982094Y24146255D01*
X4037681Y24114161D01*
X4139813Y24012028D01*
X4260857Y23938855D01*
X4285394Y23924022D01*
X4353409Y23902828D01*
X4447806Y23873413D01*
X4518383Y23867000D01*
X4518384Y23867000D01*
X5031616Y23867000D01*
X5031617Y23867000D01*
X5102193Y23873413D01*
X5116241Y23877790D01*
X5264606Y23924022D01*
X5342476Y23971096D01*
X5410186Y24012028D01*
X5503839Y24105681D01*
X5544067Y24132561D01*
X5591520Y24142000D01*
X7142579Y24142000D01*
X7150066Y24141774D01*
X7210107Y24138141D01*
X7269271Y24148983D01*
X7276672Y24150110D01*
X7336373Y24157360D01*
X7345839Y24160950D01*
X7367452Y24166975D01*
X7377429Y24168803D01*
X7432283Y24193491D01*
X7439201Y24196356D01*
X7495426Y24217680D01*
X7495427Y24217681D01*
X7495430Y24217682D01*
X7503773Y24223441D01*
X7523313Y24234461D01*
X7532554Y24238620D01*
X7579905Y24275716D01*
X7585936Y24280154D01*
X7635429Y24314317D01*
X7660292Y24342382D01*
X7690675Y24367292D01*
X7727327Y24381446D01*
X7879802Y24413855D01*
X8052730Y24490848D01*
X8205870Y24602110D01*
X8332533Y24742783D01*
X8427179Y24906715D01*
X8485673Y25086742D01*
X8485674Y25086744D01*
X8505460Y25275000D01*
X8494880Y25375665D01*
X23999500Y25375665D01*
X24040429Y25130384D01*
X24121170Y24895194D01*
X24239529Y24676485D01*
X24392259Y24480259D01*
X24392261Y24480256D01*
X24392262Y24480256D01*
X24575215Y24311836D01*
X24623708Y24280154D01*
X24783395Y24175825D01*
X24988678Y24085780D01*
X25011119Y24075937D01*
X25232731Y24019817D01*
X25252183Y24014891D01*
X25437927Y23999500D01*
X25437933Y23999500D01*
X25562067Y23999500D01*
X25562073Y23999500D01*
X25747816Y24014891D01*
X25747819Y24014891D01*
X25747821Y24014892D01*
X25988881Y24075937D01*
X26117971Y24132561D01*
X26216604Y24175825D01*
X26280671Y24217682D01*
X26424785Y24311836D01*
X26607738Y24480256D01*
X26702581Y24602110D01*
X26760470Y24676485D01*
X26760471Y24676487D01*
X26760474Y24676491D01*
X26878828Y24895190D01*
X26959571Y25130386D01*
X27000500Y25375665D01*
X27000500Y25624335D01*
X26959571Y25869614D01*
X26878828Y26104810D01*
X26760474Y26323509D01*
X26607738Y26519744D01*
X26424785Y26688164D01*
X26216607Y26824173D01*
X25988881Y26924063D01*
X25747821Y26985108D01*
X25663387Y26992104D01*
X25562073Y27000500D01*
X25562067Y27000500D01*
X25437933Y27000500D01*
X25437927Y27000500D01*
X25326480Y26991264D01*
X25252179Y26985108D01*
X25011119Y26924063D01*
X24783393Y26824173D01*
X24575215Y26688164D01*
X24392262Y26519744D01*
X24392259Y26519740D01*
X24239529Y26323514D01*
X24239526Y26323510D01*
X24239526Y26323509D01*
X24121172Y26104810D01*
X24121170Y26104806D01*
X24121170Y26104805D01*
X24040429Y25869615D01*
X23999500Y25624335D01*
X23999500Y25375665D01*
X8494880Y25375665D01*
X8485674Y25463256D01*
X8427179Y25643284D01*
X8372492Y25738003D01*
X8355881Y25800000D01*
X8372492Y25861996D01*
X8427179Y25956716D01*
X8430930Y25968258D01*
X8477635Y26112003D01*
X8485674Y26136744D01*
X8505460Y26325000D01*
X8485674Y26513256D01*
X8427179Y26693284D01*
X8332533Y26857216D01*
X8205871Y26997888D01*
X8168554Y27025000D01*
X8052730Y27109151D01*
X7879803Y27186144D01*
X7724874Y27219075D01*
X7691487Y27231391D01*
X7662975Y27252680D01*
X7595416Y27320239D01*
X7590316Y27325658D01*
X7550429Y27370683D01*
X7500920Y27404855D01*
X7494913Y27409275D01*
X7447557Y27446378D01*
X7438319Y27450535D01*
X7418770Y27461560D01*
X7410430Y27467318D01*
X7354173Y27488652D01*
X7347329Y27491487D01*
X7335656Y27496740D01*
X7285306Y27538222D01*
X7262980Y27599524D01*
X7274861Y27663675D01*
X7317661Y27712915D01*
X7392957Y27763226D01*
X7520979Y27875500D01*
X7614758Y27957742D01*
X7718389Y28075910D01*
X7809273Y28179542D01*
X7973172Y28424835D01*
X8103652Y28689422D01*
X8135261Y28782541D01*
X8198481Y28968778D01*
X8227455Y29114444D01*
X8256033Y29258113D01*
X8256033Y29258115D01*
X8256034Y29258120D01*
X8275329Y29552500D01*
X8256034Y29846880D01*
X8198481Y30136222D01*
X8103652Y30415577D01*
X7973172Y30680164D01*
X7809273Y30925457D01*
X7614758Y31147258D01*
X7392957Y31341773D01*
X7147665Y31505672D01*
X6883077Y31636152D01*
X6603722Y31730981D01*
X6385222Y31774442D01*
X6314386Y31788533D01*
X6314384Y31788533D01*
X6314380Y31788534D01*
X6020000Y31807829D01*
X5725620Y31788534D01*
X5725615Y31788533D01*
X5725613Y31788533D01*
X5581944Y31759955D01*
X5436278Y31730981D01*
X5250041Y31667761D01*
X5156922Y31636152D01*
X4892336Y31505672D01*
X4647043Y31341773D01*
X4425242Y31147258D01*
X4295186Y30998958D01*
X4230726Y30925456D01*
X4066827Y30680163D01*
X3936347Y30415577D01*
X3909722Y30337141D01*
X3883725Y30293227D01*
X3842244Y30263501D01*
X3792303Y30253000D01*
X-3792303Y30253000D01*
X-3842244Y30263501D01*
X-3883725Y30293227D01*
X-3909722Y30337141D01*
X-3936347Y30415577D01*
X-4066827Y30680163D01*
X-4230726Y30925456D01*
X-4295186Y30998958D01*
X-4425242Y31147258D01*
X-4543410Y31250889D01*
X-4647042Y31341773D01*
X-4892335Y31505672D01*
X-5156922Y31636152D01*
X-5250041Y31667761D01*
X-5436278Y31730981D01*
X-5581944Y31759955D01*
X-5725613Y31788533D01*
X-5725615Y31788533D01*
X-5725620Y31788534D01*
X-6020000Y31807829D01*
X-6314380Y31788534D01*
X-6314384Y31788533D01*
X-6314386Y31788533D01*
X-6385222Y31774442D01*
X-6603722Y31730981D01*
X-6883077Y31636152D01*
X-7147664Y31505672D01*
X-7392957Y31341773D01*
X-7614758Y31147258D01*
X-7809273Y30925457D01*
X-7973172Y30680164D01*
X-8103652Y30415577D01*
X-8198481Y30136222D01*
X-8256034Y29846880D01*
X-8275329Y29552500D01*
X-8256034Y29258120D01*
X-8256033Y29258115D01*
X-8256033Y29258113D01*
X-8227455Y29114444D01*
X-8198481Y28968778D01*
X-8135261Y28782541D01*
X-8103652Y28689422D01*
X-7973172Y28424835D01*
X-7809273Y28179542D01*
X-7718389Y28075910D01*
X-7614758Y27957742D01*
X-7520979Y27875500D01*
X-7392957Y27763226D01*
X-7147664Y27599327D01*
X-6883077Y27468847D01*
X-6603719Y27374018D01*
X-6314386Y27316466D01*
X-6020000Y27297171D01*
X-5725613Y27316466D01*
X-5436280Y27374018D01*
X-5156922Y27468847D01*
X-4892335Y27599327D01*
X-4647042Y27763226D01*
X-4425603Y27957425D01*
X-2011373Y27957425D01*
X-1250000Y27196053D01*
X-488625Y27957425D01*
X-572420Y28016099D01*
X-786507Y28115930D01*
X-1014681Y28177069D01*
X-1250000Y28197657D01*
X-1485318Y28177069D01*
X-1713492Y28115930D01*
X-1927578Y28016099D01*
X-2011373Y27957425D01*
X-4425603Y27957425D01*
X-4425242Y27957742D01*
X-4230726Y28179542D01*
X-4066827Y28424835D01*
X-3936347Y28689422D01*
X-3909722Y28767859D01*
X-3883725Y28811773D01*
X-3842244Y28841499D01*
X-3792303Y28852000D01*
X3792303Y28852000D01*
X3842244Y28841499D01*
X3883725Y28811773D01*
X3909722Y28767859D01*
X3936347Y28689422D01*
X4066827Y28424835D01*
X4230726Y28179542D01*
X4386865Y28001502D01*
X4403190Y27982887D01*
X4404991Y27980834D01*
X4432699Y27926472D01*
X4431124Y27865476D01*
X4400649Y27812616D01*
X4348653Y27780690D01*
X4285394Y27760978D01*
X4190155Y27703404D01*
X4139813Y27672971D01*
X4037681Y27570839D01*
X3982094Y27538745D01*
X3917906Y27538745D01*
X3862319Y27570839D01*
X3760186Y27672971D01*
X3760185Y27672971D01*
X3760185Y27672972D01*
X3614606Y27760978D01*
X3452196Y27811586D01*
X3399261Y27816396D01*
X3381617Y27818000D01*
X3381616Y27818000D01*
X2868384Y27818000D01*
X2868383Y27818000D01*
X2844857Y27815862D01*
X2797804Y27811586D01*
X2635394Y27760978D01*
X2522073Y27692473D01*
X2476930Y27665183D01*
X2476647Y27665650D01*
X2447490Y27647074D01*
X2394270Y27640066D01*
X2343075Y27656207D01*
X2303500Y27692470D01*
X2288495Y27713901D01*
X2121401Y27880995D01*
X1927830Y28016535D01*
X1713663Y28116403D01*
X1485408Y28177563D01*
X1250000Y28198159D01*
X1014592Y28177563D01*
X786337Y28116403D01*
X572171Y28016535D01*
X378599Y27880995D01*
X211505Y27713901D01*
X111333Y27570839D01*
X101270Y27556468D01*
X56952Y27517602D01*
X-305Y27503591D01*
X-57562Y27517602D01*
X-101880Y27556468D01*
X-135072Y27603872D01*
X-135073Y27603873D01*
X-1162318Y26576628D01*
X-1217905Y26544534D01*
X-1282093Y26544534D01*
X-1337680Y26576628D01*
X-2364925Y27603873D01*
X-2423599Y27520078D01*
X-2496624Y27363477D01*
X-2539367Y27313283D01*
X-2601796Y27292092D01*
X-2666263Y27305893D01*
X-2714544Y27350785D01*
X-2777426Y27452732D01*
X-2897267Y27572573D01*
X-3041513Y27661546D01*
X-3202393Y27714856D01*
X-3301685Y27725000D01*
X-3350000Y27725000D01*
X-3350000Y26649000D01*
X-3366613Y26587000D01*
X-3412000Y26541613D01*
X-3474000Y26525000D01*
X-4574999Y26525000D01*
X-4574999Y26501685D01*
X-4564856Y26402394D01*
X-4511546Y26241513D01*
X-4422574Y26097269D01*
X-4413341Y26088036D01*
X-4381245Y26032448D01*
X-4381245Y25968258D01*
X-4413339Y25912672D01*
X-4422968Y25903044D01*
X-4512003Y25758697D01*
X-4540410Y25672970D01*
X-4555313Y25627996D01*
X-4581192Y25583671D01*
X-4622804Y25553623D01*
X-4673019Y25543000D01*
X-8150340Y25543000D01*
X-8188658Y25549069D01*
X-8223222Y25566679D01*
X-8247270Y25584151D01*
X-8247273Y25584153D01*
X-8420197Y25661144D01*
X-8605352Y25700500D01*
X-8605354Y25700500D01*
X-8794646Y25700500D01*
X-8794648Y25700500D01*
X-8918083Y25674262D01*
X-8979803Y25661144D01*
X-9152730Y25584151D01*
X-9176777Y25566679D01*
X-9211342Y25549069D01*
X-9249660Y25543000D01*
X-16192590Y25543000D01*
X-16200077Y25543226D01*
X-16201196Y25543293D01*
X-16260106Y25546857D01*
X-16319266Y25536015D01*
X-16326665Y25534889D01*
X-16386372Y25527640D01*
X-16395848Y25524045D01*
X-16417470Y25518019D01*
X-16427432Y25516194D01*
X-16482273Y25491510D01*
X-16489168Y25488654D01*
X-16545430Y25467318D01*
X-16553773Y25461558D01*
X-16573320Y25450533D01*
X-16582557Y25446377D01*
X-16629907Y25409279D01*
X-16635916Y25404858D01*
X-16685429Y25370683D01*
X-16725322Y25325651D01*
X-16730424Y25320231D01*
X-20225896Y21824760D01*
X-22573837Y19476819D01*
X-22614065Y19449939D01*
X-22661518Y19440500D01*
X-22663390Y19440500D01*
X-22876610Y19440500D01*
X-23086198Y19401321D01*
X-23285019Y19324298D01*
X-23466302Y19212052D01*
X-23623872Y19068407D01*
X-23736246Y18919601D01*
X-23752368Y18898252D01*
X-23792237Y18818183D01*
X-23847405Y18707389D01*
X-23905756Y18502310D01*
X-23915792Y18393999D01*
X-23935370Y18337749D01*
X-23978922Y18297115D01*
X-24002181Y18290786D01*
X-23982428Y18286220D01*
X-23936567Y18245371D01*
X-23915933Y18187526D01*
X-23905756Y18077690D01*
X-23852293Y17889789D01*
X-23847404Y17872609D01*
X-23752368Y17681747D01*
X-23623873Y17511594D01*
X-23623872Y17511593D01*
X-23589500Y17480259D01*
X-23466301Y17367947D01*
X-23400224Y17327034D01*
X-23285021Y17255703D01*
X-23285017Y17255701D01*
X-23158145Y17206551D01*
X-23086198Y17178679D01*
X-22913458Y17146388D01*
X-22858506Y17121106D01*
X-22822053Y17072833D01*
X-22812774Y17013059D01*
X-22832878Y16956007D01*
X-22877581Y16915254D01*
X-22936245Y16900500D01*
X-25123871Y16900500D01*
X-25181692Y16914806D01*
X-25226171Y16954424D01*
X-25247045Y17010211D01*
X-25239497Y17069296D01*
X-25205268Y17118044D01*
X-25152258Y17145207D01*
X-25075229Y17163322D01*
X-25069629Y17164503D01*
X-24993801Y17178679D01*
X-24976881Y17185233D01*
X-24960488Y17190309D01*
X-24942816Y17194466D01*
X-24872207Y17225642D01*
X-24866918Y17227833D01*
X-24853527Y17233021D01*
X-24794981Y17255702D01*
X-24779541Y17265261D01*
X-24764365Y17273260D01*
X-24747762Y17280591D01*
X-24684113Y17324192D01*
X-24679316Y17327318D01*
X-24613697Y17367948D01*
X-24600285Y17380175D01*
X-24586834Y17390829D01*
X-24571858Y17401089D01*
X-24517288Y17455658D01*
X-24513148Y17459611D01*
X-24456123Y17511596D01*
X-24445189Y17526075D01*
X-24433928Y17539017D01*
X-24421089Y17551857D01*
X-24377479Y17615519D01*
X-24374135Y17620167D01*
X-24327633Y17681745D01*
X-24319539Y17698000D01*
X-24310844Y17712795D01*
X-24300592Y17727762D01*
X-24269417Y17798362D01*
X-24266985Y17803543D01*
X-24232594Y17872611D01*
X-24227627Y17890065D01*
X-24221801Y17906200D01*
X-24214467Y17922812D01*
X-24196798Y17997937D01*
X-24195358Y18003482D01*
X-24174243Y18077689D01*
X-24172568Y18095767D01*
X-24169805Y18112705D01*
X-24165651Y18130369D01*
X-24163272Y18181814D01*
X-24145329Y18240551D01*
X-24101402Y18283473D01*
X-24076567Y18290435D01*
X-24094532Y18294442D01*
X-24139915Y18333020D01*
X-24162073Y18388310D01*
X-24164438Y18405263D01*
X-24166465Y18419794D01*
X-24167123Y18425468D01*
X-24174243Y18502308D01*
X-24179209Y18519759D01*
X-24182754Y18536562D01*
X-24185261Y18554536D01*
X-24196831Y18589057D01*
X-24209785Y18627708D01*
X-24211479Y18633178D01*
X-24232594Y18707387D01*
X-24240684Y18723635D01*
X-24247252Y18739493D01*
X-24253019Y18756698D01*
X-24262193Y18773169D01*
X-24290577Y18824129D01*
X-24293241Y18829185D01*
X-24327632Y18898253D01*
X-24338566Y18912731D01*
X-24347941Y18927119D01*
X-24356773Y18942975D01*
X-24406087Y19002363D01*
X-24409642Y19006851D01*
X-24425561Y19027930D01*
X-24456128Y19068407D01*
X-24485077Y19094798D01*
X-24513157Y19120397D01*
X-24517299Y19124352D01*
X-25435645Y20042698D01*
X-25439600Y20046840D01*
X-25491591Y20103870D01*
X-25491593Y20103872D01*
X-25553168Y20150372D01*
X-25557628Y20153904D01*
X-25617025Y20203227D01*
X-25617026Y20203228D01*
X-25617028Y20203229D01*
X-25632882Y20212060D01*
X-25647269Y20221435D01*
X-25661741Y20232364D01*
X-25730838Y20266770D01*
X-25735863Y20269418D01*
X-25803298Y20306979D01*
X-25820502Y20312745D01*
X-25836368Y20319317D01*
X-25841982Y20322112D01*
X-25852611Y20327405D01*
X-25926869Y20348533D01*
X-25932247Y20350198D01*
X-26005464Y20374739D01*
X-26023436Y20377245D01*
X-26040228Y20380787D01*
X-26057690Y20385756D01*
X-26134525Y20392875D01*
X-26140213Y20393535D01*
X-26216638Y20404196D01*
X-26293124Y20400659D01*
X-26293728Y20400632D01*
X-26299454Y20400500D01*
X-29837770Y20400500D01*
X-29885223Y20409939D01*
X-29925448Y20436816D01*
X-29981344Y20492712D01*
X-29981345Y20492713D01*
X-30115201Y20575275D01*
X-30130666Y20584814D01*
X-30242017Y20621712D01*
X-30297202Y20639999D01*
X-30307702Y20641071D01*
X-30399991Y20650500D01*
X-33600008Y20650499D01*
X-33702797Y20639999D01*
X-33869334Y20584814D01*
X-34018656Y20492712D01*
X-34142712Y20368656D01*
X-34234814Y20219334D01*
X-34289999Y20052797D01*
X-34300500Y19950009D01*
X-34300499Y18549992D01*
X-34289999Y18447203D01*
X-34234814Y18280666D01*
X-34191417Y18210308D01*
X-34142711Y18131342D01*
X-34018657Y18007288D01*
X-33869334Y17915186D01*
X-33702797Y17860000D01*
X-33600009Y17849500D01*
X-30399991Y17849500D01*
X-30297203Y17860000D01*
X-30130665Y17915186D01*
X-29981345Y18007286D01*
X-29953398Y18035233D01*
X-29925448Y18063183D01*
X-29885223Y18090061D01*
X-29837770Y18099500D01*
X-26797915Y18099500D01*
X-26750462Y18090061D01*
X-26710234Y18063181D01*
X-26186079Y17539026D01*
X-26174806Y17526071D01*
X-26163872Y17511593D01*
X-26106840Y17459600D01*
X-26102698Y17455645D01*
X-26085913Y17438860D01*
X-26067612Y17423662D01*
X-26063345Y17419949D01*
X-26026071Y17385970D01*
X-26006300Y17367946D01*
X-25990876Y17358396D01*
X-25976942Y17348370D01*
X-25962974Y17336772D01*
X-25895559Y17299222D01*
X-25890621Y17296320D01*
X-25825020Y17255702D01*
X-25808093Y17249144D01*
X-25792557Y17241851D01*
X-25776700Y17233020D01*
X-25703531Y17208495D01*
X-25698146Y17206551D01*
X-25626197Y17178678D01*
X-25608362Y17175344D01*
X-25591750Y17171030D01*
X-25582838Y17168043D01*
X-25574534Y17165260D01*
X-25498102Y17154598D01*
X-25492451Y17153676D01*
X-25453465Y17146389D01*
X-25398511Y17121107D01*
X-25362056Y17072835D01*
X-25352777Y17013060D01*
X-25372881Y16956007D01*
X-25417584Y16915255D01*
X-25476248Y16900500D01*
X-30255531Y16900500D01*
X-30316006Y16916247D01*
X-30521043Y17030789D01*
X-30745831Y17110212D01*
X-30980797Y17150500D01*
X-30980800Y17150500D01*
X-32959497Y17150500D01*
X-32959501Y17150500D01*
X-33078192Y17140397D01*
X-33137541Y17135346D01*
X-33273321Y17099992D01*
X-33368250Y17075275D01*
X-33476867Y17026175D01*
X-33585486Y16977077D01*
X-33783003Y16843579D01*
X-33955118Y16678621D01*
X-34096879Y16486947D01*
X-34204207Y16274074D01*
X-34274016Y16046123D01*
X-34304298Y15809654D01*
X-34294180Y15571468D01*
X-34243954Y15338419D01*
X-34155064Y15117210D01*
X-34030069Y14914205D01*
X-33948372Y14821379D01*
X-33872562Y14735243D01*
X-33687085Y14585480D01*
X-33687080Y14585477D01*
X-33674116Y14578235D01*
X-33478951Y14469208D01*
X-33254168Y14389787D01*
X-33019203Y14349500D01*
X-33019200Y14349500D01*
X-31040503Y14349500D01*
X-31040499Y14349500D01*
X-30862460Y14364653D01*
X-30631749Y14424724D01*
X-30414514Y14522922D01*
X-30332677Y14578235D01*
X-30299550Y14594065D01*
X-30263240Y14599500D01*
X-25476247Y14599500D01*
X-25417584Y14584746D01*
X-25372881Y14543994D01*
X-25352776Y14486943D01*
X-25362054Y14427168D01*
X-25398506Y14378896D01*
X-25453459Y14353612D01*
X-25475453Y14349500D01*
X-25492469Y14346318D01*
X-25498090Y14345402D01*
X-25569087Y14335499D01*
X-25574536Y14334739D01*
X-25591743Y14328972D01*
X-25608365Y14324655D01*
X-25616241Y14323182D01*
X-25626198Y14321321D01*
X-25698172Y14293437D01*
X-25703521Y14291506D01*
X-25776702Y14266979D01*
X-25792555Y14258148D01*
X-25808091Y14250855D01*
X-25825019Y14244298D01*
X-25890662Y14203651D01*
X-25895514Y14200800D01*
X-25962975Y14163227D01*
X-25976943Y14151627D01*
X-25990872Y14141605D01*
X-26006302Y14132052D01*
X-26063355Y14080039D01*
X-26067601Y14076345D01*
X-26085913Y14061140D01*
X-26085916Y14061136D01*
X-26085917Y14061136D01*
X-26102705Y14044347D01*
X-26106828Y14040408D01*
X-26163872Y13988407D01*
X-26174811Y13973920D01*
X-26186072Y13960979D01*
X-26602987Y13544066D01*
X-26710234Y13436819D01*
X-26750462Y13409939D01*
X-26797915Y13400500D01*
X-30255531Y13400500D01*
X-30316006Y13416247D01*
X-30521043Y13530789D01*
X-30745831Y13610212D01*
X-30980797Y13650500D01*
X-30980800Y13650500D01*
X-32959497Y13650500D01*
X-32959501Y13650500D01*
X-33078193Y13640397D01*
X-33137541Y13635346D01*
X-33266896Y13601665D01*
X-33368250Y13575275D01*
X-33476867Y13526175D01*
X-33585486Y13477077D01*
X-33783003Y13343579D01*
X-33955118Y13178621D01*
X-34096879Y12986947D01*
X-34204207Y12774074D01*
X-34274016Y12546123D01*
X-34304298Y12309654D01*
X-34294180Y12071468D01*
X-34243954Y11838419D01*
X-34155064Y11617210D01*
X-34030069Y11414205D01*
X-33880709Y11244499D01*
X-33872562Y11235243D01*
X-33687085Y11085480D01*
X-33687080Y11085477D01*
X-33616666Y11046141D01*
X-33478951Y10969208D01*
X-33254168Y10889787D01*
X-33019203Y10849500D01*
X-33019200Y10849500D01*
X-31040503Y10849500D01*
X-31040499Y10849500D01*
X-30862460Y10864653D01*
X-30631749Y10924724D01*
X-30414514Y11022922D01*
X-30332677Y11078235D01*
X-30299550Y11094065D01*
X-30263240Y11099500D01*
X-29608461Y11099500D01*
X-29546461Y11082887D01*
X-29501074Y11037500D01*
X-29484461Y10975500D01*
X-29501074Y10913500D01*
X-29527179Y10868284D01*
X-29585674Y10688256D01*
X-29605460Y10500000D01*
X-29585674Y10311744D01*
X-29585673Y10311742D01*
X-29527179Y10131715D01*
X-29501074Y10086500D01*
X-29484461Y10024500D01*
X-29501074Y9962500D01*
X-29546461Y9917113D01*
X-29608461Y9900500D01*
X-30255531Y9900500D01*
X-30316006Y9916247D01*
X-30521043Y10030789D01*
X-30745831Y10110212D01*
X-30980797Y10150500D01*
X-30980800Y10150500D01*
X-32959497Y10150500D01*
X-32959501Y10150500D01*
X-33078193Y10140397D01*
X-33137541Y10135346D01*
X-33250600Y10105908D01*
X-33368250Y10075275D01*
X-33476867Y10026175D01*
X-33585486Y9977077D01*
X-33783003Y9843579D01*
X-33955118Y9678621D01*
X-34096879Y9486947D01*
X-34204207Y9274074D01*
X-34274016Y9046123D01*
X-34304298Y8809654D01*
X-34294180Y8571468D01*
X-34243954Y8338419D01*
X-34155064Y8117210D01*
X-34030069Y7914205D01*
X-33920755Y7790000D01*
X-33872562Y7735243D01*
X-33687085Y7585480D01*
X-33687080Y7585477D01*
X-33606006Y7540186D01*
X-33478951Y7469208D01*
X-33254168Y7389787D01*
X-33019203Y7349500D01*
X-33019200Y7349500D01*
X-31040503Y7349500D01*
X-31040499Y7349500D01*
X-30862460Y7364653D01*
X-30631749Y7424724D01*
X-30414514Y7522922D01*
X-30332677Y7578235D01*
X-30299550Y7594065D01*
X-30263240Y7599500D01*
X-26797915Y7599500D01*
X-26750462Y7590061D01*
X-26710234Y7563181D01*
X-26186079Y7039026D01*
X-26174806Y7026071D01*
X-26163872Y7011593D01*
X-26106840Y6959600D01*
X-26102698Y6955645D01*
X-26085913Y6938860D01*
X-26067612Y6923662D01*
X-26063345Y6919949D01*
X-26026071Y6885970D01*
X-26006300Y6867946D01*
X-25990876Y6858396D01*
X-25976942Y6848370D01*
X-25962974Y6836772D01*
X-25895559Y6799222D01*
X-25890621Y6796320D01*
X-25825020Y6755702D01*
X-25808093Y6749144D01*
X-25792557Y6741851D01*
X-25776700Y6733020D01*
X-25703531Y6708495D01*
X-25698146Y6706551D01*
X-25626197Y6678678D01*
X-25608362Y6675344D01*
X-25591750Y6671030D01*
X-25582838Y6668043D01*
X-25574534Y6665260D01*
X-25498102Y6654598D01*
X-25492451Y6653676D01*
X-25453465Y6646389D01*
X-25398511Y6621107D01*
X-25362056Y6572835D01*
X-25352777Y6513060D01*
X-25372881Y6456007D01*
X-25417584Y6415255D01*
X-25476248Y6400500D01*
X-30255531Y6400500D01*
X-30316006Y6416247D01*
X-30521043Y6530789D01*
X-30745831Y6610212D01*
X-30980797Y6650500D01*
X-30980800Y6650500D01*
X-32959497Y6650500D01*
X-32959501Y6650500D01*
X-33078193Y6640397D01*
X-33137541Y6635346D01*
X-33291346Y6595298D01*
X-33368250Y6575275D01*
X-33472987Y6527930D01*
X-33585486Y6477077D01*
X-33783003Y6343579D01*
X-33955118Y6178621D01*
X-34096879Y5986947D01*
X-34204207Y5774074D01*
X-34274016Y5546123D01*
X-34304298Y5309654D01*
X-34294180Y5071468D01*
X-34243954Y4838419D01*
X-34155064Y4617210D01*
X-34030069Y4414205D01*
X-33948372Y4321379D01*
X-33872562Y4235243D01*
X-33687085Y4085480D01*
X-33687080Y4085477D01*
X-33615656Y4045577D01*
X-33478951Y3969208D01*
X-33254168Y3889787D01*
X-33019203Y3849500D01*
X-33019200Y3849500D01*
X-31040503Y3849500D01*
X-31040499Y3849500D01*
X-30862460Y3864653D01*
X-30631749Y3924724D01*
X-30414514Y4022922D01*
X-30332677Y4078235D01*
X-30299550Y4094065D01*
X-30263240Y4099500D01*
X-25476247Y4099500D01*
X-25417584Y4084746D01*
X-25372881Y4043994D01*
X-25352776Y3986943D01*
X-25362054Y3927168D01*
X-25398506Y3878896D01*
X-25453459Y3853612D01*
X-25475453Y3849500D01*
X-25492469Y3846318D01*
X-25498090Y3845402D01*
X-25569087Y3835499D01*
X-25574536Y3834739D01*
X-25591743Y3828972D01*
X-25608365Y3824655D01*
X-25616241Y3823182D01*
X-25626198Y3821321D01*
X-25698172Y3793437D01*
X-25703521Y3791506D01*
X-25776702Y3766979D01*
X-25792555Y3758148D01*
X-25808091Y3750855D01*
X-25825019Y3744298D01*
X-25890662Y3703651D01*
X-25895514Y3700800D01*
X-25962975Y3663227D01*
X-25976943Y3651627D01*
X-25990872Y3641605D01*
X-26006302Y3632052D01*
X-26063355Y3580039D01*
X-26067601Y3576345D01*
X-26085913Y3561140D01*
X-26085916Y3561136D01*
X-26085917Y3561136D01*
X-26102705Y3544347D01*
X-26106828Y3540408D01*
X-26163872Y3488407D01*
X-26174811Y3473920D01*
X-26186072Y3460979D01*
X-26597061Y3049992D01*
X-26710234Y2936819D01*
X-26750462Y2909939D01*
X-26797915Y2900500D01*
X-30255531Y2900500D01*
X-30316006Y2916247D01*
X-30521043Y3030789D01*
X-30745831Y3110212D01*
X-30980797Y3150500D01*
X-30980800Y3150500D01*
X-32959497Y3150500D01*
X-32959501Y3150500D01*
X-33078192Y3140397D01*
X-33137541Y3135346D01*
X-33266896Y3101665D01*
X-33368250Y3075275D01*
X-33476867Y3026175D01*
X-33585486Y2977077D01*
X-33783003Y2843579D01*
X-33955118Y2678621D01*
X-34096879Y2486947D01*
X-34204207Y2274074D01*
X-34274016Y2046123D01*
X-34304298Y1809654D01*
X-34294180Y1571468D01*
X-34243954Y1338419D01*
X-34155064Y1117210D01*
X-34030069Y914205D01*
X-33892058Y757394D01*
X-33872562Y735243D01*
X-33687085Y585480D01*
X-33478951Y469208D01*
X-33254168Y389787D01*
X-33019203Y349500D01*
X-33019200Y349500D01*
X-31040503Y349500D01*
X-31040499Y349500D01*
X-30862460Y364653D01*
X-30631749Y424724D01*
X-30414514Y522922D01*
X-30332677Y578235D01*
X-30299550Y594065D01*
X-30263240Y599500D01*
X-26299454Y599500D01*
X-26293728Y599368D01*
X-26216638Y595804D01*
X-26216637Y595804D01*
X-26216636Y595804D01*
X-26140220Y606463D01*
X-26134532Y607123D01*
X-26057686Y614244D01*
X-26040231Y619210D01*
X-26023436Y622753D01*
X-26005467Y625260D01*
X-25932289Y649786D01*
X-25926821Y651479D01*
X-25852607Y672595D01*
X-25836356Y680687D01*
X-25820504Y687253D01*
X-25803297Y693020D01*
X-25735888Y730566D01*
X-25730824Y733236D01*
X-25661741Y767635D01*
X-25647267Y778566D01*
X-25632885Y787938D01*
X-25617024Y796772D01*
X-25557646Y846079D01*
X-25553159Y849633D01*
X-25491592Y896128D01*
X-25439611Y953147D01*
X-25435657Y957288D01*
X-24517288Y1875657D01*
X-24513147Y1879611D01*
X-24456128Y1931592D01*
X-24409633Y1993159D01*
X-24406079Y1997646D01*
X-24356772Y2057024D01*
X-24347938Y2072885D01*
X-24338566Y2087267D01*
X-24327635Y2101741D01*
X-24293236Y2170824D01*
X-24290566Y2175888D01*
X-24253020Y2243297D01*
X-24247253Y2260504D01*
X-24240687Y2276356D01*
X-24232595Y2292607D01*
X-24211479Y2366821D01*
X-24209786Y2372289D01*
X-24185260Y2445467D01*
X-24182753Y2463436D01*
X-24179210Y2480231D01*
X-24174244Y2497686D01*
X-24167123Y2574531D01*
X-24166463Y2580222D01*
X-24166306Y2581342D01*
X-24162968Y2605277D01*
X-24162073Y2611689D01*
X-24139915Y2666979D01*
X-24094532Y2705557D01*
X-24076567Y2709563D01*
X-24101402Y2716526D01*
X-24145329Y2759448D01*
X-24163272Y2818185D01*
X-24165651Y2869629D01*
X-24169805Y2887291D01*
X-24172569Y2904237D01*
X-24174244Y2922312D01*
X-24195360Y2996527D01*
X-24196800Y3002072D01*
X-24214465Y3077181D01*
X-24221800Y3093794D01*
X-24227629Y3109938D01*
X-24232595Y3127389D01*
X-24266993Y3196471D01*
X-24269426Y3201654D01*
X-24300590Y3272232D01*
X-24300592Y3272237D01*
X-24310845Y3287205D01*
X-24319540Y3302001D01*
X-24327633Y3318253D01*
X-24327634Y3318255D01*
X-24374141Y3379840D01*
X-24377487Y3384490D01*
X-24406684Y3427113D01*
X-24421089Y3448142D01*
X-24433920Y3460973D01*
X-24445191Y3473924D01*
X-24445196Y3473931D01*
X-24456128Y3488407D01*
X-24456129Y3488408D01*
X-24513157Y3540397D01*
X-24517277Y3544330D01*
X-24571858Y3598911D01*
X-24586829Y3609166D01*
X-24600290Y3619829D01*
X-24613697Y3632052D01*
X-24679300Y3672671D01*
X-24684100Y3675798D01*
X-24692783Y3681745D01*
X-24747763Y3719408D01*
X-24764359Y3726736D01*
X-24779547Y3734742D01*
X-24784684Y3737923D01*
X-24794981Y3744298D01*
X-24866954Y3772180D01*
X-24872206Y3774356D01*
X-24942814Y3805533D01*
X-24960497Y3809691D01*
X-24976881Y3814765D01*
X-24993802Y3821321D01*
X-25069663Y3835501D01*
X-25075256Y3836682D01*
X-25152263Y3854794D01*
X-25205272Y3881958D01*
X-25239500Y3930706D01*
X-25247047Y3989790D01*
X-25226173Y4045577D01*
X-25181694Y4085194D01*
X-25123873Y4099500D01*
X-22936245Y4099500D01*
X-22877581Y4084746D01*
X-22832878Y4043993D01*
X-22812774Y3986941D01*
X-22822053Y3927167D01*
X-22858506Y3878894D01*
X-22913458Y3853611D01*
X-23086198Y3821321D01*
X-23285019Y3744298D01*
X-23466302Y3632052D01*
X-23623872Y3488407D01*
X-23752366Y3318255D01*
X-23752368Y3318252D01*
X-23800080Y3222430D01*
X-23847405Y3127389D01*
X-23905756Y2922310D01*
X-23915933Y2812471D01*
X-23936567Y2754628D01*
X-23982428Y2713779D01*
X-24002181Y2709212D01*
X-23978922Y2702884D01*
X-23935370Y2662250D01*
X-23915792Y2605999D01*
X-23908710Y2529574D01*
X-23905756Y2497689D01*
X-23890897Y2445467D01*
X-23852353Y2310000D01*
X-23847404Y2292609D01*
X-23752368Y2101747D01*
X-23623873Y1931594D01*
X-23510961Y1828660D01*
X-23481065Y1787109D01*
X-23470500Y1737023D01*
X-23470500Y-1737023D01*
X-23481065Y-1787109D01*
X-23510961Y-1828660D01*
X-23623873Y-1931594D01*
X-23752368Y-2101747D01*
X-23838175Y-2274074D01*
X-23847405Y-2292611D01*
X-23875132Y-2390061D01*
X-23902699Y-2486947D01*
X-23905756Y-2497690D01*
X-23915792Y-2605999D01*
X-23935370Y-2662250D01*
X-23978922Y-2702884D01*
X-24002181Y-2709212D01*
X-23982428Y-2713779D01*
X-23936567Y-2754628D01*
X-23915933Y-2812471D01*
X-23905756Y-2922310D01*
X-23847405Y-3127389D01*
X-23811735Y-3199025D01*
X-23752368Y-3318252D01*
X-23752366Y-3318253D01*
X-23752366Y-3318255D01*
X-23623872Y-3488407D01*
X-23466302Y-3632052D01*
X-23285019Y-3744298D01*
X-23086198Y-3821321D01*
X-22913458Y-3853611D01*
X-22858506Y-3878894D01*
X-22822053Y-3927167D01*
X-22812774Y-3986941D01*
X-22832878Y-4043993D01*
X-22877581Y-4084746D01*
X-22936245Y-4099500D01*
X-25123873Y-4099500D01*
X-25181694Y-4085194D01*
X-25226173Y-4045577D01*
X-25247047Y-3989790D01*
X-25239500Y-3930706D01*
X-25205272Y-3881958D01*
X-25152263Y-3854794D01*
X-25075256Y-3836682D01*
X-25069663Y-3835501D01*
X-24993802Y-3821321D01*
X-24976881Y-3814765D01*
X-24960497Y-3809691D01*
X-24942814Y-3805533D01*
X-24940150Y-3804357D01*
X-24914066Y-3792839D01*
X-24872206Y-3774356D01*
X-24866954Y-3772180D01*
X-24794981Y-3744298D01*
X-24779547Y-3734742D01*
X-24764359Y-3726736D01*
X-24747763Y-3719408D01*
X-24684100Y-3675798D01*
X-24679300Y-3672671D01*
X-24613697Y-3632052D01*
X-24600290Y-3619829D01*
X-24586829Y-3609166D01*
X-24571858Y-3598911D01*
X-24517277Y-3544330D01*
X-24513157Y-3540397D01*
X-24456129Y-3488408D01*
X-24456126Y-3488405D01*
X-24445189Y-3473922D01*
X-24433920Y-3460973D01*
X-24421091Y-3448144D01*
X-24421089Y-3448142D01*
X-24377482Y-3384483D01*
X-24374141Y-3379840D01*
X-24352450Y-3351116D01*
X-24327634Y-3318255D01*
X-24327633Y-3318252D01*
X-24319540Y-3302001D01*
X-24310845Y-3287205D01*
X-24300592Y-3272237D01*
X-24269423Y-3201648D01*
X-24266993Y-3196471D01*
X-24232595Y-3127389D01*
X-24227629Y-3109938D01*
X-24221800Y-3093794D01*
X-24214465Y-3077181D01*
X-24196800Y-3002072D01*
X-24195360Y-2996527D01*
X-24174244Y-2922312D01*
X-24172569Y-2904237D01*
X-24169805Y-2887291D01*
X-24165651Y-2869629D01*
X-24163272Y-2818185D01*
X-24145329Y-2759448D01*
X-24101402Y-2716526D01*
X-24076567Y-2709563D01*
X-24094532Y-2705557D01*
X-24139915Y-2666979D01*
X-24162073Y-2611689D01*
X-24165685Y-2585796D01*
X-24166465Y-2580204D01*
X-24167123Y-2574531D01*
X-24174244Y-2497686D01*
X-24179210Y-2480231D01*
X-24182753Y-2463436D01*
X-24185260Y-2445467D01*
X-24209786Y-2372289D01*
X-24211479Y-2366821D01*
X-24232595Y-2292607D01*
X-24240687Y-2276356D01*
X-24247253Y-2260504D01*
X-24253020Y-2243297D01*
X-24290566Y-2175888D01*
X-24293236Y-2170824D01*
X-24327635Y-2101741D01*
X-24338566Y-2087267D01*
X-24347938Y-2072885D01*
X-24356772Y-2057024D01*
X-24406079Y-1997646D01*
X-24409633Y-1993159D01*
X-24456128Y-1931592D01*
X-24513147Y-1879611D01*
X-24517288Y-1875657D01*
X-25435657Y-957288D01*
X-25439611Y-953147D01*
X-25491592Y-896128D01*
X-25553159Y-849633D01*
X-25557646Y-846079D01*
X-25617024Y-796772D01*
X-25632885Y-787938D01*
X-25647267Y-778566D01*
X-25661741Y-767635D01*
X-25730824Y-733236D01*
X-25735888Y-730566D01*
X-25803297Y-693020D01*
X-25820504Y-687253D01*
X-25836356Y-680687D01*
X-25852607Y-672595D01*
X-25926821Y-651479D01*
X-25932289Y-649786D01*
X-26005467Y-625260D01*
X-26023436Y-622753D01*
X-26040231Y-619210D01*
X-26057686Y-614244D01*
X-26134532Y-607123D01*
X-26140220Y-606463D01*
X-26216636Y-595804D01*
X-26216637Y-595804D01*
X-26287408Y-599075D01*
X-26293728Y-599368D01*
X-26299454Y-599500D01*
X-30255531Y-599500D01*
X-30316006Y-583753D01*
X-30521043Y-469210D01*
X-30745831Y-389787D01*
X-30980797Y-349500D01*
X-30980800Y-349500D01*
X-32959497Y-349500D01*
X-32959501Y-349500D01*
X-33137539Y-364653D01*
X-33368250Y-424724D01*
X-33585485Y-522922D01*
X-33783002Y-656420D01*
X-33863151Y-733236D01*
X-33955118Y-821379D01*
X-34096879Y-1013053D01*
X-34204207Y-1225926D01*
X-34274016Y-1453877D01*
X-34304298Y-1690346D01*
X-34294180Y-1928532D01*
X-34243954Y-2161581D01*
X-34155064Y-2382790D01*
X-34030069Y-2585795D01*
X-33872564Y-2764755D01*
X-33687080Y-2914523D01*
X-33478954Y-3030790D01*
X-33254944Y-3109938D01*
X-33254168Y-3110212D01*
X-33019203Y-3150500D01*
X-33019200Y-3150500D01*
X-31040503Y-3150500D01*
X-31040499Y-3150500D01*
X-30898067Y-3138376D01*
X-30862459Y-3135346D01*
X-30785556Y-3115322D01*
X-30631749Y-3075275D01*
X-30414514Y-2977077D01*
X-30332677Y-2921765D01*
X-30299550Y-2905935D01*
X-30263240Y-2900500D01*
X-26797915Y-2900500D01*
X-26750462Y-2909939D01*
X-26710233Y-2936819D01*
X-26186072Y-3460979D01*
X-26174811Y-3473920D01*
X-26163872Y-3488407D01*
X-26106828Y-3540408D01*
X-26102707Y-3544344D01*
X-26085913Y-3561140D01*
X-26067601Y-3576345D01*
X-26063355Y-3580039D01*
X-26006302Y-3632052D01*
X-25990872Y-3641605D01*
X-25976943Y-3651627D01*
X-25962975Y-3663227D01*
X-25895514Y-3700800D01*
X-25890662Y-3703651D01*
X-25825019Y-3744298D01*
X-25808091Y-3750855D01*
X-25792555Y-3758148D01*
X-25776702Y-3766979D01*
X-25703521Y-3791506D01*
X-25698172Y-3793437D01*
X-25626198Y-3821321D01*
X-25616241Y-3823182D01*
X-25608365Y-3824655D01*
X-25591743Y-3828972D01*
X-25574536Y-3834738D01*
X-25574536Y-3834739D01*
X-25498090Y-3845402D01*
X-25492469Y-3846318D01*
X-25478090Y-3849007D01*
X-25453459Y-3853612D01*
X-25398506Y-3878896D01*
X-25362054Y-3927168D01*
X-25352776Y-3986943D01*
X-25372881Y-4043994D01*
X-25417584Y-4084746D01*
X-25476247Y-4099500D01*
X-30255531Y-4099500D01*
X-30316006Y-4083753D01*
X-30521043Y-3969210D01*
X-30745831Y-3889787D01*
X-30980797Y-3849500D01*
X-30980800Y-3849500D01*
X-32959497Y-3849500D01*
X-32959501Y-3849500D01*
X-33137539Y-3864653D01*
X-33368250Y-3924724D01*
X-33585485Y-4022922D01*
X-33700266Y-4100500D01*
X-33783003Y-4156421D01*
X-33955118Y-4321379D01*
X-34096879Y-4513053D01*
X-34204207Y-4725926D01*
X-34274016Y-4953877D01*
X-34304298Y-5190346D01*
X-34294180Y-5428532D01*
X-34243954Y-5661581D01*
X-34155064Y-5882790D01*
X-34030069Y-6085795D01*
X-33872564Y-6264755D01*
X-33687080Y-6414523D01*
X-33478954Y-6530790D01*
X-33283094Y-6599992D01*
X-33254168Y-6610212D01*
X-33019203Y-6650500D01*
X-33019200Y-6650500D01*
X-31040503Y-6650500D01*
X-31040499Y-6650500D01*
X-30898067Y-6638376D01*
X-30862459Y-6635346D01*
X-30785556Y-6615322D01*
X-30631749Y-6575275D01*
X-30414514Y-6477077D01*
X-30332677Y-6421765D01*
X-30299550Y-6405935D01*
X-30263240Y-6400500D01*
X-25476248Y-6400500D01*
X-25417584Y-6415255D01*
X-25372881Y-6456007D01*
X-25352777Y-6513060D01*
X-25362056Y-6572835D01*
X-25398511Y-6621107D01*
X-25453465Y-6646389D01*
X-25492451Y-6653676D01*
X-25498102Y-6654598D01*
X-25574534Y-6665260D01*
X-25582838Y-6668043D01*
X-25591750Y-6671030D01*
X-25608362Y-6675344D01*
X-25626197Y-6678678D01*
X-25698146Y-6706551D01*
X-25703531Y-6708495D01*
X-25776700Y-6733020D01*
X-25792557Y-6741851D01*
X-25808093Y-6749144D01*
X-25825020Y-6755702D01*
X-25890621Y-6796320D01*
X-25895559Y-6799222D01*
X-25962974Y-6836772D01*
X-25976942Y-6848370D01*
X-25990876Y-6858396D01*
X-26006300Y-6867946D01*
X-26006302Y-6867948D01*
X-26063345Y-6919949D01*
X-26067612Y-6923662D01*
X-26085913Y-6938860D01*
X-26085918Y-6938865D01*
X-26102698Y-6955645D01*
X-26106840Y-6959600D01*
X-26163872Y-7011593D01*
X-26174806Y-7026071D01*
X-26186079Y-7039026D01*
X-26710234Y-7563181D01*
X-26750462Y-7590061D01*
X-26797915Y-7599500D01*
X-30255531Y-7599500D01*
X-30316006Y-7583753D01*
X-30521043Y-7469210D01*
X-30745831Y-7389787D01*
X-30980797Y-7349500D01*
X-30980800Y-7349500D01*
X-32959497Y-7349500D01*
X-32959501Y-7349500D01*
X-33137539Y-7364653D01*
X-33368250Y-7424724D01*
X-33585485Y-7522922D01*
X-33752084Y-7635523D01*
X-33783003Y-7656421D01*
X-33955118Y-7821379D01*
X-34096879Y-8013053D01*
X-34204207Y-8225926D01*
X-34274016Y-8453877D01*
X-34304298Y-8690346D01*
X-34294180Y-8928532D01*
X-34243954Y-9161581D01*
X-34155064Y-9382790D01*
X-34030069Y-9585795D01*
X-33872564Y-9764755D01*
X-33687080Y-9914523D01*
X-33478954Y-10030790D01*
X-33321280Y-10086500D01*
X-33254168Y-10110212D01*
X-33019203Y-10150500D01*
X-33019200Y-10150500D01*
X-31040503Y-10150500D01*
X-31040499Y-10150500D01*
X-30898067Y-10138376D01*
X-30862459Y-10135346D01*
X-30785556Y-10115322D01*
X-30631749Y-10075275D01*
X-30414514Y-9977077D01*
X-30414342Y-9976961D01*
X-30332676Y-9921764D01*
X-30299550Y-9905935D01*
X-30263240Y-9900500D01*
X-29408461Y-9900500D01*
X-29346461Y-9917113D01*
X-29301074Y-9962500D01*
X-29284461Y-10024500D01*
X-29301074Y-10086500D01*
X-29327179Y-10131715D01*
X-29336937Y-10161747D01*
X-29385674Y-10311744D01*
X-29405460Y-10500000D01*
X-29385674Y-10688256D01*
X-29345549Y-10811748D01*
X-29327179Y-10868284D01*
X-29301074Y-10913500D01*
X-29284461Y-10975500D01*
X-29301074Y-11037500D01*
X-29346461Y-11082887D01*
X-29408461Y-11099500D01*
X-30255531Y-11099500D01*
X-30316006Y-11083753D01*
X-30521043Y-10969210D01*
X-30745831Y-10889787D01*
X-30980797Y-10849500D01*
X-30980800Y-10849500D01*
X-32959497Y-10849500D01*
X-32959501Y-10849500D01*
X-33137539Y-10864653D01*
X-33368250Y-10924724D01*
X-33585485Y-11022922D01*
X-33783002Y-11156420D01*
X-33849380Y-11220038D01*
X-33955118Y-11321379D01*
X-34096879Y-11513053D01*
X-34204207Y-11725926D01*
X-34274016Y-11953877D01*
X-34304298Y-12190346D01*
X-34294180Y-12428532D01*
X-34243954Y-12661581D01*
X-34155064Y-12882790D01*
X-34030069Y-13085795D01*
X-33872564Y-13264755D01*
X-33687080Y-13414523D01*
X-33478954Y-13530790D01*
X-33254944Y-13609938D01*
X-33254168Y-13610212D01*
X-33019203Y-13650500D01*
X-33019200Y-13650500D01*
X-31040503Y-13650500D01*
X-31040499Y-13650500D01*
X-30898067Y-13638376D01*
X-30862459Y-13635346D01*
X-30785556Y-13615322D01*
X-30631749Y-13575275D01*
X-30414514Y-13477077D01*
X-30332677Y-13421765D01*
X-30299550Y-13405935D01*
X-30263240Y-13400500D01*
X-26797915Y-13400500D01*
X-26750462Y-13409939D01*
X-26710233Y-13436819D01*
X-26186072Y-13960979D01*
X-26174811Y-13973920D01*
X-26163872Y-13988407D01*
X-26106828Y-14040408D01*
X-26102707Y-14044344D01*
X-26085913Y-14061140D01*
X-26067601Y-14076345D01*
X-26063355Y-14080039D01*
X-26006302Y-14132052D01*
X-25990872Y-14141605D01*
X-25976943Y-14151627D01*
X-25962975Y-14163227D01*
X-25895514Y-14200800D01*
X-25890662Y-14203651D01*
X-25825019Y-14244298D01*
X-25808091Y-14250855D01*
X-25792555Y-14258148D01*
X-25776702Y-14266979D01*
X-25703521Y-14291506D01*
X-25698172Y-14293437D01*
X-25626198Y-14321321D01*
X-25616241Y-14323182D01*
X-25608365Y-14324655D01*
X-25591743Y-14328972D01*
X-25574535Y-14334739D01*
X-25574536Y-14334739D01*
X-25498090Y-14345402D01*
X-25492469Y-14346318D01*
X-25477695Y-14349080D01*
X-25453459Y-14353612D01*
X-25398506Y-14378896D01*
X-25362054Y-14427168D01*
X-25352776Y-14486943D01*
X-25372881Y-14543994D01*
X-25417584Y-14584746D01*
X-25476247Y-14599500D01*
X-30255531Y-14599500D01*
X-30316006Y-14583753D01*
X-30521043Y-14469210D01*
X-30745831Y-14389787D01*
X-30980797Y-14349500D01*
X-30980800Y-14349500D01*
X-32959497Y-14349500D01*
X-32959501Y-14349500D01*
X-33137539Y-14364653D01*
X-33368250Y-14424724D01*
X-33585485Y-14522922D01*
X-33690745Y-14594065D01*
X-33783003Y-14656421D01*
X-33955118Y-14821379D01*
X-34096879Y-15013053D01*
X-34204207Y-15225926D01*
X-34274016Y-15453877D01*
X-34304298Y-15690346D01*
X-34294180Y-15928532D01*
X-34243954Y-16161581D01*
X-34155064Y-16382790D01*
X-34030069Y-16585795D01*
X-33872564Y-16764755D01*
X-33687080Y-16914523D01*
X-33478954Y-17030790D01*
X-33283094Y-17099992D01*
X-33254168Y-17110212D01*
X-33019203Y-17150500D01*
X-33019200Y-17150500D01*
X-31040503Y-17150500D01*
X-31040499Y-17150500D01*
X-30898067Y-17138376D01*
X-30862459Y-17135346D01*
X-30785556Y-17115322D01*
X-30631749Y-17075275D01*
X-30414514Y-16977077D01*
X-30332677Y-16921765D01*
X-30299550Y-16905935D01*
X-30263240Y-16900500D01*
X-25476248Y-16900500D01*
X-25417584Y-16915255D01*
X-25372881Y-16956007D01*
X-25352777Y-17013060D01*
X-25362056Y-17072835D01*
X-25398511Y-17121107D01*
X-25453465Y-17146389D01*
X-25492451Y-17153676D01*
X-25498102Y-17154598D01*
X-25574534Y-17165260D01*
X-25582838Y-17168043D01*
X-25591750Y-17171030D01*
X-25608362Y-17175344D01*
X-25626197Y-17178678D01*
X-25698146Y-17206551D01*
X-25703531Y-17208495D01*
X-25776700Y-17233020D01*
X-25792557Y-17241851D01*
X-25808093Y-17249144D01*
X-25825020Y-17255702D01*
X-25890621Y-17296320D01*
X-25895559Y-17299222D01*
X-25962974Y-17336772D01*
X-25976942Y-17348370D01*
X-25990876Y-17358396D01*
X-26006300Y-17367946D01*
X-26006302Y-17367948D01*
X-26063345Y-17419949D01*
X-26067612Y-17423662D01*
X-26085913Y-17438860D01*
X-26085918Y-17438865D01*
X-26102698Y-17455645D01*
X-26106840Y-17459600D01*
X-26163872Y-17511593D01*
X-26174806Y-17526071D01*
X-26186079Y-17539026D01*
X-26710234Y-18063181D01*
X-26750462Y-18090061D01*
X-26797915Y-18099500D01*
X-30255531Y-18099500D01*
X-30316006Y-18083753D01*
X-30521043Y-17969210D01*
X-30745831Y-17889787D01*
X-30980797Y-17849500D01*
X-30980800Y-17849500D01*
X-32959497Y-17849500D01*
X-32959501Y-17849500D01*
X-33137539Y-17864653D01*
X-33368250Y-17924724D01*
X-33585485Y-18022922D01*
X-33745901Y-18131344D01*
X-33783003Y-18156421D01*
X-33955118Y-18321379D01*
X-34096879Y-18513053D01*
X-34204207Y-18725926D01*
X-34274016Y-18953877D01*
X-34304298Y-19190346D01*
X-40099500Y-19190346D01*
X-40099500Y21675500D01*
X-40082887Y21737500D01*
X-40037500Y21782887D01*
X-39975500Y21799500D01*
X-34524760Y21799500D01*
X-34524616Y21799471D01*
X-34524616Y21799476D01*
X-34500000Y21799459D01*
X-34499999Y21799459D01*
X-34499618Y21799615D01*
X-34499617Y21799616D01*
X-34499605Y21799644D01*
X-34499500Y21799901D01*
X-34499459Y21800000D01*
X-34499459Y21824554D01*
X-34499500Y21824760D01*
X-34499500Y25375665D01*
X-27000500Y25375665D01*
X-26959571Y25130386D01*
X-26878828Y24895190D01*
X-26760474Y24676491D01*
X-26760471Y24676487D01*
X-26760470Y24676485D01*
X-26702581Y24602110D01*
X-26607738Y24480256D01*
X-26424785Y24311836D01*
X-26280671Y24217682D01*
X-26216604Y24175825D01*
X-26117971Y24132561D01*
X-25988881Y24075937D01*
X-25747821Y24014892D01*
X-25747819Y24014891D01*
X-25747816Y24014891D01*
X-25562073Y23999500D01*
X-25562067Y23999500D01*
X-25437933Y23999500D01*
X-25437927Y23999500D01*
X-25252183Y24014891D01*
X-25232731Y24019817D01*
X-25011119Y24075937D01*
X-24988678Y24085780D01*
X-24783395Y24175825D01*
X-24623708Y24280154D01*
X-24575215Y24311836D01*
X-24392262Y24480256D01*
X-24392261Y24480256D01*
X-24392259Y24480259D01*
X-24239529Y24676485D01*
X-24121170Y24895194D01*
X-24040429Y25130384D01*
X-23999500Y25375665D01*
X-23999500Y25624335D01*
X-24040429Y25869615D01*
X-24121170Y26104805D01*
X-24121170Y26104806D01*
X-24121172Y26104810D01*
X-24239526Y26323509D01*
X-24239526Y26323510D01*
X-24239529Y26323514D01*
X-24392259Y26519740D01*
X-24392262Y26519744D01*
X-24575215Y26688164D01*
X-24783393Y26824173D01*
X-25011119Y26924063D01*
X-25252179Y26985108D01*
X-25326480Y26991264D01*
X-25437927Y27000500D01*
X-25437933Y27000500D01*
X-25562067Y27000500D01*
X-25562073Y27000500D01*
X-25663387Y26992104D01*
X-25747821Y26985108D01*
X-25988881Y26924063D01*
X-26216607Y26824173D01*
X-26424785Y26688164D01*
X-26607738Y26519744D01*
X-26760474Y26323509D01*
X-26878828Y26104810D01*
X-26959571Y25869614D01*
X-27000500Y25624335D01*
X-27000500Y25375665D01*
X-34499500Y25375665D01*
X-34499500Y27025000D01*
X-4575000Y27025000D01*
X-3850000Y27025000D01*
X-3850000Y27724999D01*
X-3898315Y27724999D01*
X-3997605Y27714856D01*
X-4158486Y27661546D01*
X-4302732Y27572573D01*
X-4422573Y27452732D01*
X-4511546Y27308486D01*
X-4564856Y27147606D01*
X-4575000Y27048315D01*
X-4575000Y27025000D01*
X-34499500Y27025000D01*
X-34499500Y27875500D01*
X-34482887Y27937500D01*
X-34437500Y27982887D01*
X-34375500Y27999500D01*
X-31000966Y27999500D01*
X-30998958Y27999484D01*
X-30842061Y27996943D01*
X-30842059Y27996943D01*
X-30842054Y27996943D01*
X-30527416Y28025499D01*
X-30217618Y28087466D01*
X-29916196Y28182135D01*
X-29626597Y28308427D01*
X-29352137Y28464893D01*
X-29095923Y28649763D01*
X-28860907Y28860907D01*
X-28649763Y29095923D01*
X-28464893Y29352137D01*
X-28308427Y29626597D01*
X-28182135Y29916196D01*
X-28087466Y30217618D01*
X-28025499Y30527416D01*
X-27996943Y30842054D01*
X-27999484Y30998958D01*
X-27999500Y31000966D01*
X-27999500Y34228051D01*
X-27982958Y34289928D01*
X-27937745Y34335296D01*
X-27875925Y34352049D01*
X15216083Y34499499D01*
X15216507Y34499500D01*
X29875500Y34499500D01*
X29937500Y34482887D01*
G37*
%TD.AperFunction*%
%TD*%
M02*
